<svg xmlns="http://www.w3.org/2000/svg"><symbol id="icon-close" viewBox="0 0 300 300"><path d="M51.5 261l98.5-98.5 98.5 98.5 12.5-12.5-98.5-98.5L261 51.5 248.5 39 150 137.5 51.5 39 39 51.5l98.5 98.5L39 248.5"/></symbol><symbol id="icon-social_bitbucket" viewBox="1054 982.7 500 458.7"><path d="M1304 1042c-81.1 0-147.3 21.8-147.3 48.9 0 7.1 17.7 109.4 24.7 149.9 3.1 18.2 50.1 44.8 122.6 44.8l.1-.2v.2c72.4 0 119.4-26.7 122.6-44.8 7-40.5 24.7-142.8 24.7-149.9-.1-27.1-66.3-48.9-147.4-48.9zm0 210.7c-25.9 0-46.8-21-46.8-46.8 0-25.9 21-46.8 46.8-46.8 25.9 0 46.8 21 46.8 46.8 0 25.9-20.9 46.8-46.8 46.8zm0-146.7c-52.1-.1-94.3-9.1-94.3-20.2s42.3-20 94.4-19.9c52.1.1 94.3 9.1 94.3 20.2-.1 11-42.3 19.9-94.4 19.9zM1409.9 1281.4c-2.2 0-4 1.6-4 1.6s-36.3 28.7-101.8 28.7c-65.6 0-101.8-28.7-101.8-28.7s-1.8-1.6-4-1.6c-2.7 0-5.2 1.8-5.2 5.8 0 .4 0 .8.1 1.2 5.6 30.1 9.7 51.5 10.5 54.8 4.9 22.2 48.3 38.9 100.5 38.9s95.6-16.7 100.5-38.9c.7-3.3 4.8-24.6 10.5-54.8.1-.4.1-.8.1-1.2-.2-4-2.8-5.8-5.4-5.8z"/><circle cx="1304" cy="1205.9" r="23.5"/></symbol><symbol id="icon-social_codepen" viewBox="530 498.7 500 458.7"><path d="M780 555.7c-95.2 0-172.3 77.2-172.3 172.3S684.8 900.4 780 900.4c95.2 0 172.3-77.2 172.3-172.3S875.2 555.7 780 555.7zm0 316.4c-79.4 0-144-64.6-144-144s64.6-144 144-144 144 64.6 144 144-64.6 144-144 144z"/><path d="M886.5 694.4c0-.1-.1-.3-.1-.4 0-.3-.1-.5-.2-.8 0-.2-.1-.3-.1-.4-.1-.2-.1-.4-.2-.7-.1-.2-.1-.3-.2-.4l-.3-.6c-.1-.1-.2-.3-.3-.4-.1-.2-.2-.4-.4-.6-.1-.1-.2-.3-.3-.4-.1-.2-.3-.3-.5-.5l-.4-.4c-.2-.2-.3-.3-.5-.4-.1-.1-.3-.2-.4-.3-.1 0-.1-.1-.2-.1l-97.3-65c-3.1-2.1-7.1-2.1-10.2 0l-97.4 64.9c-.1 0-.1.1-.2.1-.1.1-.3.2-.4.3-.2.1-.4.3-.5.4l-.4.4-.5.5c-.1.1-.2.3-.3.4-.1.2-.3.4-.4.6-.1.1-.2.3-.3.4l-.3.6c-.1.1-.1.3-.2.4-.1.2-.2.4-.2.7 0 .1-.1.3-.1.4-.1.3-.1.5-.2.8 0 .1-.1.3-.1.4-.1.4-.1.8-.1 1.2v64.9c0 .4 0 .8.1 1.2 0 .1.1.3.1.4 0 .3.1.5.2.8 0 .2.1.3.1.4.1.2.1.4.2.7.1.2.1.3.2.4l.3.6c.1.1.2.3.3.4.1.2.2.4.4.6.1.1.2.3.3.4.1.2.3.3.5.5l.4.4c.2.2.3.3.5.4.1.1.3.2.4.3.1 0 .1.1.2.1l97.4 64.9c1.5 1 3.3 1.5 5.1 1.5 1.8 0 3.5-.5 5.1-1.5l97.4-64.9c.1 0 .1-.1.2-.1.1-.1.3-.2.4-.3.2-.1.4-.3.5-.4l.4-.4.5-.5c.1-.1.2-.3.3-.4.1-.2.3-.4.4-.6.1-.1.2-.3.3-.4l.3-.6c.1-.1.1-.3.2-.4.1-.2.2-.4.2-.7 0-.1.1-.3.1-.4.1-.3.1-.5.2-.8 0-.1.1-.3.1-.4.1-.4.1-.8.1-1.2v-64.9c-.1-.3-.2-.7-.2-1.1zm-97.3-46.7l71.8 47.8-32 21.4-39.7-26.6v-42.6zm-18.4 0v42.7L731.1 717 699 695.6l71.8-47.9zm-79 65l22.9 15.3-22.9 15.3v-30.6zm79 95.6L699 760.5l32.1-21.4 39.7 26.6v42.6zm9.2-58.6L747.6 728l32.4-21.7 32.4 21.7-32.4 21.7zm9.2 58.6v-42.7l39.7-26.6 32 21.4-71.7 47.9zm79-65L845.3 728l22.9-15.3v30.6z"/></symbol><symbol id="icon-social_dribbble" viewBox="0 498.7 500 458.7"><path fill-rule="evenodd" clip-rule="evenodd" d="M240.1 887.3c-87.8 0-159.3-71.5-159.3-159.3s71.5-159.3 159.3-159.3S399.4 640.2 399.4 728s-71.5 159.3-159.3 159.3zm134.3-137.5c-4.7-1.5-42.1-12.6-84.7-5.8 17.8 48.9 25 88.7 26.4 97 30.5-20.6 52.3-53.3 58.3-91.2zm-81.2 103.7c-2-11.9-9.9-53.5-29-103.2l-.9.3c-76.7 26.7-104.3 80-106.7 85 23.1 18 52.1 28.7 83.5 28.7 18.8 0 36.8-3.9 53.1-10.8zM139 819.2c3.1-5.3 40.4-67.1 110.6-89.8 1.8-.6 3.6-1.1 5.4-1.6-3.4-7.7-7.1-15.5-11-23.1-68 20.3-133.9 19.5-139.9 19.4 0 1.4-.1 2.8-.1 4.2 0 34.9 13.3 66.8 35 90.9zm-32.1-118.8c6.1.1 62.1.3 125.8-16.6-22.5-40.1-46.9-73.8-50.4-78.7-38.1 18-66.6 53-75.4 95.3zM208.2 596c3.8 5 28.5 38.7 50.8 79.6 48.4-18.1 68.9-45.7 71.3-49.1-24-21.3-55.6-34.3-90.2-34.3-11 0-21.7 1.3-31.9 3.8zm137.2 46.2c-2.9 3.9-25.7 33.1-76 53.6 3.2 6.5 6.2 13.1 9 19.7 1 2.4 2 4.7 2.9 7 45.3-5.7 90.3 3.4 94.7 4.4-.2-32.1-11.6-61.6-30.6-84.7z"/></symbol><symbol id="icon-social_github" viewBox="1054 498.7 500 458.7"><path d="M1446 728c0 78.5-63.6 142.1-142.1 142.1-78.4 0-141.9-63.5-141.9-142.1 0-78.4 63.6-142.1 141.9-142.1 78.6 0 142.1 63.7 142.1 142.1zm-106.4 115.5c48.8-16.1 84.2-61.6 84.2-115.4 0-66.2-53.7-119.9-119.9-119.9-66 0-119.7 53.7-119.7 119.9 0 53.8 35.5 99.5 84.5 115.4v-22.6c-35 7.9-42.3-16.4-42.3-16.4-5.6-14.3-13.6-18-13.6-18-11.2-7.6.8-7.5.8-7.5 12.3.8 18.9 12.6 18.9 12.6 11.7 20 30.9 12.8 36.9 9.9 1.8-8.7 8.6-10.5 10.8-11.2-31.5-3.3-65.2-14.7-65.2-69.2 0-15.3 5.4-27.8 14.3-37.5-1.4-3.6-6.2-17.8 1.4-37 0 0 11.8-3.7 38.4 14.3 11.1-3.1 23-4.6 35-4.7 11.8.1 23.7 1.7 35 4.7 26.6-18 38.3-14.3 38.3-14.3 7.6 19.3 2.9 33.4 1.4 37 9 9.7 14.4 22.2 14.4 37.5 0 54.5-33.7 65.8-65.2 69.1 5.7 3.9 11.7 11.2 11.7 25.3l-.1 28z"/></symbol><symbol id="icon-social_githubalt" viewBox="-526 982.7 500 458.7"><path fill-rule="evenodd" clip-rule="evenodd" d="M-276 1062.1c-84.9 0-153.7 68.8-153.7 153.7 0 67.9 44 125.5 105.1 145.9 7.7 1.4 10.5-3.3 10.5-7.4 0-3.7-.1-15.8-.2-28.6-42.8 9.3-51.8-18.1-51.8-18.1-7-17.8-17.1-22.5-17.1-22.5-13.9-9.5 1.1-9.3 1.1-9.3 15.4 1.1 23.6 15.8 23.6 15.8 13.7 23.5 36 16.7 44.7 12.8 1.4-9.9 5.4-16.7 9.8-20.6-34.1-3.9-70-17.1-70-76 0-16.8 6-30.5 15.8-41.3-1.6-3.9-6.9-19.5 1.5-40.7 0 0 12.9-4.1 42.3 15.8 12.3-3.4 25.4-5.1 38.5-5.2 13.1.1 26.2 1.8 38.5 5.2 29.3-19.9 42.2-15.8 42.2-15.8 8.4 21.2 3.1 36.8 1.5 40.7 9.9 10.8 15.8 24.5 15.8 41.3 0 59-36 72-70.2 75.8 5.5 4.8 10.4 14.1 10.4 28.5 0 20.6-.2 37.1-.2 42.2 0 4.1 2.8 8.9 10.6 7.4 61-20.3 105-77.9 105-145.8 0-85-68.8-153.8-153.7-153.8z"/><path d="M-371.5 1282.8c-.3.8-1.5 1-2.6.5s-1.7-1.5-1.4-2.3c.3-.8 1.5-1 2.6-.5 1.2.5 1.8 1.5 1.4 2.3zm-1.9-1.4M-365.3 1289.7c-.7.7-2.2.4-3.1-.7-1-1.1-1.2-2.5-.5-3.2.8-.7 2.1-.4 3.2.7 1 1.1 1.2 2.6.4 3.2zm-1.4-1.5M-359.2 1298.6c-.9.7-2.5 0-3.4-1.3-.9-1.4-.9-3 0-3.7 1-.7 2.5-.1 3.4 1.3 1 1.4 1 3 0 3.7zm0 0M-350.9 1307.1c-.8.9-2.6.7-3.9-.6-1.3-1.2-1.7-3-.9-3.9.9-.9 2.7-.7 4 .6 1.3 1.3 1.7 3 .8 3.9zm0 0M-339.4 1312.1c-.4 1.2-2.1 1.8-3.8 1.2-1.7-.5-2.9-1.9-2.5-3.2.4-1.2 2.1-1.8 3.9-1.2 1.6.6 2.7 2 2.4 3.2zm0 0M-326.9 1313c0 1.3-1.4 2.3-3.3 2.3-1.8 0-3.3-1-3.3-2.2 0-1.3 1.4-2.3 3.3-2.4 1.8.1 3.3 1.1 3.3 2.3zm0 0M-315.2 1311c.2 1.2-1.1 2.5-2.9 2.8-1.8.3-3.4-.4-3.7-1.7-.2-1.3 1.1-2.5 2.9-2.9 1.9-.2 3.5.6 3.7 1.8zm0 0"/></symbol><symbol id="icon-social_googleplus" viewBox="0 0 500 458.7"><path d="M348.3 174.6h-26.1v26.1h-13v-26.1h-26.1v-13h26.1v-26.1h13v26.1h26.1v13zm-73.7 107.8c0 19.5-17.8 43.3-62.7 43.3-32.8 0-60.2-14.2-60.2-38 0-18.4 11.6-42.2 66-42.2-8.1-6.6-10.1-15.8-5.1-25.7-31.8 0-48.1-18.7-48.1-42.5 0-23.3 17.3-44.4 52.6-44.4h56.5L261 146.2h-15c10.5 6 16 18.3 16 31.9 0 12.5-6.9 22.6-16.7 30.2-17.4 13.5-13 21 5.3 34.3 18.1 13.5 24 23.9 24 39.8zM239.4 179c-2.6-20-15.7-36.4-30.9-36.9S183.1 157 185.7 177c2.6 20 17.1 34 32.3 34.4 15.2.4 24-12.4 21.4-32.4zm15.7 105.4c0-16.4-15-32.1-40.2-32.1-22.7-.2-41.9 14.3-41.9 31.2 0 17.3 16.4 31.6 39.1 31.6 29 .1 43-13.4 43-30.7z"/></symbol><symbol id="icon-social_instagram" viewBox="-526 -490.3 500 458.7"><path d="M-191.4-372h-169.2c-14.6 0-26.4 11.8-26.4 26.3v169.3c0 14.5 11.8 26.3 26.4 26.3h169.2c14.6 0 26.4-11.8 26.4-26.3v-169.3c0-14.5-11.8-26.3-26.4-26.3zm-41.4 31.5c0-3.4 2.8-6.2 6.2-6.2h30c3.4 0 6.2 2.8 6.2 6.2v29.9c0 3.4-2.8 6.2-6.2 6.2h-30c-3.4 0-6.2-2.8-6.2-6.2v-29.9zm-42.9 37.2c23.6 0 42.7 19.1 42.7 42.6s-19.1 42.6-42.7 42.6-42.7-19.1-42.7-42.6 19.1-42.6 42.7-42.6zm85.9 121.3c0 3.4-2.8 6.2-6.2 6.2h-159.4c-3.4 0-6.2-2.8-6.2-6.2v-96.5h20.8c-1.6 5.7-2.4 11.6-2.4 17.8 0 37.1 30.3 67.4 67.5 67.4s67.5-30.2 67.5-67.4c0-6.2-.8-12.1-2.4-17.8h20.8v96.5z"/></symbol><symbol id="icon-social_rdio" viewBox="-526 495.7 500 458.7"><path d="M-181.3 710.2c.6 4.6.9 9.2.9 14v.8c0 60.9-49 110.3-115.1 110.3-65.6 0-114.3-48.6-114.3-109.5v-.8c0-60.9 49-110.3 115.1-110.3 11.4 0 22.3 1.6 32.5 4.3v64.6c-1.9-1-4-1.8-6.2-2.6-28.5-9.6-59 4-73.4 27.4l-.4.7c-14.7 23.7-7.3 50.6 20.4 59.9 28.5 9.6 59-4 73.4-27.4l.4-.7c5-8.1 8.5-16.5 8.4-24.5v-89.3c1.6.8 3.1 1.6 4.6 2.4 1.4.7 1.7 1.5 3 2.3 14.5 9.1 51.8 33.4 82.7 32.5 16.6 1.4 2.4 37-32 45.9z"/></symbol><symbol id="icon-social_rss" viewBox="0 0 300 300"><path d="M202.8 235.7s-.1-8-.3-10.2c-.8-9-2.2-18-4.6-26.7-4.8-17.4-13.1-33.8-24.2-48.1-10.9-14.1-24.7-26.2-40.2-35-15.8-9.1-33.4-15.2-51.4-17.4-4.5-.5-9-.9-13.5-1.1h-3.4c-.9 0-.7-.5-.7-1.3v-7.2-13.9-7V65c0-.8.6-.6 1.3-.6 4.6 0 9.2.2 13.8.6 4.5.4 9 1 13.5 1.7 9.1 1.5 18 3.8 26.8 6.8C137 79.4 153.1 88 167.6 99c14.4 10.9 27.1 24.1 37.4 38.9 10.4 14.9 18.5 31.6 23.7 49.1 2.6 8.7 4.7 17.7 5.7 26.7.5 4.5 1 9 1.2 13.6.1 2.3-.1 8.4-.1 8.4h-32.7zM144.9 235.5s-1.2-13.3-2.6-19.2c-2.9-11.7-8.4-22.6-16-31.9-7.6-9.2-17.1-16.6-27.9-21.6-5.5-2.6-11.3-4.6-17.2-5.8-3.1-.6-6.2-1.1-9.3-1.4-1.5-.1-2.9-.2-4.4-.3l-2.9-.1v-32.7s2.8-.1 3.7 0c12.3.5 24.5 2.9 36.1 7.2 11.2 4.2 21.8 10.3 31.1 17.8 9.3 7.6 17.5 16.6 24.1 26.7 6.6 10.3 11.6 21.6 14.7 33.4.8 3 1.4 6 1.9 9 .5 3.1.8 6.1 1.2 9.2.2 1.5.2 3 .3 4.5.1 1.5.1 5.1.1 5.1l-32.9.1zM64.5 213c-.1-9.1 5.4-17.6 13.7-21.2 8.9-3.8 19.5-1.5 25.9 5.6 3.1 3.5 5.1 7.8 5.8 12.4.7 4.8-.5 9.9-2.9 14.1-4.7 8.2-14.5 12.8-23.8 11-9.2-1.7-16.9-9.1-18.4-18.5-.2-.9-.4-2.2-.3-3.4-.1-4-.1.9 0 0z"/></symbol><symbol id="icon-social_sitepoint" viewBox="-526 1477.7 500 458.7"><path d="M-394 1688.5l21.9 21.3 69.3 64.7 29.8-28.8c2.7-3.8 2.6-8.9-.6-12.4l-27.3-23.9h.1l-29.4-28.5c-3.4-3.9-3.4-9.7.3-13.5l79.1-76.4-35.9-34.9-85.4 82.4-22 21.2c-8.1 8-8.1 20.9.1 28.8z"/><path d="M-158 1725.5l-21.9-21.3-69.3-64.7-29.8 28.8c-2.7 3.7-2.6 8.8.6 12.4l27.3 23.9h-.1l29.4 28.5c3.4 3.9 3.4 9.7-.3 13.5l-79.1 76.4 36 34.9 85.4-82.5 22-21.2c8-7.8 8-20.7-.2-28.7z"/></symbol><symbol id="icon-social_soundcloud" viewBox="-206.5 1.5 300 300"><path d="M-176.6 162c-.5 0-.9.4-1 1l-1.8 13.7 1.8 13.4c.1.6.5 1 1 1s.9-.4 1-1l2.1-13.4-2.1-13.7c-.1-.6-.5-1-1-1zm10.1-7.5c-.1-.6-.5-1-1-1s-1 .4-1 1l-2.4 22.1 2.4 21.6c.1.6.5 1 1 1s.9-.4 1-1l2.7-21.6-2.7-22.1zm38.1-20.4c-1 0-1.8.8-1.9 1.8l-1.9 40.6 1.9 26.2c.1 1 .9 1.8 1.9 1.8 1 0 1.8-.8 1.9-1.8l2.2-26.2-2.2-40.6c-.1-.9-1-1.8-1.9-1.8zm-19.7 14.2c-.8 0-1.4.6-1.4 1.4l-2.2 26.9 2.2 26c.1.8.7 1.4 1.4 1.4.8 0 1.4-.6 1.4-1.4l2.5-26-2.5-26.9c-.1-.8-.7-1.4-1.4-1.4zm39.7 56.4c1.2 0 2.2-1 2.3-2.3l1.9-25.8-1.9-54.1c-.1-1.3-1-2.3-2.3-2.3-1.2 0-2.2 1-2.3 2.3l-1.7 54.1 1.7 25.8c0 1.3 1.1 2.3 2.3 2.3zm41 .1c1.7 0 3.1-1.4 3.1-3.1l1.3-25.1-1.3-62.4c0-1.7-1.4-3.1-3.1-3.1-1.7 0-3.1 1.4-3.1 3.1l-1.2 62.4 1.2 25.1c0 1.7 1.4 3.1 3.1 3.1zm-20.7-.1c1.5 0 2.7-1.2 2.7-2.7l1.6-25.4-1.6-54.5c0-1.5-1.2-2.7-2.7-2.7-1.5 0-2.7 1.2-2.7 2.7l-1.4 54.5 1.4 25.4c.1 1.5 1.2 2.7 2.7 2.7zm-50.2-.2c.9 0 1.6-.7 1.6-1.6l2.3-26.3-2.3-25c-.1-.9-.8-1.6-1.6-1.6-.9 0-1.6.7-1.7 1.6l-2 25 2 26.2c.1 1 .8 1.7 1.7 1.7zm-19.6-1.5c.6 0 1.2-.5 1.2-1.2l2.6-25.2-2.6-26.2c-.1-.7-.6-1.2-1.2-1.2s-1.2.5-1.2 1.2l-2.3 26.2 2.3 25.2c.1.7.6 1.2 1.2 1.2zm80.1-81.8c-1.6 0-2.9 1.3-2.9 2.9l-1.3 52.5 1.3 25.2c0 1.6 1.3 2.9 2.9 2.9 1.6 0 2.9-1.3 2.9-2.9l1.5-25.2-1.5-52.5c0-1.6-1.3-2.9-2.9-2.9zm-40.7 83.5c1.1 0 2-.9 2.1-2.1l2-26.1-2-49.9c-.1-1.2-1-2.1-2.1-2.1s-2 .9-2.1 2.1l-1.8 49.9 1.8 26.1c.1 1.2 1 2.1 2.1 2.1zm22.7-2.4l1.7-25.7-1.7-55.9c0-1.4-1.1-2.5-2.5-2.5s-2.5 1.1-2.5 2.5l-1.5 55.9 1.6 25.7c0 1.4 1.1 2.5 2.5 2.5 1.3-.1 2.4-1.2 2.4-2.5zm132-57.9c-4.1 0-8.1.8-11.7 2.3-2.4-27.2-25.3-48.6-53.1-48.6-6.8 0-13.5 1.3-19.3 3.6-2.3.9-2.9 1.8-2.9 3.6v96c0 1.9 1.5 3.4 3.3 3.6l83.8.1c16.7 0 30.2-13.5 30.2-30.2s-13.6-30.4-30.3-30.4zm-93.3-39.2c-1.8 0-3.3 1.5-3.3 3.3l-1.4 68.1 1.4 24.7c0 1.8 1.5 3.3 3.3 3.3 1.8 0 3.3-1.5 3.3-3.3l1.5-24.7-1.5-68.1c0-1.8-1.5-3.3-3.3-3.3z"/></symbol><symbol id="icon-social_twitter" viewBox="530 -490.3 500 458.7"><path d="M884.7-314.7c.1 2.3.2 4.6.2 7 0 71.4-54.3 153.7-153.7 153.7-30.5 0-58.9-8.9-82.8-24.3 4.2.5 8.5.8 12.9.8 25.3 0 48.6-8.6 67.1-23.1-23.6-.4-43.6-16-50.5-37.5 3.3.6 6.7 1 10.2 1 4.9 0 9.7-.7 14.2-1.9-24.7-5-43.3-26.8-43.3-53v-.7c7.3 4 15.6 6.5 24.5 6.8-14.5-9.7-24-26.2-24-45 0-9.9 2.7-19.2 7.3-27.2 26.6 32.7 66.4 54.2 111.3 56.4-.9-4-1.4-8.1-1.4-12.3 0-29.8 24.2-54 54-54 15.5 0 29.6 6.6 39.4 17.1 12.3-2.4 23.9-6.9 34.3-13.1-4 12.6-12.6 23.2-23.7 29.9 10.9-1.3 21.3-4.2 31-8.5-7.3 10.8-16.5 20.3-27 27.9z"/></symbol></svg>