<?xml version="1.0" encoding="utf-8"?>
<!-- Generator: Adobe Illustrator 18.1.1, SVG Export Plug-In . SVG Version: 6.00 Build 0)  -->
<svg version="1.1" id="Layer_1" xmlns="http://www.w3.org/2000/svg" xmlns:xlink="http://www.w3.org/1999/xlink" x="0px" y="0px"
	 viewBox="0 0 768.9 385.9" enable-background="new 0 0 768.9 385.9" xml:space="preserve">
<metadata><?xpacket begin="﻿" id="W5M0MpCehiHzreSzNTczkc9d"?>
<x:xmpmeta xmlns:x="adobe:ns:meta/" x:xmptk="Adobe XMP Core 5.6-c014 79.156821, 2014/08/29-03:07:50        ">
   <rdf:RDF xmlns:rdf="http://www.w3.org/1999/02/22-rdf-syntax-ns#">
      <rdf:Description rdf:about=""
            xmlns:xmpMM="http://ns.adobe.com/xap/1.0/mm/"
            xmlns:stRef="http://ns.adobe.com/xap/1.0/sType/ResourceRef#"
            xmlns:stEvt="http://ns.adobe.com/xap/1.0/sType/ResourceEvent#"
            xmlns:xmp="http://ns.adobe.com/xap/1.0/"
            xmlns:xmpGImg="http://ns.adobe.com/xap/1.0/g/img/"
            xmlns:pdf="http://ns.adobe.com/pdf/1.3/"
            xmlns:dc="http://purl.org/dc/elements/1.1/"
            xmlns:xmpTPg="http://ns.adobe.com/xap/1.0/t/pg/"
            xmlns:stDim="http://ns.adobe.com/xap/1.0/sType/Dimensions#"
            xmlns:xmpG="http://ns.adobe.com/xap/1.0/g/">
         <xmpMM:RenditionClass>proof:pdf</xmpMM:RenditionClass>
         <xmpMM:DocumentID>xmp.did:6c832d0f-d9ce-425c-9b42-37f373577a7b</xmpMM:DocumentID>
         <xmpMM:InstanceID>xmp.iid:6c832d0f-d9ce-425c-9b42-37f373577a7b</xmpMM:InstanceID>
         <xmpMM:OriginalDocumentID>uuid:9c0c9633-5621-4c4e-a712-1bc7b0864ee6</xmpMM:OriginalDocumentID>
         <xmpMM:DerivedFrom rdf:parseType="Resource">
            <stRef:instanceID>uuid:f54770fd-818c-304e-a9bb-741afdd38f6b</stRef:instanceID>
            <stRef:documentID>uuid:9c0c9633-5621-4c4e-a712-1bc7b0864ee6</stRef:documentID>
            <stRef:originalDocumentID>uuid:9c0c9633-5621-4c4e-a712-1bc7b0864ee6</stRef:originalDocumentID>
            <stRef:renditionClass>proof:pdf</stRef:renditionClass>
         </xmpMM:DerivedFrom>
         <xmpMM:History>
            <rdf:Seq>
               <rdf:li rdf:parseType="Resource">
                  <stEvt:action>saved</stEvt:action>
                  <stEvt:instanceID>xmp.iid:6c832d0f-d9ce-425c-9b42-37f373577a7b</stEvt:instanceID>
                  <stEvt:when>2015-04-12T02:50:32-04:00</stEvt:when>
                  <stEvt:softwareAgent>Adobe Illustrator CC 2014 (Macintosh)</stEvt:softwareAgent>
                  <stEvt:changed>/</stEvt:changed>
               </rdf:li>
            </rdf:Seq>
         </xmpMM:History>
         <xmp:CreateDate>2015-04-12T02:50:32-04:00</xmp:CreateDate>
         <xmp:CreatorTool>Adobe Illustrator CC 2014 (Macintosh)</xmp:CreatorTool>
         <xmp:ModifyDate>2015-04-12T02:50:32-04:00</xmp:ModifyDate>
         <xmp:MetadataDate>2015-04-12T02:50:32-04:00</xmp:MetadataDate>
         <xmp:Thumbnails>
            <rdf:Alt>
               <rdf:li rdf:parseType="Resource">
                  <xmpGImg:width>256</xmpGImg:width>
                  <xmpGImg:height>128</xmpGImg:height>
                  <xmpGImg:format>JPEG</xmpGImg:format>
                  <xmpGImg:image>/9j/4AAQSkZJRgABAgEASABIAAD/7QAsUGhvdG9zaG9wIDMuMAA4QklNA+0AAAAAABAASAAAAAEA&#xA;AQBIAAAAAQAB/+4ADkFkb2JlAGTAAAAAAf/bAIQABgQEBAUEBgUFBgkGBQYJCwgGBggLDAoKCwoK&#xA;DBAMDAwMDAwQDA4PEA8ODBMTFBQTExwbGxscHx8fHx8fHx8fHwEHBwcNDA0YEBAYGhURFRofHx8f&#xA;Hx8fHx8fHx8fHx8fHx8fHx8fHx8fHx8fHx8fHx8fHx8fHx8fHx8fHx8fHx8f/8AAEQgAgAEAAwER&#xA;AAIRAQMRAf/EAaIAAAAHAQEBAQEAAAAAAAAAAAQFAwIGAQAHCAkKCwEAAgIDAQEBAQEAAAAAAAAA&#xA;AQACAwQFBgcICQoLEAACAQMDAgQCBgcDBAIGAnMBAgMRBAAFIRIxQVEGE2EicYEUMpGhBxWxQiPB&#xA;UtHhMxZi8CRygvElQzRTkqKyY3PCNUQnk6OzNhdUZHTD0uIIJoMJChgZhJRFRqS0VtNVKBry4/PE&#xA;1OT0ZXWFlaW1xdXl9WZ2hpamtsbW5vY3R1dnd4eXp7fH1+f3OEhYaHiImKi4yNjo+Ck5SVlpeYmZ&#xA;qbnJ2en5KjpKWmp6ipqqusra6voRAAICAQIDBQUEBQYECAMDbQEAAhEDBCESMUEFURNhIgZxgZEy&#xA;obHwFMHR4SNCFVJicvEzJDRDghaSUyWiY7LCB3PSNeJEgxdUkwgJChgZJjZFGidkdFU38qOzwygp&#xA;0+PzhJSktMTU5PRldYWVpbXF1eX1RlZmdoaWprbG1ub2R1dnd4eXp7fH1+f3OEhYaHiImKi4yNjo&#xA;+DlJWWl5iZmpucnZ6fkqOkpaanqKmqq6ytrq+v/aAAwDAQACEQMRAD8A9U4q7FXYq7FXYq7FXYq7&#xA;FXYq7FXYq7FXYq0zKqlmICjck9MVQM2pMdrZQw6eo1afQOuGmJkhJYJZozJcyGQU+FDsPnxG22Fi&#xA;QidIui1ukT7mMca+FNhXAUxKY4GbsVdirsVdirsVdirsVdirsVdirsVdirsVdirsVdirsVdirsVd&#xA;irsVdirsVdirsVdiqjcXUcA33c/ZQdT/AEGKCUBIZZ2DSmoB2QdAevY+HfCx5q0UHQnuCBTfr9oj&#xA;2/z+akBuehBpsB09uO39TipQlnVCVHWtBhLEJrG4FF7AdfDIs1TFLsVdirsVdirsVdirsVdirsVd&#xA;irsVdirsVdirsVdirsVdirsVdirsVdirsVdiqFubzixiiIMn7TH7K4aYkoaNGLE1qx3Y1Bag6k1H&#xA;0fqxQrRx1HI9COI7EV3O3hilWO1SNqbLTp8x9PXFKjINiAPs7U9gp/V/TFCGi+Fj133ruevjigI2&#xA;MkKW/aPQH7gMWSsrcaLuRTqe1PHAq/FLsVdirsVdirsVdirsVdirsVdirsVdirsVdirsVdirsVdi&#xA;rsVdirsVdiqDubokmONuIH23G5+S07++FiSpJGq7EFQN32qBTfem2KFZIyy1b41fr4+JxSqkipau&#xA;yCgb38DgS1Q/CvetSO1f6EnFVJt1H+UDQH/KIpX+PywoUEFJB1IIHz+ID9eKERH8VNvhHbpU+H+f&#xA;fFKqGIDP17U8R2OBK8HjRa1BGxxSvxV2KuxV2KuxV2KuxV2KuxV2KuxV2KuxV2KuxV2KuxV2KuxV&#xA;2KuxVDXU9P3SmhP2yOoHgPfCEEqMaFQdgqpUseu43IH4DFCskclApAIO7dq71bx2OKVQFSzP9kjb&#xA;6B1+eBWqGgBHxMauvj3P9MVaf9ojei0Xx37fMbYVWOPiPT9ke32v8/xxQhyKNt1rQV8Om/zpihXH&#xA;I9uI8fAddvl1xSqj7QAH2d6frX+OBLYYDk/VOg/j9+KrlJWisa1HXFK/FXYq7FXYq7FXYq7FXYq7&#xA;FXYq7FXYq7FXYq7FXYq7FXYq7FVO4mEUZb9o/ZH+fhiglBqCBVzT9qRtqkjeg+nChWSNTxU8ivU0&#xA;5UNNyRT3xVUBWrMrHl0UV3+4++BLbCiqjbgn7Q9tzirfV9zsB8Le5xVZ1A7FmqfYjcH6aYVWtuW2&#xA;/aUUPzG33n8cVUCKse9aj72J/txQqpzKqQwPatPp8fliqouwovU/ZJ8abE/R1xSuAHwp+y25r4jr&#xA;95wK2pALcugFAfEDrirakqAG7/hilfirsVdirsVdirsVdirsVdirsVdirsVdirsVdirsVdiriQBU&#xA;9BiqALmeUyE0iTcE+A8PcnCxVIkq26kg0JPjTcdad8VV+Tjk/EeAFfD6PHAlqo+FGU0G5qK1+dK/&#xA;PFWwKsShqAKU7b9d8VaBojuBWtSV/VirVKFF+0App7jYYqsO6k9asPp3oPvG2FVJgSRTevKp+mn/&#xA;ABtXFC+MAggMV7gCnTpXevjiqoKDcnc9/cmv/EsUrugJI3fangw7YFbpVRGftA7n5d/pxVtTyZuX&#xA;7IoR+JxVysQBy6N09vbFK/FXYq7FXYq7FXYq7FXYq7FXYq7FXYq7FXYq7FXYqhLqXm3or9kCsp9v&#xA;D6cLEuij5ADjUGh8BQb4qr/HRnr16UHh061wJdwI4pzPienb6PHFW151ZtjvTw6ffiq0EcSw+FzU&#xA;j38PnirmGyp0aoAPYgb/AMMVd+2x6bCvsd98VWdVG32mrT5nlT6cKqbbAN13O/08v4YoctK7jktd&#xA;/wAVH4b4qqKYx3qehPVt9j79d8UrwCTVtq/gw74FdyNDKRuNiPbFW2X4VA3Y9fcdTirYIZif2QKf&#xA;f1xS5WIA5dD09vbFV+KuxV2KuxV2KuxV2KuxV2KuxV2KuxV2KuxVSuJvTSg+232R/HFBKHghrsw5&#xA;FjyYfLfc/PCgBEHnxLluPLZaeH0/fgS0fRqqhthv9o9vpxV3KKrNy2UUHxH5nviq4qyx0Vt6UFd9&#xA;z38cVc5FFVhQVG46bb/wxVzD4lB+JdzXuO38cVctase9fhbsdhX9WKqY+zH+rv8AZO3z8MKrHFar&#xA;X9o79viBP8f14oarX4jtXevgCN/1HFVXk1fiU7/apTv8J8PbFLYDNs2wb/iQwKuB5MG6L0P+t0/D&#xA;FXKQrEn7P7P8cVaIKgf5X2x+v+mKr9mbxAH4nFLSsQByPwn7J8K9Bihfil2KuxV2KuxV2KuxV2Ku&#xA;xV2KuxV2KrZJFRSzdBiqERWlcvINjvx706ivhXCxVzXjVm4c9gBtQfP5YEtj0+YotePQ0J3+eKth&#xA;z8TlTTp26D6cVaqwVQVIqdzsfc9Dirm9Iso+ySa/y1p93fFV3xiT+YAfI7/7WKtL9tinQUBXpv1/&#xA;jiq3/dLEfZPIkdxXfFW36r337dxQ7j3xVTb9r/WXp70/XhVZsAD2FR9Cnp92KFRQaca0psQd9j8J&#xA;p9O+KV1HPU7neg23XY4FXGhNF+w4oT9H9MVcBy+D+SlT+rFW0avJm247fd3xVaQVWh6OfiHh44qv&#xA;NGb/ACV/Wf7MUtKxAHL7J+z7eAxQvxS7FXYq7FXYq7FXYq7FXYq7FXEgAk7AdcVQjEzPyYH013Cj&#xA;q3hhYqvEgBWIUNu1P6nAltSnIsATTYGn37nFWwzhCeNGO+57noNq4q4hwqpQb0HXw38MVbq/qfZG&#xA;w7HxPyHhirXIFzyBAApuK9evTFXIoJZkNBWgpuNv7cVaBHxM/wAJqfiHtt/DFWiCIwG2YgLXtvti&#xA;rb9V7b1IHbY7jFVj/ZkO3j7dBvhVo7MfEMDT57f5/wBuKGlA6EVHT3/lPGv0YquBTqSQftUJI3Gz&#xA;ChxSvFCCibA7q3b6PHfAre5A4/aH2v4/TirmAJHDsKn3HYYq2GBq/wBCjFWqFaL1B3b2xVdsxJP2&#xA;R0/jilpWIHxfZP2fbwriq/FXYq7FXYq7FXYq7FXYq7FUNI3qmg/u6/CP5z/zThQvApsSEUdTtUt7&#xA;1wK5SoBdVLE/ZJ/Dc4quIfiEoN+prXbvtTFW2EhZRUeJ2Pb6cVdSQv1Gw8PH6fbFXIJPiNRuT28N&#xA;vH2xVyF9yVrUnofDbvTwxVpOBAP2WbfwO+/04q18Qg3+IMv01OKttTj8PxAkfD9NcVabcrQ1oSa9&#xA;xtT+OKtUrzHie3uBuMVWULAf5a/5/rwoaqDuRs1DTvvt1xVerP1FGI3NdjUbHpild8fQUHHdab1B&#xA;7dsCt1Cn4d+f6/E4q4jjsOh3Y+Hvirj/ADDovQeOKtgk7dHP2vbFWqUPFfsD7Q/piq4EN8R+z2/r&#xA;iloEj7Wyn7JPb54qvxV2KuxV2KuxV2KuxVQkb1T6a14ftEdT7YUOrQcq0J2VRuTiq6gACqpJbqx2&#xA;qO9a74FXH1GcDYcdz3/pirgrFiSx22FKU9/HFXKpJYliR07Dp8vfFWlVQhc13qep6du/hirYUpHu&#xA;x2G/T+mKtESLFSoJAoNqb9OuKukNI2UrtSgpuPbFXMFp8DU3G3UdfDFXP9pCw4mv2h8jirTfbUn+&#xA;U0cfR1xVobOw8aH2JO23h0xVaOi+xKn9X44VW7d+gJB+Tf5jFDqnYnr41puPf3Hjiq8HYULbbqKd&#xA;R4bDFK4EAGgojdWbx/z8cCtg0FDUL/N3OKu3UggV/lTw98VdQH7J+Lu3h/n4Yq4EH4Tsvj2OKuP8&#xA;37PXj44quqGHJunYYpcCV+1svb2+eKrsVdirsVdirsVUnYv8Kjbp4A/2YoaAT7HKo6tx/s8cVXLU&#xA;t8KUA6VoBXv0rirl5kl6gDoO+w+7FXAMELljU/EQKf0xV3DilWJJAqd6b9e1MVcYwsdATXpWp6n6&#xA;cVc0ahQoruQKVPTv38MVbdNqAkVIHWu3frXFXOrbAN1I6jw37U8MVc5egFAakdNum/TFWnKkpyBF&#xA;D1PbY9xirtyy8WqNzvv026/TirR2kB+waHfqvbFWujsegIG43U9eoxVaR8LAdQfh71/a2Pf5YVaN&#xA;CeuzClfcdP8APrirQ39uXh2Yf5/2YocPb4d96dm+gj9WKrh40r/MCrE/RXAldWn2uh6M25+4Yq3U&#xA;r48T3O7fRirqAio2r+yNyfnirdQx4uPi7J/HFXVKnf4iP+F+f9cVcRQ8hvJ4DpTFW6g/b+1/J1xV&#xA;sEr9rZe3t88UrsVdirsVU3kVgaN8I6kCtfuxQtpQFmQsx6ciKfLviq794F7Bifc7/hirirBQAxBO&#xA;wpT+NcVcyCgWpNdutNh8qYq2yAlVqetTueg+nxxVzRoSo4jc1O3hirmjjLKOI8Tt4f7eKuMcZdRx&#xA;G1T0HyxVxjTmoAp1NRt7dvnirig5ruehPU9enf54q5lbkoDGoqdwKeHanjirj6nNeh2Pt4fPFVrU&#xA;MgJQ1oasPo8N8VcWAcUemx+2Pl40xVwB9QmnUDdT88VWinNhXc0P8pNduh2PTFVhqEpTddgO+3b7&#xA;vnhQ0aVNDs24Pv8A5/7WKuJBoSOuxX+gIP6sVb2FKgV/ZYgb/wDEcVbU7nhWv7S7b/8AAg4pbDcf&#xA;s7eKnY/e2+KtjepX4T+1/aT1xVsEH4SPoXv/ALLbArgxAp1X/I3+84q4bfZIA6lF3PzxVcNxVRwp&#xA;1Y9fpxVoMpNDV27Hsfl2xVeCy/a2XsetPnildiq08m+zsvcnvirQDsa1HEdKD8euKHBSzV5mg6dP&#xA;6Yq4JyJYkkDZd6fPpTFXBAWJ3oNhufp74q4ICxO+2w3P098VcqKWJIqOgrv0+eKuEcZcniNtun04&#xA;q4Rxl2PEbUHT6f44q5UXkx32oOp+fj74q4IC53OwA6n+uKuCLzbrsAOp/riruH7zZiKD59fnXwxV&#xA;3E+ofjOwFOnf6PbFXAP6how6DqPn4UxVx9T1BuDsdqU7j3OKrQh9RvgUGg3Boep70xVxDB6Ub4hv&#xA;uCNv9b54qt4uGI40B3p09j3P6sVWcT9mh23WgNR+ofhhQs+ME/CwPdQCS304qt50qONB3QruPvFc&#xA;Vd60XTnWn+SoYYrbYnTs6nwpVWH0LituEoJ33I/aFOQ+/f8AHFbXeqrbE8x4MN/uPLFbXCSvQ8v8&#xA;ljUn6CV/Viq4Ma0WqnuhBUH6AD+vFLexIJHF+xKs34nFV1WOzhjXp0APy6HArqU2ZK/5TEf24qvU&#xA;suzU49jWv34pf//Z</xmpGImg:image>
               </rdf:li>
            </rdf:Alt>
         </xmp:Thumbnails>
         <pdf:Producer>Adobe PDF library 11.00</pdf:Producer>
         <dc:format>image/svg+xml</dc:format>
         <xmpTPg:MaxPageSize rdf:parseType="Resource">
            <stDim:w>768.857942</stDim:w>
            <stDim:h>385.911425</stDim:h>
            <stDim:unit>Pixels</stDim:unit>
         </xmpTPg:MaxPageSize>
         <xmpTPg:NPages>1</xmpTPg:NPages>
         <xmpTPg:HasVisibleTransparency>False</xmpTPg:HasVisibleTransparency>
         <xmpTPg:HasVisibleOverprint>False</xmpTPg:HasVisibleOverprint>
         <xmpTPg:PlateNames>
            <rdf:Seq>
               <rdf:li>Cyan</rdf:li>
               <rdf:li>Magenta</rdf:li>
               <rdf:li>Yellow</rdf:li>
            </rdf:Seq>
         </xmpTPg:PlateNames>
         <xmpTPg:SwatchGroups>
            <rdf:Seq>
               <rdf:li rdf:parseType="Resource">
                  <xmpG:groupName>Default Swatch Group</xmpG:groupName>
                  <xmpG:groupType>0</xmpG:groupType>
               </rdf:li>
            </rdf:Seq>
         </xmpTPg:SwatchGroups>
      </rdf:Description>
   </rdf:RDF>
</x:xmpmeta>
                                                                                                    
                                                                                                    
                                                                                                    
                                                                                                    
                                                                                                    
                                                                                                    
                                                                                                    
                                                                                                    
                                                                                                    
                                                                                                    
                                                                                                    
                                                                                                    
                                                                                                    
                                                                                                    
                                                                                                    
                                                                                                    
                                                                                                    
                                                                                                    
                                                                                                    
                                                                                                    
                           
<?xpacket end="w"?>
	</metadata>
<g>
	<g>
		<g>
			<path fill="none" stroke="#C6D6D8" stroke-miterlimit="10" d="M383.4,1.4c-128.3,127.4-255.9,255.4-383,384"/>
			<path fill="none" stroke="#C6D6D8" stroke-miterlimit="10" d="M383.5,1c-31.3,21.3-61.7,43.8-91.3,67.3
				c-25.2,19.9-53.9,40-75.2,64.1c-30.1,34-53.9,77.3-78.8,115.2c-30,45.5-59.1,91.5-87.7,137.9"/>
			<path fill="none" stroke="#C6D6D8" stroke-miterlimit="10" d="M383.6,0.7c-27.3,12-53.3,27-77.7,44.1
				c-21.7,15.1-47.6,32-63.9,52.8c-26.8,34.4-44.6,81.9-63.9,120.9c-27.3,55-52.9,110.7-77.7,166.9"/>
			<path fill="none" stroke="#C6D6D8" stroke-miterlimit="10" d="M383.7,0.6C340.4,12.7,290.8,46.3,266,84.3
				c-24.7,37.9-39.4,87.9-55.8,129.9c-22.2,56.5-42.5,113.7-61.9,171.2"/>
			<path fill="none" stroke="#C6D6D8" stroke-miterlimit="10" d="M383.9,0.5c-40.7,9.2-75,51.4-92.8,86.9
				c-18.3,36.5-29.4,78.5-41.7,117.3c-18.9,59.7-35.4,120.1-51,180.7"/>
			<path fill="none" stroke="#C6D6D8" stroke-miterlimit="10" d="M384,0.5c-37.4,12.3-56.2,71-67.8,103.6
				c-32.1,90.6-50,187.1-67.8,281.3"/>
			<path fill="none" stroke="#C6D6D8" stroke-miterlimit="10" d="M384.1,0.8c-22.5,39.7-33,87.2-42.9,131.3
				c-18.7,83.5-31,168.6-42.9,253.3"/>
			<path fill="none" stroke="#C6D6D8" stroke-miterlimit="10" d="M384.3,1.1c-17.5,127.5-27.9,256-37.9,384.3"/>
			<path fill="none" stroke="#C6D6D8" stroke-miterlimit="10" d="M384.4,1.5c3.7,128,7.6,256,12,383.9"/>
			<path fill="none" stroke="#C6D6D8" stroke-miterlimit="10" d="M384.5,1.9c14.3,127.5,25.8,259.8,61.8,383.6"/>
			<path fill="none" stroke="#C6D6D8" stroke-miterlimit="10" d="M384.6,2.2c14.9,89.8,30.3,180.5,55.9,268
				c10.8,37.1,23.5,90.2,55.9,115.2"/>
			<path fill="none" stroke="#C6D6D8" stroke-miterlimit="10" d="M384.8,2.3c21.6,96.2,41.3,199.4,80.8,290.4
				c14.6,33.7,41.4,83.5,80.8,92.7"/>
			<path fill="none" stroke="#C6D6D8" stroke-miterlimit="10" d="M384.9,2.3c17.8,60.6,36.5,120.9,57.6,180.4
				c13.8,39.1,26,84.2,47.1,120.1c21.5,36.5,62.9,72.8,104.7,82.6"/>
			<path fill="none" stroke="#C6D6D8" stroke-miterlimit="10" d="M385,2.2c22.5,58.4,45.9,116.4,71.2,173.6
				c17.4,39.4,33.2,87.2,58.4,122.2c28.1,39.2,84.8,72.2,129.7,87.4"/>
			<path fill="none" stroke="#C6D6D8" stroke-miterlimit="10" d="M385.2,2c27.4,52.6,55.5,104.7,84.8,156.2
				c21.6,37.8,41.7,82.4,69.8,115.8c18.5,22.1,46.5,40.1,69.8,57c27.2,19.8,55.4,38.2,84.8,54.4"/>
			<path fill="none" stroke="#C6D6D8" stroke-miterlimit="10" d="M385.3,1.6c33.1,43,66.4,85.8,100.3,128.2
				c25.8,32.3,50.6,67.7,79.2,97.5c54.8,56.9,119,107.5,179.5,158.1"/>
			<path fill="none" stroke="#C6D6D8" stroke-miterlimit="10" d="M383.4,1.2C323.1,51.7,257.6,102,203.9,159.6
				c-65,69.7-121.6,150.4-179.5,225.9"/>
			<path fill="none" stroke="#C6D6D8" stroke-miterlimit="10" d="M383.6,0.9c-28.8,16-56.5,33.9-83.1,53.3
				C277.3,71,247.2,89.5,229,111.8c-28.5,35-49.2,81.2-71.5,120.4c-28.7,50.5-56.3,101.7-83.1,153.2"/>
			<path fill="none" stroke="#C6D6D8" stroke-miterlimit="10" d="M383.7,0.7c-26,9-50.3,22.5-72.7,38.3
				c-18.7,13.2-43.7,29.7-57,48.6c-12.9,18.3-21.3,43-30.8,63.3c-10,21.3-19.7,42.7-29.2,64.2c-24.7,56.2-47.6,113.1-69.7,170.4"/>
			<path fill="none" stroke="#C6D6D8" stroke-miterlimit="10" d="M383.8,0.5c-40.9,9.4-84,46.4-104.7,82.4
				c-21.7,37.6-34.1,84.7-48.4,125.5c-20.5,58.4-38.9,117.6-56.3,177"/>
			<path fill="none" stroke="#C6D6D8" stroke-miterlimit="10" d="M383.9,0.5c-39.1,9.8-66.1,59.1-80.8,93
				c-39.6,91.3-59.2,195.4-80.8,291.9"/>
			<path fill="none" stroke="#C6D6D8" stroke-miterlimit="10" d="M384.1,0.6c-32.4,25-45.1,78.9-55.9,116
				c-25.5,87.8-41,178.7-55.9,268.8"/>
			<path fill="none" stroke="#C6D6D8" stroke-miterlimit="10" d="M384.2,1c-36.3,123.9-47.5,256.8-61.8,384.4"/>
			<path fill="none" stroke="#C6D6D8" stroke-miterlimit="10" d="M384.3,1.3c-4.4,128-8.3,256-12,384.1"/>
			<path fill="none" stroke="#C6D6D8" stroke-miterlimit="10" d="M384.5,1.7c10,128.1,20.5,256.4,37.9,383.7"/>
			<path fill="none" stroke="#C6D6D8" stroke-miterlimit="10" d="M384.6,2c11.9,84.5,24.2,169.3,42.9,252.7
				c9.9,43.9,20.4,91.2,42.9,130.7"/>
			<path fill="none" stroke="#C6D6D8" stroke-miterlimit="10" d="M384.7,2.3c17.8,93.9,35.6,190.1,67.8,280.4
				c11.7,32.8,30.3,90.4,67.8,102.7"/>
			<path fill="none" stroke="#C6D6D8" stroke-miterlimit="10" d="M384.8,2.3c15.9,61.8,32.8,123.3,52.2,184.1
				c12,37.3,22.6,78.8,40.5,113.8c17.8,34.9,52.8,76.4,92.8,85.2"/>
			<path fill="none" stroke="#C6D6D8" stroke-miterlimit="10" d="M385,2.3c20.2,59.8,41.4,119.3,64.6,178
				c15.6,39.3,29.4,87.1,53,122.3c25.3,37.7,74.3,70.7,117.7,82.9"/>
			<path fill="none" stroke="#C6D6D8" stroke-miterlimit="10" d="M385.1,2.1c25.3,57.2,51.5,114,79.4,170
				c10.3,20.8,20.9,41.4,31.7,62c9.4,17.9,17.8,40.5,30.5,56.2c16.5,20.4,44.1,37.5,65.5,52.3c24,16.5,49.4,31.3,76.1,42.8"/>
			<path fill="none" stroke="#C6D6D8" stroke-miterlimit="10" d="M385.2,1.8c29.2,47.3,58.9,94.2,89.5,140.6
				c24.4,36.9,47.5,79.9,77,112.9c21.7,24.1,51.6,44.3,77,64.4c29.1,22.9,58.9,45,89.5,65.7"/>
			<path fill="none" stroke="#C6D6D8" stroke-miterlimit="10" d="M385.4,1.4c127.1,128.6,254.7,256.6,383,384"/>
		</g>
		<g>
			<path fill="none" stroke="#C6D6D8" stroke-miterlimit="10" d="M384.9,0.9c-0.4,1.4-0.6-1.5-1,0"/>
			<path fill="none" stroke="#C6D6D8" stroke-miterlimit="10" d="M409.7,26.4c-11.3,28.2-16.3,22.6-25.4-0.6
				c-10.4-26.5-15.5-24.9-25.4,0.2"/>
			<path fill="none" stroke="#C6D6D8" stroke-miterlimit="10" d="M434.6,51.8c-3,8.6-11.3,43.6-28.5,39.5
				c-11.4-2.7-17.9-30.9-21.9-40.7c-3.9-9.5-10.7-40.6-24.7-40.5c-15.6,0-22.2,31-25.6,40.9"/>
			<path fill="none" stroke="#C6D6D8" stroke-miterlimit="10" d="M458.5,76.2c-5.3,15.6-15.6,60.5-41.4,55.2
				c-16.5-3.4-27.2-43.7-32.9-56.9c-6.2-14.3-15.7-56.4-35.8-56.7c-23.8-0.4-33.4,41.9-38.5,57.1"/>
			<path fill="none" stroke="#C6D6D8" stroke-miterlimit="10" d="M483.3,101.6c-6.8,20.2-21.6,78.4-54.8,69.1
				c-23-6.4-35.3-51.9-44.4-71.4c-8.7-18.7-22.4-68.4-47.4-71.2c-32-3.6-44.9,50.7-51.9,71.8"/>
			<path fill="none" stroke="#C6D6D8" stroke-miterlimit="10" d="M508.2,127c-8.7,25.5-28,96.4-69.7,80.2
				c-27.3-10.6-42.2-58.7-54.4-82.9c-12.5-24.6-27.7-75.3-57.4-83.1c-40.5-10.6-58.1,58-66.7,83.7"/>
			<path fill="none" stroke="#C6D6D8" stroke-miterlimit="10" d="M533.1,152.4c-10.3,29.7-33.6,110.3-81.7,90.2
				C418.8,228.9,400,178,384,149.2C368,120.6,349.4,70,316.5,57c-48.5-19.2-71.4,62.8-81.7,93"/>
			<path fill="none" stroke="#C6D6D8" stroke-miterlimit="10" d="M557,176.7c-12.5,35.4-40.9,125.7-96.1,96.1
				c-35.3-18.9-56.8-66.8-76.9-99.5c-20-32.5-41.4-80.3-76.9-98.6c-55.7-28.7-83.9,64.2-96.1,99.3"/>
			<path fill="none" stroke="#C6D6D8" stroke-miterlimit="10" d="M582.9,198.9C567.6,239.7,535.6,332,474.8,302
				c-39.5-19.5-65.9-67.7-89.9-102.4c-24.3-35.1-50.4-83-89.9-103.3C234.6,65.4,202.5,155,186.9,196"/>
			<path fill="none" stroke="#C6D6D8" stroke-miterlimit="10" d="M607.9,223.9c-22.5,47.6-59.5,118.4-123.6,96.3
				c-42.8-14.8-72-61.8-99.4-95.5c-27.4-33.8-56.9-81-99.4-96.5c-63.5-23.3-100.9,46-123.6,93.2"/>
			<path fill="none" stroke="#C6D6D8" stroke-miterlimit="10" d="M632.9,248.9c-29.8,49.3-71.2,101.2-135.3,88.2
				c-46.7-9.4-81-54.9-112.5-87.6c-32.7-33.8-67.9-81.2-116.8-89.6c-62-10.6-102,39.2-131.1,86.6"/>
			<path fill="none" stroke="#C6D6D8" stroke-miterlimit="10" d="M657.9,273.9c-38,48-84.9,84.7-148.9,77.3
				c-49.3-5.7-87.3-46-123.8-76.7c-38.1-32-76.8-73.5-128.5-78.3c-61.9-5.8-107.3,29.8-144.3,75.9"/>
			<path fill="none" stroke="#C6D6D8" stroke-miterlimit="10" d="M681.9,297.9c-46.6,43.6-99.9,68.9-164.5,64.5
				c-50.2-3.4-91.3-37.3-132.3-64c-40.8-26.6-82.4-61.2-132.3-64.9c-64.3-4.9-117.7,19.8-164.5,62.9"/>
			<path fill="none" stroke="#C6D6D8" stroke-miterlimit="10" d="M706.9,322.9c-53.7,34.1-112,50.5-175.5,49.2
				c-53.2-1.1-98.6-26.7-146.1-48.8c-47.3-22-93.1-48.2-146.1-49.5c-63.4-1.6-121.6,14.3-175.5,48"/>
			<path fill="none" stroke="#C6D6D8" stroke-miterlimit="10" d="M731.9,347.9c-61.1,22.2-124.2,31.4-189,31.2
				c-54.6-0.1-105.3-16.5-157.5-31c-54.2-15-106.4-31.7-163.1-31.5C159.3,316.8,98,326,38.7,347.2"/>
			<path fill="none" stroke="#C6D6D8" stroke-miterlimit="10" d="M756.9,372.9c-124.6,14.5-247,11.5-371.5,0.1
				c-124.5-11.5-246.9-14.6-371.5-0.3"/>
			<path fill="none" stroke="#C6D6D8" stroke-miterlimit="10" d="M396.8,13.2c-0.4,20.3-9.7,5.8-12.5-0.3
				c-2.8-6.3-12.2-20.2-12.5,0.1"/>
			<path fill="none" stroke="#C6D6D8" stroke-miterlimit="10" d="M421.7,38.6c-2,5.6-8.4,34.1-21.5,30.1c-8.7-2.6-12.6-22.7-15.9-31
				c-3.5-8.8-7.2-31.3-18.7-30.9c-11.3,0.3-16.8,26-18.7,31.1"/>
			<path fill="none" stroke="#C6D6D8" stroke-miterlimit="10" d="M446.5,64c-4.2,12.2-13.3,51.9-34.9,47.6
				c-14.7-2.9-22.2-36.7-27.4-49.1c-5.2-12.3-13.3-48.6-30.3-48.9c-19.6-0.3-28,37.1-32.1,49.3"/>
			<path fill="none" stroke="#C6D6D8" stroke-miterlimit="10" d="M471.4,89.4c-6.3,18.5-18.5,70-48.4,62.7
				c-20.3-4.9-31.1-47.5-38.9-64.7c-7.7-17-19.2-63.1-41.8-64.5c-28.4-1.7-39.2,46.2-45.4,65"/>
			<path fill="none" stroke="#C6D6D8" stroke-miterlimit="10" d="M495.3,113.8c-7.9,23.3-25,88.4-62.8,74.5
				c-24.8-9.2-37.6-54.7-48.4-77c-10.5-21.5-25-71.4-51.4-77.1c-36.7-7.9-51.9,54-59.8,77.7"/>
			<path fill="none" stroke="#C6D6D8" stroke-miterlimit="10" d="M520.1,139.2c-9.3,27.1-29.5,100.6-73.2,86.2
				c-31.4-10.3-48.8-62.5-63-89.2c-14.1-26.6-31.3-78.3-63-88.1c-44-13.5-63.8,60.9-73.2,88.7"/>
			<path fill="none" stroke="#C6D6D8" stroke-miterlimit="10" d="M545,164.5c-11.2,32.1-36.7,117.4-88.1,93.8
				c-34.8-15.9-54.8-66-73-97.1c-18-30.7-38.2-80.9-73-96.1c-51.8-22.7-77.1,64.7-88.1,96.8"/>
			<path fill="none" stroke="#C6D6D8" stroke-miterlimit="10" d="M569.9,189.8c-13.6,37.8-43.5,131.3-101.6,99.5
				c-37.5-20.5-62.1-68.7-84.5-103.2c-22.3-34.3-48.2-86.1-87.6-104c-57.1-25.8-85.8,68.9-98.4,104.7"/>
			<path fill="none" stroke="#C6D6D8" stroke-miterlimit="10" d="M595.9,211.9c-19,45.1-53.8,126.2-116.9,99.4
				c-41-17.4-68.3-64.4-94-98.7c-25.8-34.5-53.3-81.4-94-99.7c-62.5-28.1-97.7,51.5-116.9,96.2"/>
			<path fill="none" stroke="#C6D6D8" stroke-miterlimit="10" d="M619.9,235.9c-25.7,48.4-64.4,109.6-128.2,93
				c-45.1-11.8-77.4-58.9-106.6-92.3c-30.1-34.3-63.5-83.8-110.6-94.5c-61.7-13.9-99.1,44.7-124.2,91.3"/>
			<path fill="none" stroke="#C6D6D8" stroke-miterlimit="10" d="M644.9,260.9c-33.7,49.2-77.7,93.3-141.9,83.3
				c-48-7.5-84.1-50.8-118-82.7c-35.2-33.1-72.1-77.9-122.4-84.5c-62-8.1-104.5,34.5-137.4,81.8"/>
			<path fill="none" stroke="#C6D6D8" stroke-miterlimit="10" d="M669.9,285.9c-42,45.9-91.6,76.6-155.5,71.3
				c-50.4-4.2-90.1-41.5-129.3-70.7c-40.9-30.5-81.3-68.7-134.1-72.1c-61.8-4-109.7,25.8-150.6,69.9"/>
			<path fill="none" stroke="#C6D6D8" stroke-miterlimit="10" d="M694.9,310.9c-50.9,39.4-107.2,59.7-171.7,56.8
				c-51.1-2.3-94.3-32.1-138-56.4c-43.5-24.1-87.3-54.6-138-57.2c-64.4-3.3-120.6,16.5-171.7,55.4"/>
			<path fill="none" stroke="#C6D6D8" stroke-miterlimit="10" d="M718.9,334.9c-56.5,28.3-116.3,41.2-179.3,40.9
				c-54.9-0.3-103.5-21.6-154.3-40.6c-50.7-19-99.5-40.7-154.3-41.2c-62.9-0.5-122.8,12-179.3,40"/>
			<path fill="none" stroke="#C6D6D8" stroke-miterlimit="10" d="M743.9,359.9c-64.2,15.5-129.5,21.7-195.5,21.8
				c-55.4,0.1-108.8-11.4-163.1-21.7c-54.2-10.2-107.7-22-163.1-22c-66,0-131.3,6-195.5,21.4"/>
			<path fill="none" stroke="#C6D6D8" stroke-miterlimit="10" d="M768.9,384.9c-255.7,1.2-511.3-1.2-767,0"/>
		</g>
	</g>
</g>
</svg>
