<?xml version="1.0" encoding="utf-8"?>
<!-- Generator: Adobe Illustrator 18.1.1, SVG Export Plug-In . SVG Version: 6.00 Build 0)  -->
<svg version="1.1" id="Layer_1" xmlns="http://www.w3.org/2000/svg" xmlns:xlink="http://www.w3.org/1999/xlink" x="0px" y="0px"
	 viewBox="0 0 768.9 268.5" enable-background="new 0 0 768.9 268.5" xml:space="preserve">
<metadata><?xpacket begin="﻿" id="W5M0MpCehiHzreSzNTczkc9d"?>
<x:xmpmeta xmlns:x="adobe:ns:meta/" x:xmptk="Adobe XMP Core 5.6-c014 79.156821, 2014/08/29-03:07:50        ">
   <rdf:RDF xmlns:rdf="http://www.w3.org/1999/02/22-rdf-syntax-ns#">
      <rdf:Description rdf:about=""
            xmlns:xmpMM="http://ns.adobe.com/xap/1.0/mm/"
            xmlns:stRef="http://ns.adobe.com/xap/1.0/sType/ResourceRef#"
            xmlns:stEvt="http://ns.adobe.com/xap/1.0/sType/ResourceEvent#"
            xmlns:xmp="http://ns.adobe.com/xap/1.0/"
            xmlns:xmpGImg="http://ns.adobe.com/xap/1.0/g/img/"
            xmlns:pdf="http://ns.adobe.com/pdf/1.3/"
            xmlns:dc="http://purl.org/dc/elements/1.1/"
            xmlns:xmpTPg="http://ns.adobe.com/xap/1.0/t/pg/"
            xmlns:stDim="http://ns.adobe.com/xap/1.0/sType/Dimensions#"
            xmlns:xmpG="http://ns.adobe.com/xap/1.0/g/">
         <xmpMM:RenditionClass>proof:pdf</xmpMM:RenditionClass>
         <xmpMM:DocumentID>xmp.did:01ba40db-d907-44ae-b7ad-bc1b85456061</xmpMM:DocumentID>
         <xmpMM:InstanceID>xmp.iid:01ba40db-d907-44ae-b7ad-bc1b85456061</xmpMM:InstanceID>
         <xmpMM:OriginalDocumentID>uuid:9c0c9633-5621-4c4e-a712-1bc7b0864ee6</xmpMM:OriginalDocumentID>
         <xmpMM:DerivedFrom rdf:parseType="Resource">
            <stRef:instanceID>xmp.iid:6c832d0f-d9ce-425c-9b42-37f373577a7b</stRef:instanceID>
            <stRef:documentID>xmp.did:6c832d0f-d9ce-425c-9b42-37f373577a7b</stRef:documentID>
            <stRef:originalDocumentID>uuid:9c0c9633-5621-4c4e-a712-1bc7b0864ee6</stRef:originalDocumentID>
            <stRef:renditionClass>proof:pdf</stRef:renditionClass>
         </xmpMM:DerivedFrom>
         <xmpMM:History>
            <rdf:Seq>
               <rdf:li rdf:parseType="Resource">
                  <stEvt:action>saved</stEvt:action>
                  <stEvt:instanceID>xmp.iid:6c832d0f-d9ce-425c-9b42-37f373577a7b</stEvt:instanceID>
                  <stEvt:when>2015-04-12T02:50:32-04:00</stEvt:when>
                  <stEvt:softwareAgent>Adobe Illustrator CC 2014 (Macintosh)</stEvt:softwareAgent>
                  <stEvt:changed>/</stEvt:changed>
               </rdf:li>
               <rdf:li rdf:parseType="Resource">
                  <stEvt:action>saved</stEvt:action>
                  <stEvt:instanceID>xmp.iid:01ba40db-d907-44ae-b7ad-bc1b85456061</stEvt:instanceID>
                  <stEvt:when>2015-04-12T03:01:10-04:00</stEvt:when>
                  <stEvt:softwareAgent>Adobe Illustrator CC 2014 (Macintosh)</stEvt:softwareAgent>
                  <stEvt:changed>/</stEvt:changed>
               </rdf:li>
            </rdf:Seq>
         </xmpMM:History>
         <xmp:CreateDate>2015-04-12T03:01:10-04:00</xmp:CreateDate>
         <xmp:CreatorTool>Adobe Illustrator CC 2014 (Macintosh)</xmp:CreatorTool>
         <xmp:ModifyDate>2015-04-12T03:01:10-04:00</xmp:ModifyDate>
         <xmp:MetadataDate>2015-04-12T03:01:10-04:00</xmp:MetadataDate>
         <xmp:Thumbnails>
            <rdf:Alt>
               <rdf:li rdf:parseType="Resource">
                  <xmpGImg:width>256</xmpGImg:width>
                  <xmpGImg:height>92</xmpGImg:height>
                  <xmpGImg:format>JPEG</xmpGImg:format>
                  <xmpGImg:image>/9j/4AAQSkZJRgABAgEASABIAAD/7QAsUGhvdG9zaG9wIDMuMAA4QklNA+0AAAAAABAASAAAAAEA&#xA;AQBIAAAAAQAB/+4ADkFkb2JlAGTAAAAAAf/bAIQABgQEBAUEBgUFBgkGBQYJCwgGBggLDAoKCwoK&#xA;DBAMDAwMDAwQDA4PEA8ODBMTFBQTExwbGxscHx8fHx8fHx8fHwEHBwcNDA0YEBAYGhURFRofHx8f&#xA;Hx8fHx8fHx8fHx8fHx8fHx8fHx8fHx8fHx8fHx8fHx8fHx8fHx8fHx8fHx8f/8AAEQgAXAEAAwER&#xA;AAIRAQMRAf/EAaIAAAAHAQEBAQEAAAAAAAAAAAQFAwIGAQAHCAkKCwEAAgIDAQEBAQEAAAAAAAAA&#xA;AQACAwQFBgcICQoLEAACAQMDAgQCBgcDBAIGAnMBAgMRBAAFIRIxQVEGE2EicYEUMpGhBxWxQiPB&#xA;UtHhMxZi8CRygvElQzRTkqKyY3PCNUQnk6OzNhdUZHTD0uIIJoMJChgZhJRFRqS0VtNVKBry4/PE&#xA;1OT0ZXWFlaW1xdXl9WZ2hpamtsbW5vY3R1dnd4eXp7fH1+f3OEhYaHiImKi4yNjo+Ck5SVlpeYmZ&#xA;qbnJ2en5KjpKWmp6ipqqusra6voRAAICAQIDBQUEBQYECAMDbQEAAhEDBCESMUEFURNhIgZxgZEy&#xA;obHwFMHR4SNCFVJicvEzJDRDghaSUyWiY7LCB3PSNeJEgxdUkwgJChgZJjZFGidkdFU38qOzwygp&#xA;0+PzhJSktMTU5PRldYWVpbXF1eX1RlZmdoaWprbG1ub2R1dnd4eXp7fH1+f3OEhYaHiImKi4yNjo&#xA;+DlJWWl5iZmpucnZ6fkqOkpaanqKmqq6ytrq+v/aAAwDAQACEQMRAD8A9U4q7FXYq7FXYq7FXYq7&#xA;FXYq7FXYq7FXYqh59QtoTxrzk/kTc/0w0gyQT319MaRgQr1r9pqD57fhjTGypy2VU5XDtLIBsHJI&#xA;FfY4bRSrpVzIsKxOaqgoCfAYCmJTNWDCo6YGbeKuxV2KuxV2KuxV2KuxV2KuxV2KuxV2KuxV2Kux&#xA;V2KuxV2KuxV2KuxV2KuxV2KqFxeQw/Cfik/kXc/T4Y0glBSTXNxsx4RnoiVFR7tTCxu3RWw47bL0&#xA;B7EntUVxUBFJGsY2H2OviT2xSpyjY17bH50J/hipQsIVXNTQVrTthYhHo37fgNqYGaur1oG2J6U6&#xA;HAldirsVdirsVdirsVdirsVdirsVdirsVdirsVdirsVdirsVdirsVdirsVaZlRSzGijqTiqClupZ&#xA;arECkfTl0Y/f9kfjhYkqaW4UE8du5BqW9gCN6nxxRSssG9G2ZvtA7Hf/ACh44ppV6EkD7OyjofD6&#xA;fDFLRAAVTSgqxPb/AGq9sVU3BpTuR8Q8OZGKFBRR9twafqxQiEr+1sBvT+uKVUE0LU+Jtgp7/P3x&#xA;SvViKAVYAb16jAq8EEVBqMUuxV2KuxV2KuxV2KuxV2KuxV2KuxV2KuxV2KuxV2KuxV2KuxVp3VFL&#xA;MaAYqgJJJJ2BNQo3VR2H8xPTCwXrCx2CAt2qSQv3jqP14ppVWJUNeAogpVTv/DFK6pC0r8TbcW/g&#xA;fbArqCoQVou/E9fahxVo/ED35Gg7Egdfp64VWPuT7FRT6a/xxQoMNyO3X5mtBihVXjsaNXrQ1O/6&#xA;vfFKqP5m7dhv/mcUrvi8aSN0Pan9mBWxux4/DxFCMVXK4NK7E9B44pXYq7FXYq7FXYq7FXYq7FXY&#xA;q7FXYq7FXYq7FXYq7FXYq07qilmNFG5OKoB5Gmfk/wAMa9F7+HT3wsFVIGY0ZTTYsGNK9+1cU0qh&#xA;QAWEaeCj/Md8CXcACF4dNyV/zGKtj4nIBqBsFbFWgaITTc7hT+FDirqbqvUKPlv0FffFVh3BPfnv&#xA;26ED+H8cKqRG49ya/eQP14oXRmgpXiBuKio/28VXqVr15EdKb0/2v1YpX9Nz9omlP5T/AExVcRWi&#xA;ftdSfbv9+BXVDEl+i/w6kYq2GZact6/eMUrwQRUdMVdirsVdirsVdirsVdirsVdirsVdirsVdirs&#xA;Vad1RSzGgGKoFnknfkdlB/dqTQV8WOFjzVkjRe5YL4CgJ9v9vFK/j8NOHxt1LEH8d8Cu4ry3jXiv&#xA;hTr9NMVcOKqWKstd9vw2GKuIJj41D12IPWp6/wCdMVbbcqn0lG67eBxVobsx8KKa9hSu4+nFVo+y&#xA;nuQT86E/r6YVU2HwinUFv4n+AxQ4Ehqr17U7/R9IGKqi1OyspHbb227+G2KVysv7Pxmm561X+zFW&#xA;6fsg/Ed1f2wK3QN8FKcKE/PtTFXBiPiPU7J74q3QqQF69Wr0OKrlcN7HwxS3irsVdirsVdirsVdi&#xA;rsVdirsVdirsVWSypGvJj9GK2hOMlw/KSoQdFHYfqrhY81ZQF6UDnYAfEwHfFK4AEhRyYL9G/wDw&#xA;uBXCm7lWoOnxdvvxV3E0ClWqx+L4vv7/AEYq2xFQvJlHU19vc++KuNWcdHCitRsanw/28VcN3I60&#xA;FOLbHx2xVbU+mSK1oSP5hXf6cKuYD4AOldqdOh6f0xVaf2vHkP4DFVlKAeA2/wCBqP1VxQuqCByI&#xA;NOnL38D02O/yxVU+PqSF7/T3FTgS2KEUT7Lb8vA4q3Tl8PQr1Pj/AJ98VbDBqlug6D+OKtfGvuW+&#xA;kgYq3RWp/IvcYq4OQBz6Hof64pX4q7FXYq7FXYq7FXYq7FXYq7FVOacR/CBykPRR4eJ9sUEocRsz&#xA;8pDyfstK8foGFCsFrtxqq9eR2r9FRgS7mQCeSg9Avh4DririQFCiQknwofmdhirZpUKGag3Pw+HT&#xA;tirgQWJLkU2FaD59RiraEszFXDU2H0fLFWlFasybk9VPYbexxVoH92xBDdW4t19sVcwogX3AAbr1&#xA;A2IxVz7stetd9t+h6jv9GKrG3Encnp3/AGfHCq0kbnr0YH8P1D/PsocNjQfKnjt0361H6sVXAqP5&#xA;K7UY/Ca9jviq/mp+0w4nqq9jgSuoSKN8IXp7j+mKuJDfa2I3UdyfHFXcmBo32j+12AxVxUdV2Uf8&#xA;McVbDb/EKOei/wBuKuoymi7nqR2/sxVcrBqgdR1HhilvFXYq7FXYq7FXYq7FVF5mYlIuo+09Ony/&#xA;zpii1NVVfpPQ7sx9wOv34UKlCBQcix8BxA++mBLuAJChBQbnkan+OKrhzLbAKF2Hff8ADFWwJCxN&#xA;RtsNj9PfFWhzoXJFDv0PQfTirY9RUqSNtyKfSe+KrSHEfxIpI967n6PHFXEBE2DKQKL33+QqMVaa&#xA;hQICrCoHE9ev+fbFW324g1AJ3Dbjoe+KtH7S+FD7jt0I3GKtDZmr3oa9j269O2FVMbBfb4T+r9Y/&#xA;28ULaU28PhP6xiq4OR9PUdt+vWn0b4qqB2IqDyqP5TuMUuLCgJJI/Zc7AH6cCtlv5+vZ+g+j3xVu&#xA;rDYgsDvQfaPzxVw61Qgkfs/sjFXcgdm2r1Y9P9jirt1G32PE/a+jFW/hYA/ZA6fzVxVcHIHx7Ds3&#xA;9fDFK7FXYq7FXYq0zqvU9eg8cVUW5yGm/EdQB/WlcKGqLSh4hB/M3406YquDD7RcADoFG4H44FcD&#xA;QFmLkntSnyGwxV2wXYMXP+sN/ppirZAVacCT0HIg7n5nFWmVQoUR9dh9n+uKtsq7L6XU+C9B9OKu&#xA;cDYcCtTvSg9+xxVzcaqBy61/a7b98Vc7D4RzpU/tADpv7eGKuYlmUfC9DU/dT38cVcRR12ZaAnY1&#xA;Hbt/Ziq1iPUBqAaHc1Q9u/fFXUPMnfcDfx6/y/xGKrKVDKOx2I7V37f2YULSQaHswoRiq2tOvbZv&#xA;n4j+uKt03I6nqaDl9NTirYam+y171Wh+dONMVXKSDQDfoR2PsGHI4q2rCvFTxPdD3+6rYpbLL0Yc&#xA;SPu+4fxxVss3Rvj/ABI/2IwK4Gh+E79w27fcOmKt1Xl/JJ4t9r6AOuKu5Fd2G387bfhiq5SR9irg&#xA;9ug+iuKrwwPTqOo74pbxVazn9gV99qYqphWYmladyWofo44ob4V24KVHUkk/RuMVbAY7AKqg9t6n&#xA;8MVbpIzdRQe3f78VdR2bqKL7d/vxVwEhatRRdht3+/FXUkL9RRfbufpxV1JC53Hw7dO5+nFXASFy&#xA;ajbbp47nvirqSF+o2Hh4/T7Yq6khc7jYeHj9OKu/eep0BoPGnX6PbFWiGZ91U8R3Pj9HtirXA8z8&#xA;IFAPskjr9A8MVcQ3MUDDY9wfDxJxVbxPqN8JGw3oK9/5SMVaIPPuajbY9vmG8cVWFTVlKk132B3B&#xA;9zvhQsPIddnGwBHbFVMvQcT9kb07jFDXrqOlP9YUavzH9mK276xH0NCPChp+FMVtv6zGRQMaeDfG&#xA;v49MVtcLkAUqKDsDyH8f1YrbYnSlFYfJf+aRt+GKbXCZT16j+Xt9AK4ra4SAjiCHHUrXiR70otcV&#xA;XK9D8J+Lw2r99WOKt1qe6sex5UP0AAHFLYPb7B7cVpX6TtgVVVz0dePgdqHFLX7j/J/DFDX+j/5H&#xA;4Yq7/R/8j8MVd/o/+R+GKu/0f/I/DFXf6P8A5H4Yq7/R/wDI/DFXf6P/AJH4Yq7/AEf/ACPwxV3+&#xA;j/5H4Yq7/R/8j8MVd/o/+R+GKu/0f/I/DFXf6P8A5H4Yq7/R/wDI/DFXf6P/AJH4Yq7/AEf/ACPw&#xA;xV3+j/5H4Yq7/R/8j8MVd/o/+R+GKu/0ev7FfoxV3+jV/Yr9GKu/0ao+xXt0xV3+jVH2K9ulcVd/&#xA;o1R9ivbpXFXH6tUV4V7dMVcfq21eHt0xVx+r7V4e3TFXH6v34fhirv8AR/8AI/DFXH6vTfhT6MVc&#xA;fq9N+FPoxV//2Q==</xmpGImg:image>
               </rdf:li>
            </rdf:Alt>
         </xmp:Thumbnails>
         <pdf:Producer>Adobe PDF library 11.00</pdf:Producer>
         <dc:format>image/svg+xml</dc:format>
         <xmpTPg:MaxPageSize rdf:parseType="Resource">
            <stDim:w>768.857942</stDim:w>
            <stDim:h>268.488440</stDim:h>
            <stDim:unit>Pixels</stDim:unit>
         </xmpTPg:MaxPageSize>
         <xmpTPg:NPages>1</xmpTPg:NPages>
         <xmpTPg:HasVisibleTransparency>False</xmpTPg:HasVisibleTransparency>
         <xmpTPg:HasVisibleOverprint>False</xmpTPg:HasVisibleOverprint>
         <xmpTPg:PlateNames>
            <rdf:Seq>
               <rdf:li>Cyan</rdf:li>
               <rdf:li>Magenta</rdf:li>
               <rdf:li>Yellow</rdf:li>
            </rdf:Seq>
         </xmpTPg:PlateNames>
         <xmpTPg:SwatchGroups>
            <rdf:Seq>
               <rdf:li rdf:parseType="Resource">
                  <xmpG:groupName>Default Swatch Group</xmpG:groupName>
                  <xmpG:groupType>0</xmpG:groupType>
               </rdf:li>
            </rdf:Seq>
         </xmpTPg:SwatchGroups>
      </rdf:Description>
   </rdf:RDF>
</x:xmpmeta>
                                                                                                    
                                                                                                    
                                                                                                    
                                                                                                    
                                                                                                    
                                                                                                    
                                                                                                    
                                                                                                    
                                                                                                    
                                                                                                    
                                                                                                    
                                                                                                    
                                                                                                    
                                                                                                    
                                                                                                    
                                                                                                    
                                                                                                    
                                                                                                    
                                                                                                    
                                                                                                    
                           
<?xpacket end="w"?>
	</metadata>
<g>
	<g>
		<g>
			<path fill="none" stroke="#C6D6D8" stroke-miterlimit="10" d="M383.4,4.8C255.7,92.2,128.7,179.9,2.2,268"/>
			<path fill="none" stroke="#C6D6D8" stroke-miterlimit="10" d="M383.5,4.6c-31.1,14.6-61.4,30-90.9,46.1
				c-25.1,13.7-53.7,27.4-74.9,43.9c-30,23.3-53.6,52.9-78.5,78.9C109.4,204.7,80.4,236.2,52,268"/>
			<path fill="none" stroke="#C6D6D8" stroke-miterlimit="10" d="M383.6,4.4c-27.2,8.2-53,18.5-77.4,30.2
				c-21.5,10.3-47.4,21.9-63.6,36.2c-26.7,23.6-44.4,56.1-63.6,82.8c-27.1,37.7-52.7,75.9-77.4,114.3"/>
			<path fill="none" stroke="#C6D6D8" stroke-miterlimit="10" d="M383.7,4.3c-43.1,8.3-92.5,31.3-117.1,57.4
				c-24.6,26-39.2,60.3-55.6,89c-22.1,38.7-42.3,77.9-61.6,117.3"/>
			<path fill="none" stroke="#C6D6D8" stroke-miterlimit="10" d="M383.9,4.2c-40.5,6.3-74.6,35.2-92.3,59.6
				c-18.2,25-29.3,53.8-41.5,80.4c-18.9,40.9-35.3,82.3-50.8,123.8"/>
			<path fill="none" stroke="#C6D6D8" stroke-miterlimit="10" d="M384,4.2c-37.3,8.4-56,48.6-67.5,71
				c-32,62.1-49.8,128.2-67.5,192.7"/>
			<path fill="none" stroke="#C6D6D8" stroke-miterlimit="10" d="M384.1,4.4c-22.4,27.2-32.9,59.8-42.7,90
				C322.9,151.7,310.6,210,298.8,268"/>
			<path fill="none" stroke="#C6D6D8" stroke-miterlimit="10" d="M384.3,4.7c-17.4,87.4-27.8,175.4-37.7,263.3"/>
			<path fill="none" stroke="#C6D6D8" stroke-miterlimit="10" d="M384.4,4.9C388,92.6,392,180.3,396.3,268"/>
			<path fill="none" stroke="#C6D6D8" stroke-miterlimit="10" d="M384.5,5.2c14.3,87.4,25.7,178,61.5,262.8"/>
			<path fill="none" stroke="#C6D6D8" stroke-miterlimit="10" d="M384.6,5.4c14.8,61.6,30.1,123.7,55.6,183.7
				c10.8,25.4,23.4,61.8,55.6,79"/>
			<path fill="none" stroke="#C6D6D8" stroke-miterlimit="10" d="M384.8,5.5c21.5,65.9,41.1,136.7,80.4,199
				c14.5,23.1,41.2,57.2,80.4,63.5"/>
			<path fill="none" stroke="#C6D6D8" stroke-miterlimit="10" d="M384.9,5.5c17.7,41.5,36.4,82.8,57.3,123.6
				c13.8,26.8,25.9,57.7,46.9,82.3c21.4,25,62.5,49.9,104.2,56.6"/>
			<path fill="none" stroke="#C6D6D8" stroke-miterlimit="10" d="M385,5.4c22.4,40,45.7,79.8,70.9,119c17.3,27,33.1,59.7,58.2,83.8
				c28,26.8,84.4,49.5,129,59.9"/>
			<path fill="none" stroke="#C6D6D8" stroke-miterlimit="10" d="M385.2,5.2c27.2,36,55.2,71.8,84.4,107
				c21.5,25.9,41.5,56.5,69.4,79.4c18.4,15.2,46.3,27.5,69.4,39.1c27,13.6,55.1,26.2,84.4,37.3"/>
			<path fill="none" stroke="#C6D6D8" stroke-miterlimit="10" d="M385.3,5c32.9,29.5,66.1,58.8,99.8,87.8
				c25.7,22.1,50.3,46.4,78.9,66.8c54.6,39,118.4,73.7,178.7,108.4"/>
			<path fill="none" stroke="#C6D6D8" stroke-miterlimit="10" d="M383.4,4.7c-60,34.6-125.2,69.1-178.7,108.5
				C140,161,83.8,216.3,26.1,268"/>
			<path fill="none" stroke="#C6D6D8" stroke-miterlimit="10" d="M383.6,4.5c-28.7,10.9-56.2,23.2-82.7,36.5
				c-23,11.5-53,24.2-71.2,39.5c-28.3,24-49,55.7-71.2,82.5c-28.6,34.6-56,69.7-82.7,105"/>
			<path fill="none" stroke="#C6D6D8" stroke-miterlimit="10" d="M383.7,4.3c-25.9,6.2-50,15.4-72.3,26.2
				c-18.6,9-43.5,20.4-56.7,33.3c-12.9,12.6-21.2,29.5-30.7,43.4c-9.9,14.6-19.6,29.3-29,44c-24.6,38.5-47.4,77.5-69.3,116.8"/>
			<path fill="none" stroke="#C6D6D8" stroke-miterlimit="10" d="M383.8,4.3c-40.7,6.5-83.6,31.8-104.2,56.4
				c-21.6,25.8-33.9,58-48.2,86c-20.4,40-38.7,80.6-56,121.3"/>
			<path fill="none" stroke="#C6D6D8" stroke-miterlimit="10" d="M383.9,4.2c-39,6.7-65.8,40.5-80.4,63.7
				c-39.4,62.6-58.9,133.9-80.4,200"/>
			<path fill="none" stroke="#C6D6D8" stroke-miterlimit="10" d="M384.1,4.3c-32.2,17.1-44.9,54.1-55.6,79.5
				C303.1,144,287.7,206.3,272.9,268"/>
			<path fill="none" stroke="#C6D6D8" stroke-miterlimit="10" d="M384.2,4.5c-36.2,84.9-47.3,176-61.5,263.5"/>
			<path fill="none" stroke="#C6D6D8" stroke-miterlimit="10" d="M384.3,4.8c-4.3,87.7-8.3,175.5-11.9,263.2"/>
			<path fill="none" stroke="#C6D6D8" stroke-miterlimit="10" d="M384.5,5c9.9,87.8,20.4,175.7,37.7,263"/>
			<path fill="none" stroke="#C6D6D8" stroke-miterlimit="10" d="M384.6,5.3c11.8,57.9,24.1,116,42.7,173.1
				c9.8,30.1,20.3,62.5,42.7,89.6"/>
			<path fill="none" stroke="#C6D6D8" stroke-miterlimit="10" d="M384.7,5.5c17.7,64.3,35.4,130.3,67.5,192.1
				c11.7,22.5,30.2,62,67.5,70.4"/>
			<path fill="none" stroke="#C6D6D8" stroke-miterlimit="10" d="M384.8,5.5c15.8,42.3,32.6,84.5,52,126.2
				c11.9,25.6,22.5,54,40.3,78c17.8,23.9,52.5,52.4,92.3,58.4"/>
			<path fill="none" stroke="#C6D6D8" stroke-miterlimit="10" d="M385,5.4c20.1,41,41.2,81.7,64.3,122
				c15.5,26.9,29.3,59.7,52.8,83.8c25.2,25.9,73.9,48.4,117.1,56.8"/>
			<path fill="none" stroke="#C6D6D8" stroke-miterlimit="10" d="M385.1,5.3c25.2,39.2,51.3,78.1,79,116.5
				c10.3,14.2,20.8,28.4,31.5,42.5c9.3,12.2,17.7,27.8,30.4,38.5c16.4,13.9,43.9,25.7,65.2,35.8c23.9,11.3,49.1,21.4,75.7,29.3"/>
			<path fill="none" stroke="#C6D6D8" stroke-miterlimit="10" d="M385.2,5.1c29.1,32.4,58.6,64.5,89.1,96.3
				c24.2,25.3,47.2,54.8,76.7,77.4c21.6,16.5,51.4,30.4,76.7,44.1c28.9,15.7,58.6,30.8,89.1,45.1"/>
			<path fill="none" stroke="#C6D6D8" stroke-miterlimit="10" d="M385.3,4.9C511.8,93,638.8,180.7,766.5,268"/>
		</g>
		<g>
			<path fill="none" stroke="#C6D6D8" stroke-miterlimit="10" d="M384.9,4.5c-0.4,1-0.6-1-1,0"/>
			<path fill="none" stroke="#C6D6D8" stroke-miterlimit="10" d="M409.6,22c-11.2,19.3-16.2,15.5-25.3-0.4
				C373.9,3.4,368.8,4.4,359,21.6"/>
			<path fill="none" stroke="#C6D6D8" stroke-miterlimit="10" d="M434.4,39.4c-3,5.9-11.2,29.9-28.3,27.1
				c-11.4-1.9-17.8-21.2-21.8-27.9c-3.9-6.5-10.6-27.8-24.6-27.8c-15.5,0-22.1,21.2-25.5,28"/>
			<path fill="none" stroke="#C6D6D8" stroke-miterlimit="10" d="M458.1,56.1c-5.3,10.7-15.5,41.4-41.2,37.8
				c-16.4-2.3-27.1-30-32.8-39c-6.2-9.8-15.6-38.6-35.6-38.8c-23.7-0.2-33.3,28.7-38.3,39.1"/>
			<path fill="none" stroke="#C6D6D8" stroke-miterlimit="10" d="M482.9,73.5c-6.8,13.9-21.5,53.7-54.5,47.4
				c-22.9-4.4-35.1-35.6-44.2-48.9c-8.7-12.8-22.3-46.9-47.1-48.8c-31.8-2.5-44.7,34.8-51.6,49.2"/>
			<path fill="none" stroke="#C6D6D8" stroke-miterlimit="10" d="M507.6,90.9c-8.7,17.5-27.9,66-69.4,55
				c-27.2-7.3-42-40.3-54.2-56.8c-12.4-16.8-27.6-51.6-57.2-56.9c-40.3-7.3-57.8,39.7-66.4,57.4"/>
			<path fill="none" stroke="#C6D6D8" stroke-miterlimit="10" d="M532.4,108.3c-10.3,20.3-33.4,75.6-81.3,61.8
				c-32.5-9.3-51.1-44.2-67.1-63.9c-15.9-19.6-34.4-54.3-67.1-63.2c-48.2-13.2-71.1,43.1-81.3,63.7"/>
			<path fill="none" stroke="#C6D6D8" stroke-miterlimit="10" d="M556.1,124.9c-12.5,24.3-40.7,86.1-95.7,65.8
				c-35.1-13-56.5-45.8-76.5-68.2c-19.9-22.3-41.2-55-76.5-67.5c-55.5-19.7-83.5,44-95.7,68"/>
			<path fill="none" stroke="#C6D6D8" stroke-miterlimit="10" d="M581.9,140.2c-15.2,28-47.1,91.2-107.5,70.7
				c-39.3-13.4-65.6-46.4-89.5-70.2c-24.2-24-50.1-56.9-89.5-70.8c-60-21.2-92,40.2-107.5,68.3"/>
			<path fill="none" stroke="#C6D6D8" stroke-miterlimit="10" d="M606.8,157.3c-22.4,32.6-59.2,81.1-123,66
				c-42.6-10.1-71.7-42.3-98.9-65.5c-27.3-23.2-56.6-55.5-98.9-66.2c-63.2-16-100.4,31.6-123,63.9"/>
			<path fill="none" stroke="#C6D6D8" stroke-miterlimit="10" d="M631.7,174.5c-29.7,33.8-70.9,69.3-134.7,60.5
				c-46.5-6.4-80.6-37.6-112-60c-32.5-23.2-67.5-55.6-116.2-61.4c-61.7-7.3-101.5,26.9-130.5,59.4"/>
			<path fill="none" stroke="#C6D6D8" stroke-miterlimit="10" d="M656.5,191.6c-37.9,32.9-84.5,58-148.2,53
				c-49.1-3.9-86.8-31.6-123.3-52.6c-37.9-21.9-76.4-50.4-127.9-53.7c-61.6-4-106.7,20.4-143.6,52"/>
			<path fill="none" stroke="#C6D6D8" stroke-miterlimit="10" d="M680.4,208c-46.4,29.9-99.4,47.2-163.7,44.2
				c-50-2.3-90.8-25.5-131.6-43.9c-40.6-18.2-82-41.9-131.6-44.5c-64-3.3-117.1,13.6-163.7,43.1"/>
			<path fill="none" stroke="#C6D6D8" stroke-miterlimit="10" d="M705.3,225.2c-53.5,23.3-111.5,34.6-174.7,33.7
				c-52.9-0.8-98.2-18.3-145.4-33.4c-47.1-15.1-92.6-33-145.4-33.9c-63.1-1.1-121,9.8-174.7,32.9"/>
			<path fill="none" stroke="#C6D6D8" stroke-miterlimit="10" d="M730.2,242.3c-60.8,15.2-123.6,21.5-188.1,21.4
				c-54.3-0.1-104.8-11.3-156.8-21.2c-53.9-10.3-105.9-21.7-162.3-21.6c-62.6,0.1-123.6,6.4-182.6,21"/>
			<path fill="none" stroke="#C6D6D8" stroke-miterlimit="10" d="M755.1,259.4c-124,9.9-245.8,7.9-369.7,0.1
				c-123.9-7.9-245.7-10-369.7-0.2"/>
			<path fill="none" stroke="#C6D6D8" stroke-miterlimit="10" d="M396.7,12.9c-0.4,13.9-9.7,3.9-12.4-0.2
				c-2.8-4.3-12.1-13.8-12.4,0.1"/>
			<path fill="none" stroke="#C6D6D8" stroke-miterlimit="10" d="M421.5,30.3c-2,3.8-8.3,23.3-21.4,20.6
				c-8.6-1.8-12.5-15.5-15.9-21.2c-3.5-6-7.2-21.4-18.6-21.2c-11.2,0.2-16.8,17.8-18.6,21.3"/>
			<path fill="none" stroke="#C6D6D8" stroke-miterlimit="10" d="M446.2,47.8c-4.1,8.3-13.2,35.6-34.8,32.6
				c-14.6-2-22.1-25.2-27.3-33.6c-5.1-8.4-13.2-33.3-30.1-33.5C334.5,13,326.2,38.7,322.2,47"/>
			<path fill="none" stroke="#C6D6D8" stroke-miterlimit="10" d="M471,65.2c-6.2,12.7-18.5,48-48.1,43c-20.2-3.4-31-32.6-38.7-44.4
				c-7.7-11.7-19.1-43.3-41.6-44.2c-28.3-1.2-39,31.6-45.2,44.6"/>
			<path fill="none" stroke="#C6D6D8" stroke-miterlimit="10" d="M494.7,81.9c-7.9,16-24.9,60.6-62.5,51
				c-24.7-6.3-37.4-37.5-48.2-52.7c-10.4-14.8-24.9-48.9-51.2-52.8c-36.6-5.4-51.6,37-59.5,53.2"/>
			<path fill="none" stroke="#C6D6D8" stroke-miterlimit="10" d="M519.5,99.2c-9.3,18.6-29.3,68.9-72.8,59.1
				c-31.3-7.1-48.6-42.8-62.7-61.1c-14.1-18.3-31.1-53.7-62.7-60.3c-43.8-9.3-63.5,41.7-72.8,60.8"/>
			<path fill="none" stroke="#C6D6D8" stroke-miterlimit="10" d="M544.2,116.6c-11.2,22-36.5,80.5-87.7,64.3
				c-34.6-10.9-54.5-45.2-72.6-66.6c-17.9-21.1-38-55.4-72.6-65.8c-51.5-15.5-76.7,44.4-87.7,66.3"/>
			<path fill="none" stroke="#C6D6D8" stroke-miterlimit="10" d="M569,134c-13.5,25.9-43.3,90-101.1,68.2
				c-37.3-14.1-61.8-47.1-84-70.7c-22.2-23.5-48-59-87.2-71.2c-56.8-17.7-85.3,47.2-97.9,71.8"/>
			<path fill="none" stroke="#C6D6D8" stroke-miterlimit="10" d="M594.8,149.1c-19,30.9-53.5,86.5-116.4,68.1
				c-40.8-11.9-68-44.1-93.6-67.6c-25.7-23.6-53.1-55.8-93.6-68.3c-62.2-19.2-97.2,35.3-116.4,65.9"/>
			<path fill="none" stroke="#C6D6D8" stroke-miterlimit="10" d="M618.7,165.6c-25.6,33.2-64.1,75.1-127.6,63.7
				c-44.9-8.1-77-40.4-106.1-63.2c-30-23.5-63.2-57.4-110.1-64.7c-61.4-9.6-98.6,30.6-123.6,62.6"/>
			<path fill="none" stroke="#C6D6D8" stroke-miterlimit="10" d="M643.6,182.7c-33.6,33.7-77.3,63.9-141.2,57.1
				c-47.8-5.1-83.7-34.8-117.4-56.6c-35-22.7-71.7-53.4-121.8-57.9c-61.7-5.5-104,23.6-136.8,56"/>
			<path fill="none" stroke="#C6D6D8" stroke-miterlimit="10" d="M668.5,199.8c-41.8,31.5-91.1,52.5-154.7,48.8
				c-50.1-2.9-89.6-28.4-128.7-48.5c-40.7-20.9-80.9-47.1-133.5-49.4c-61.5-2.8-109.2,17.7-149.9,47.9"/>
			<path fill="none" stroke="#C6D6D8" stroke-miterlimit="10" d="M693.4,216.9c-50.6,27-106.6,40.9-170.8,38.9
				c-50.8-1.5-93.8-22-137.4-38.6c-43.3-16.5-86.9-37.4-137.4-39.2c-64.1-2.3-120.1,11.3-170.8,38"/>
			<path fill="none" stroke="#C6D6D8" stroke-miterlimit="10" d="M717.2,233.4c-56.2,19.4-115.8,28.2-178.5,28
				c-54.7-0.2-103-14.8-153.6-27.8c-50.5-13-99.1-27.9-153.6-28.2c-62.6-0.4-122.2,8.3-178.5,27.4"/>
			<path fill="none" stroke="#C6D6D8" stroke-miterlimit="10" d="M742.1,250.5c-63.9,10.6-128.9,14.9-194.6,15
				c-55.1,0.1-108.3-7.8-162.3-14.8c-54-7-107.2-15.1-162.3-15.1c-65.7,0-130.6,4.1-194.6,14.6"/>
			<path fill="none" stroke="#C6D6D8" stroke-miterlimit="10" d="M767,267.7c-254.4,0.8-508.9-0.8-763.3,0"/>
		</g>
	</g>
</g>
</svg>
