<?xml version="1.0" encoding="utf-8"?>
<!-- Generator: Adobe Illustrator 18.1.0, SVG Export Plug-In . SVG Version: 6.00 Build 0)  -->
<!DOCTYPE svg PUBLIC "-//W3C//DTD SVG 1.1//EN" "http://www.w3.org/Graphics/SVG/1.1/DTD/svg11.dtd">
<svg version="1.1" xmlns="http://www.w3.org/2000/svg" xmlns:xlink="http://www.w3.org/1999/xlink" x="0px" y="0px"
	 viewBox="0 0 1200 600" enable-background="new 0 0 1200 600" xml:space="preserve">
<g id="Layer_1">
	<polygon opacity="0.8" fill="#F6CA06" points="0,426 600,285 941,600 0,600 	"/>
	<polygon opacity="0.8" fill="#FFB600" points="737,600 918.5,233 1131,600 	"/>
	<polygon opacity="0.8" fill="#FFB600" points="918,600 1048.6,372.1 1200,503.1 1200,600 	"/>
	<g>
		<polygon opacity="0.56" fill="#B2B967" points="1041,270 1200,465.8 1200,600 435,600 		"/>
		<polygon opacity="0.56" fill="#B2B967" points="0,373 149,233 600,600 0,600 		"/>
	</g>
	<polygon fill="#FFB600" points="0,444.6 127.6,331.6 285.1,600 0,600 	"/>
	<g>
		<polygon opacity="0.51" fill="#FCAD00" points="0,442.5 407,249 807.1,600 0,600 		"/>
		<polygon opacity="0.51" fill="#FCAD00" points="786.8,284.1 1201,483 1200,600 558,600 		"/>
		<polygon opacity="0.51" fill="#FCAD00" points="609.1,600 745.7,265.6 984.1,600 		"/>
	</g>
	<g>
		<polygon opacity="0.7" fill="#FA6101" points="0,600 196.6,460.6 448.6,600 		"/>
		<polygon opacity="0.7" fill="#FA6101" points="293.9,600 532.5,481.5 729.1,600 		"/>
		<polygon opacity="0.7" fill="#FA6101" points="495.6,600 715,460.6 839.1,600 756.9,600 		"/>
		<polygon opacity="0.7" fill="#FA6101" points="910.3,411.6 1100.9,600 757,600 		"/>
		<polygon opacity="0.7" fill="#FA6101" points="998.5,600 1100.1,442 1199,540.8 1199,600 		"/>
	</g>
</g>
<g id="logo" display="none">
	<g display="inline">
		<g>
			<path id="microphone" fill="#1D789E" d="M651.2,215.9h-6.1c0.3-1.5,0.5-3,0.6-4.5H631c-0.2,1.5-0.5,3-0.8,4.5h-9.7v-12h-10.9
				c-1.4,0-2.6-1.2-2.6-2.6v0c0-1.4,1.2-2.6,2.6-2.6h10.9v-3.3h-10.9c-1.4,0-2.6-1.2-2.6-2.6c0-1.4,1.2-2.6,2.6-2.6h10.9v-3.3h-10.9
				c-1.4,0-2.6-1.2-2.6-2.6s1.2-2.6,2.6-2.6h10.9v-3.3h-10.9c-1.4,0-2.6-1.2-2.6-2.6c0-1.4,1.2-2.6,2.6-2.6h10.9
				c-0.1-8.7-7.2-15.8-15.9-15.8h-5.8c-8.8,0-15.9,7.2-15.9,15.9v42.5h-9.7c-0.3-1.5-0.6-3-0.8-4.5h-15c0.1,1.5,0.3,3,0.6,4.5h-5.8
				v7.6h7.8c5.6,16.8,19,32.2,34.2,35.1v13.8H578v11.7h47.4v-11.7h-16.1v-13.8c15.2-2.9,28.4-18.3,33.9-35.1h8V215.9z M601.7,244.7
				c-16.2,0-23.5-10.2-26.4-21.2h7.5v0.4c0,8.8,7.2,15.9,15.9,15.9h5.8c8.8,0,15.9-7.2,15.9-15.9v-0.4h7.5
				C625.5,234.9,617.5,244.7,601.7,244.7z"/>
			<g>
				<path fill="#1D789E" d="M509.1,214.7c11.3,0,16.3-5.7,16.3-17v-30.4c0-20.4,14.2-26,33.8-26v11.6c-11.8,0-19.6,2.9-19.6,12.7
					v32.5c0,14.2-6.5,20.4-17.2,22.2v0.7c10.6,1.8,17.2,7.7,17.2,22.2v32.5c0,10,7.8,12.7,19.6,12.7v11.6c-19.6,0-33.8-5.6-33.8-26
					V244c0-11.3-5.1-17.2-16.3-17.2V214.7z"/>
				<path fill="#1D789E" d="M694.4,226.8c-11.3,0-16.3,5.9-16.3,17.2v30.2c0,20.4-14.2,26-33.8,26v-11.6c11.8,0,19.6-2.8,19.6-12.7
					v-32.5c0-14.5,6.5-20.4,17.2-22.2v-0.7c-10.6-1.8-17.2-8-17.2-22.2v-32.5c0-9.8-7.8-12.7-19.6-12.7v-11.6
					c19.6,0,33.8,5.6,33.8,26v30.4c0,11.3,5.1,17,16.3,17V226.8z"/>
			</g>
		</g>
		<g>
			<path fill="#FFFFFF" d="M309.2,428.2h-25.5L263,364.4h20.8l12.7,44.7l12.7-44.7h20.9L309.2,428.2z"/>
			<path fill="#FFFFFF" d="M336.9,428.2v-63.8H357v63.8H336.9z"/>
			<path fill="#FFFFFF" d="M368.9,428.2v-63.8h49.8V380h-30.2v8.4h23.9V404h-23.9v8.6h30.2v15.6H368.9z"/>
			<path fill="#FFFFFF" d="M462.5,428.2h-21.1l-16.4-63.8h21.6l5.8,41.7l9.7-41.7h23l9.7,41.7l5.9-41.7h20.9L505,428.2h-21.2
				l-10.6-41.6L462.5,428.2z"/>
			<path fill="#FFFFFF" d="M583.7,409.9c0-3.1-4.5-4-11.9-6.1c-9.4-2.7-21.2-7.1-21.2-20.1c0-12.5,8.7-20.6,26.1-20.6
				c11.3,0,19.6,2.6,25.7,5.6l-3.2,16.4c-7.1-3.5-15.8-5.8-22.5-5.8c-3.9,0-6.1,0.8-6.1,3.4c0,3,6.1,4.4,12.5,6.1
				c10.1,2.9,20.7,7.2,20.7,19.5c0,12.8-9.6,21.5-28.1,21.5c-10.5,0-20.4-2.6-26.2-5.7l3.1-16.4c6.8,3.4,15.4,5.9,23.5,5.9
				C580.6,413.5,583.7,412.5,583.7,409.9z"/>
			<path fill="#FFFFFF" d="M644.8,429.8c-19.1,0-34-11-34-33.3c0-20.8,15.2-33.6,34.3-33.6c19.1,0,34,10.9,34,33.2
				C679.1,416.9,663.9,429.8,644.8,429.8z M644.8,378.7c-9.3,0-13.8,7.1-13.8,17.4c0,10.5,4.8,17.9,14.1,17.9
				c9.2,0,13.8-7.2,13.8-17.5C658.9,386,654.1,378.7,644.8,378.7z"/>
			<path fill="#FFFFFF" d="M717.7,429.8c-17,0-29.7-7.4-29.7-26.7v-38.7h20.1v36.2c0,8.6,3,12.6,9.9,12.6c6.6,0,9.4-3.2,9.4-12
				v-36.8h20v37.1C747.4,421.2,735.2,429.8,717.7,429.8z"/>
			<path fill="#FFFFFF" d="M778.8,428.2h-20.1v-63.8h28.9c17.8,0,27.2,8.2,27.2,20.9c0,8.1-4,15-12.5,18.4l15.8,24.5h-22.3
				l-11.4-19.4l-5.6,0.5V428.2z M785.3,395c6.1-0.6,8.6-3,8.6-8.2c0-4.7-2.8-7-10-7h-5.5v15.3L785.3,395z"/>
			<path fill="#FFFFFF" d="M872.8,384c-4.3-2.6-10.2-4.3-15.3-4.3c-9.7,0-15.7,6.3-15.7,16.4c0,10.3,5.4,16.7,15.7,16.7
				c5.9,0,11.2-1.7,16.2-4.7l4.4,17.3c-4.9,2.6-14.1,4.3-21.6,4.3c-21.3,0-34.9-11.1-34.9-33.2c0-20.7,13.4-33.7,35.7-33.7
				c8.1,0,15.5,1.8,21.5,4.5L872.8,384z"/>
			<path fill="#FFFFFF" d="M887.1,428.2v-63.8H937V380h-30.2v8.4h23.9V404h-23.9v8.6H937v15.6H887.1z"/>
		</g>
	</g>
</g>
</svg>
