<?xml version="1.0" encoding="utf-8"?>
<!-- Generator: Adobe Illustrator 18.1.1, SVG Export Plug-In . SVG Version: 6.00 Build 0)  -->
<svg version="1.1" id="Layer_1" xmlns="http://www.w3.org/2000/svg" xmlns:xlink="http://www.w3.org/1999/xlink" x="0px" y="0px"
	 viewBox="530 498.7 500 458.7" enable-background="new 530 498.7 500 458.7" xml:space="preserve">
<g>
	<path d="M780,555.7c-95.2,0-172.3,77.2-172.3,172.3S684.8,900.4,780,900.4c95.2,0,172.3-77.2,172.3-172.3S875.2,555.7,780,555.7z
		 M780,872.1c-79.4,0-144-64.6-144-144s64.6-144,144-144c79.4,0,144,64.6,144,144S859.4,872.1,780,872.1z"/>
	<path d="M886.5,694.4c0-0.1-0.1-0.3-0.1-0.4c0-0.3-0.1-0.5-0.2-0.8c0-0.2-0.1-0.3-0.1-0.4c-0.1-0.2-0.1-0.4-0.2-0.7
		c-0.1-0.2-0.1-0.3-0.2-0.4c-0.1-0.2-0.2-0.4-0.3-0.6c-0.1-0.1-0.2-0.3-0.3-0.4c-0.1-0.2-0.2-0.4-0.4-0.6c-0.1-0.1-0.2-0.3-0.3-0.4
		c-0.1-0.2-0.3-0.3-0.5-0.5c-0.1-0.1-0.2-0.2-0.4-0.4c-0.2-0.2-0.3-0.3-0.5-0.4c-0.1-0.1-0.3-0.2-0.4-0.3c-0.1,0-0.1-0.1-0.2-0.1
		L785.1,623c-3.1-2.1-7.1-2.1-10.2,0l-97.4,64.9c-0.1,0-0.1,0.1-0.2,0.1c-0.1,0.1-0.3,0.2-0.4,0.3c-0.2,0.1-0.4,0.3-0.5,0.4
		c-0.1,0.1-0.2,0.2-0.4,0.4c-0.2,0.2-0.3,0.3-0.5,0.5c-0.1,0.1-0.2,0.3-0.3,0.4c-0.1,0.2-0.3,0.4-0.4,0.6c-0.1,0.1-0.2,0.3-0.3,0.4
		c-0.1,0.2-0.2,0.4-0.3,0.6c-0.1,0.1-0.1,0.3-0.2,0.4c-0.1,0.2-0.2,0.4-0.2,0.7c0,0.1-0.1,0.3-0.1,0.4c-0.1,0.3-0.1,0.5-0.2,0.8
		c0,0.1-0.1,0.3-0.1,0.4c-0.1,0.4-0.1,0.8-0.1,1.2v64.9c0,0.4,0,0.8,0.1,1.2c0,0.1,0.1,0.3,0.1,0.4c0,0.3,0.1,0.5,0.2,0.8
		c0,0.2,0.1,0.3,0.1,0.4c0.1,0.2,0.1,0.4,0.2,0.7c0.1,0.2,0.1,0.3,0.2,0.4c0.1,0.2,0.2,0.4,0.3,0.6c0.1,0.1,0.2,0.3,0.3,0.4
		c0.1,0.2,0.2,0.4,0.4,0.6c0.1,0.1,0.2,0.3,0.3,0.4c0.1,0.2,0.3,0.3,0.5,0.5c0.1,0.1,0.2,0.2,0.4,0.4c0.2,0.2,0.3,0.3,0.5,0.4
		c0.1,0.1,0.3,0.2,0.4,0.3c0.1,0,0.1,0.1,0.2,0.1l97.4,64.9c1.5,1,3.3,1.5,5.1,1.5c1.8,0,3.5-0.5,5.1-1.5l97.4-64.9
		c0.1,0,0.1-0.1,0.2-0.1c0.1-0.1,0.3-0.2,0.4-0.3c0.2-0.1,0.4-0.3,0.5-0.4c0.1-0.1,0.2-0.2,0.4-0.4c0.2-0.2,0.3-0.3,0.5-0.5
		c0.1-0.1,0.2-0.3,0.3-0.4c0.1-0.2,0.3-0.4,0.4-0.6c0.1-0.1,0.2-0.3,0.3-0.4c0.1-0.2,0.2-0.4,0.3-0.6c0.1-0.1,0.1-0.3,0.2-0.4
		c0.1-0.2,0.2-0.4,0.2-0.7c0-0.1,0.1-0.3,0.1-0.4c0.1-0.3,0.1-0.5,0.2-0.8c0-0.1,0.1-0.3,0.1-0.4c0.1-0.4,0.1-0.8,0.1-1.2v-64.9
		C886.6,695.2,886.5,694.8,886.5,694.4z M789.2,647.7l71.8,47.8l-32,21.4l-39.7-26.6V647.7z M770.8,647.7v42.7L731.1,717l-32.1-21.4
		L770.8,647.7z M691.8,712.7l22.9,15.3l-22.9,15.3V712.7z M770.8,808.3l-71.8-47.8l32.1-21.4l39.7,26.6V808.3z M780,749.7L747.6,728
		l32.4-21.7l32.4,21.7L780,749.7z M789.2,808.3v-42.7l39.7-26.6l32,21.4L789.2,808.3z M868.2,743.3L845.3,728l22.9-15.3V743.3z"/>
</g>
</svg>
