<?xml version="1.0" encoding="utf-8"?>
<!-- Generator: Adobe Illustrator 18.1.1, SVG Export Plug-In . SVG Version: 6.00 Build 0)  -->
<svg version="1.1" id="Layer_1" xmlns="http://www.w3.org/2000/svg" xmlns:xlink="http://www.w3.org/1999/xlink" x="0px" y="0px"
	 viewBox="0 498.7 500 458.7" enable-background="new 0 498.7 500 458.7" xml:space="preserve">
<path fill-rule="evenodd" clip-rule="evenodd" d="M240.1,887.3c-87.8,0-159.3-71.5-159.3-159.3s71.5-159.3,159.3-159.3
	S399.4,640.2,399.4,728S327.9,887.3,240.1,887.3z M374.4,749.8c-4.7-1.5-42.1-12.6-84.7-5.8c17.8,48.9,25,88.7,26.4,97
	C346.6,820.4,368.4,787.7,374.4,749.8z M293.2,853.5c-2-11.9-9.9-53.5-29-103.2c-0.3,0.1-0.6,0.2-0.9,0.3
	c-76.7,26.7-104.3,80-106.7,85c23.1,18,52.1,28.7,83.5,28.7C258.9,864.3,276.9,860.4,293.2,853.5z M139,819.2
	c3.1-5.3,40.4-67.1,110.6-89.8c1.8-0.6,3.6-1.1,5.4-1.6c-3.4-7.7-7.1-15.5-11-23.1C176,725,110.1,724.2,104.1,724.1
	c0,1.4-0.1,2.8-0.1,4.2C104,763.2,117.3,795.1,139,819.2z M106.9,700.4c6.1,0.1,62.1,0.3,125.8-16.6c-22.5-40.1-46.9-73.8-50.4-78.7
	C144.2,623.1,115.7,658.1,106.9,700.4z M208.2,596c3.8,5,28.5,38.7,50.8,79.6c48.4-18.1,68.9-45.7,71.3-49.1
	c-24-21.3-55.6-34.3-90.2-34.3C229.1,592.2,218.4,593.5,208.2,596z M345.4,642.2c-2.9,3.9-25.7,33.1-76,53.6
	c3.2,6.5,6.2,13.1,9,19.7c1,2.4,2,4.7,2.9,7c45.3-5.7,90.3,3.4,94.7,4.4C375.8,694.8,364.4,665.3,345.4,642.2z"/>
</svg>
