<?xml version="1.0" encoding="utf-8"?>
<!-- Generator: Adobe Illustrator 18.1.1, SVG Export Plug-In . SVG Version: 6.00 Build 0)  -->
<svg version="1.1" id="Layer_1" xmlns="http://www.w3.org/2000/svg" xmlns:xlink="http://www.w3.org/1999/xlink" x="0px" y="0px"
	 viewBox="-526 1477.7 500 458.7" enable-background="new -526 1477.7 500 458.7" xml:space="preserve">
<g>
	<path d="M-394,1688.5l21.9,21.3l69.3,64.7l29.8-28.8c2.7-3.8,2.6-8.9-0.6-12.4l-27.3-23.9l0.1,0l-29.4-28.5
		c-3.4-3.9-3.4-9.7,0.3-13.5l79.1-76.4l-35.9-34.9l-85.4,82.4l-22,21.2C-402.2,1667.7-402.2,1680.6-394,1688.5z"/>
	<path d="M-158,1725.5l-21.9-21.3l-69.3-64.7l-29.8,28.8c-2.7,3.7-2.6,8.8,0.6,12.4l27.3,23.9l-0.1,0l29.4,28.5
		c3.4,3.9,3.4,9.7-0.3,13.5l-79.1,76.4l36,34.9l85.4-82.5l22-21.2C-149.8,1746.4-149.8,1733.5-158,1725.5z"/>
</g>
</svg>
