<?xml version="1.0" encoding="utf-8"?>
<!-- Generator: Adobe Illustrator 18.1.1, SVG Export Plug-In . SVG Version: 6.00 Build 0)  -->
<svg version="1.1" id="Layer_1" xmlns="http://www.w3.org/2000/svg" xmlns:xlink="http://www.w3.org/1999/xlink" x="0px" y="0px"
	 viewBox="1054 982.7 500 458.7" enable-background="new 1054 982.7 500 458.7" xml:space="preserve">
<g>
	<path d="M1304,1042L1304,1042L1304,1042c-81.1,0-147.3,21.8-147.3,48.9c0,7.1,17.7,109.4,24.7,149.9c3.1,18.2,50.1,44.8,122.6,44.8
		l0.1-0.2v0.2c72.4,0,119.4-26.7,122.6-44.8c7-40.5,24.7-142.8,24.7-149.9C1451.3,1063.8,1385.1,1042,1304,1042z M1304,1252.7
		c-25.9,0-46.8-21-46.8-46.8c0-25.9,21-46.8,46.8-46.8c25.9,0,46.8,21,46.8,46.8C1350.8,1231.8,1329.9,1252.7,1304,1252.7z
		 M1304,1106c-52.1-0.1-94.3-9.1-94.3-20.2c0-11.1,42.3-20,94.4-19.9c52.1,0.1,94.3,9.1,94.3,20.2
		C1398.3,1097.1,1356.1,1106,1304,1106z"/>
	<path d="M1409.9,1281.4c-2.2,0-4,1.6-4,1.6s-36.3,28.7-101.8,28.7c-65.6,0-101.8-28.7-101.8-28.7s-1.8-1.6-4-1.6
		c-2.7,0-5.2,1.8-5.2,5.8c0,0.4,0,0.8,0.1,1.2c5.6,30.1,9.7,51.5,10.5,54.8c4.9,22.2,48.3,38.9,100.5,38.9l0,0h0h0l0,0
		c52.2,0,95.6-16.7,100.5-38.9c0.7-3.3,4.8-24.6,10.5-54.8c0.1-0.4,0.1-0.8,0.1-1.2C1415.1,1283.2,1412.5,1281.4,1409.9,1281.4z"/>
	<circle cx="1304" cy="1205.9" r="23.5"/>
</g>
</svg>
