<?xml version="1.0" encoding="utf-8"?>
<!-- Generator: Adobe Illustrator 18.1.1, SVG Export Plug-In . SVG Version: 6.00 Build 0)  -->
<svg version="1.1" id="Layer_1" xmlns="http://www.w3.org/2000/svg" xmlns:xlink="http://www.w3.org/1999/xlink" x="0px" y="0px"
	 viewBox="0 0 300 300" enable-background="new 0 0 300 300" xml:space="preserve">
<g>
	<path d="M202.8,235.7c0,0-0.1-8-0.3-10.2c-0.8-9-2.2-18-4.6-26.7c-4.8-17.4-13.1-33.8-24.2-48.1c-10.9-14.1-24.7-26.2-40.2-35
		c-15.8-9.1-33.4-15.2-51.4-17.4c-4.5-0.5-9-0.9-13.5-1.1c-1.1,0-2.2,0-3.4,0c-0.9,0-0.7-0.5-0.7-1.3c0-2.4,0-4.8,0-7.2
		c0-4.6,0-9.3,0-13.9c0-2.3,0-4.7,0-7c0-0.9,0-1.8,0-2.8c0-0.8,0.6-0.6,1.3-0.6c4.6,0,9.2,0.2,13.8,0.6c4.5,0.4,9,1,13.5,1.7
		c9.1,1.5,18,3.8,26.8,6.8C137,79.4,153.1,88,167.6,99c14.4,10.9,27.1,24.1,37.4,38.9c10.4,14.9,18.5,31.6,23.7,49.1
		c2.6,8.7,4.7,17.7,5.7,26.7c0.5,4.5,1,9,1.2,13.6c0.1,2.3-0.1,8.4-0.1,8.4H202.8z"/>
	<path d="M144.9,235.5c0,0-1.2-13.3-2.6-19.2c-2.9-11.7-8.4-22.6-16-31.9c-7.6-9.2-17.1-16.6-27.9-21.6c-5.5-2.6-11.3-4.6-17.2-5.8
		c-3.1-0.6-6.2-1.1-9.3-1.4c-1.5-0.1-2.9-0.2-4.4-0.3l-2.9-0.1v-32.7c0,0,2.8-0.1,3.7,0c12.3,0.5,24.5,2.9,36.1,7.2
		c11.2,4.2,21.8,10.3,31.1,17.8c9.3,7.6,17.5,16.6,24.1,26.7c6.6,10.3,11.6,21.6,14.7,33.4c0.8,3,1.4,6,1.9,9
		c0.5,3.1,0.8,6.1,1.2,9.2c0.2,1.5,0.2,3,0.3,4.5c0.1,1.5,0.1,5.1,0.1,5.1L144.9,235.5z"/>
	<path d="M64.5,213c-0.1-9.1,5.4-17.6,13.7-21.2c8.9-3.8,19.5-1.5,25.9,5.6c3.1,3.5,5.1,7.8,5.8,12.4c0.7,4.8-0.5,9.9-2.9,14.1
		c-4.7,8.2-14.5,12.8-23.8,11c-9.2-1.7-16.9-9.1-18.4-18.5C64.6,215.5,64.4,214.2,64.5,213C64.4,209,64.4,213.9,64.5,213z"/>
</g>
</svg>
