<?xml version="1.0" encoding="utf-8"?>
<!-- Generator: Adobe Illustrator 18.1.1, SVG Export Plug-In . SVG Version: 6.00 Build 0)  -->
<svg version="1.1" id="Layer_1" xmlns="http://www.w3.org/2000/svg" xmlns:xlink="http://www.w3.org/1999/xlink" x="0px" y="0px"
	 viewBox="0 0 500 458.7" enable-background="new 0 0 500 458.7" xml:space="preserve">
<path id="googleplus" d="M348.3,174.6h-26.1v26.1h-13v-26.1h-26.1v-13h26.1v-26.1h13v26.1h26.1V174.6z M274.6,282.4
	c0,19.5-17.8,43.3-62.7,43.3c-32.8,0-60.2-14.2-60.2-38c0-18.4,11.6-42.2,66-42.2c-8.1-6.6-10.1-15.8-5.1-25.7
	c-31.8,0-48.1-18.7-48.1-42.5c0-23.3,17.3-44.4,52.6-44.4c8.9,0,56.5,0,56.5,0l-12.6,13.3H246c10.5,6,16,18.3,16,31.9
	c0,12.5-6.9,22.6-16.7,30.2c-17.4,13.5-13,21,5.3,34.3C268.7,256.1,274.6,266.5,274.6,282.4z M239.4,179
	c-2.6-20-15.7-36.4-30.9-36.9c-15.2-0.5-25.4,14.9-22.8,34.9c2.6,20,17.1,34,32.3,34.4C233.2,211.8,242,199,239.4,179z M255.1,284.4
	c0-16.4-15-32.1-40.2-32.1c-22.7-0.2-41.9,14.3-41.9,31.2c0,17.3,16.4,31.6,39.1,31.6C241.1,315.2,255.1,301.7,255.1,284.4z"/>
</svg>
