<?xml version="1.0" encoding="utf-8"?>
<!-- Generator: Adobe Illustrator 18.1.1, SVG Export Plug-In . SVG Version: 6.00 Build 0)  -->
<svg version="1.1" id="Layer_1" xmlns="http://www.w3.org/2000/svg" xmlns:xlink="http://www.w3.org/1999/xlink" x="0px" y="0px"
	 viewBox="-526 495.7 500 458.7" enable-background="new -526 495.7 500 458.7" xml:space="preserve">
<path d="M-181.3,710.2c0.6,4.6,0.9,9.2,0.9,14v0.8c0,60.9-49,110.3-115.1,110.3c-65.6,0-114.3-48.6-114.3-109.5V725
	c0-60.9,49-110.3,115.1-110.3c11.4,0,22.3,1.6,32.5,4.3v64.6c-1.9-1-4-1.8-6.2-2.6c-28.5-9.6-59,4-73.4,27.4l-0.4,0.7
	c-14.7,23.7-7.3,50.6,20.4,59.9c28.5,9.6,59-4,73.4-27.4l0.4-0.7c5-8.1,8.5-16.5,8.4-24.5h0v-89.3c1.6,0.8,3.1,1.6,4.6,2.4
	c1.4,0.7,1.7,1.5,3,2.3c14.5,9.1,51.8,33.4,82.7,32.5C-132.7,665.7-146.9,701.3-181.3,710.2z"/>
</svg>
