<?xml version="1.0" encoding="utf-8"?>
<!-- Generator: Adobe Illustrator 18.1.1, SVG Export Plug-In . SVG Version: 6.00 Build 0)  -->
<svg version="1.1" id="Layer_1" xmlns="http://www.w3.org/2000/svg" xmlns:xlink="http://www.w3.org/1999/xlink" x="0px" y="0px"
	 viewBox="1054 498.7 500 458.7" enable-background="new 1054 498.7 500 458.7" xml:space="preserve">
<path d="M1446,728c0,78.5-63.6,142.1-142.1,142.1c-78.4,0-141.9-63.5-141.9-142.1c0-78.4,63.6-142.1,141.9-142.1
	C1382.5,585.9,1446,649.6,1446,728z M1339.6,843.5c48.8-16.1,84.2-61.6,84.2-115.4c0-66.2-53.7-119.9-119.9-119.9
	c-66,0-119.7,53.7-119.7,119.9c0,53.8,35.5,99.5,84.5,115.4v-22.6c-35,7.9-42.3-16.4-42.3-16.4c-5.6-14.3-13.6-18-13.6-18
	c-11.2-7.6,0.8-7.5,0.8-7.5c12.3,0.8,18.9,12.6,18.9,12.6c11.7,20,30.9,12.8,36.9,9.9c1.8-8.7,8.6-10.5,10.8-11.2
	c-31.5-3.3-65.2-14.7-65.2-69.2c0-15.3,5.4-27.8,14.3-37.5c-1.4-3.6-6.2-17.8,1.4-37c0,0,11.8-3.7,38.4,14.3c11.1-3.1,23-4.6,35-4.7
	c11.8,0.1,23.7,1.7,35,4.7c26.6-18,38.3-14.3,38.3-14.3c7.6,19.3,2.9,33.4,1.4,37c9,9.7,14.4,22.2,14.4,37.5
	c0,54.5-33.7,65.8-65.2,69.1c5.7,3.9,11.7,11.2,11.7,25.3L1339.6,843.5L1339.6,843.5z"/>
</svg>
