<?xml version="1.0" encoding="utf-8"?>
<!-- Generator: Adobe Illustrator 18.1.1, SVG Export Plug-In . SVG Version: 6.00 Build 0)  -->
<svg version="1.1" id="Layer_1" xmlns="http://www.w3.org/2000/svg" xmlns:xlink="http://www.w3.org/1999/xlink" x="0px" y="0px"
	 viewBox="-526 982.7 500 458.7" enable-background="new -526 982.7 500 458.7" xml:space="preserve">
<g>
	<path fill-rule="evenodd" clip-rule="evenodd" d="M-276,1062.1c-84.9,0-153.7,68.8-153.7,153.7c0,67.9,44,125.5,105.1,145.9
		c7.7,1.4,10.5-3.3,10.5-7.4c0-3.7-0.1-15.8-0.2-28.6c-42.8,9.3-51.8-18.1-51.8-18.1c-7-17.8-17.1-22.5-17.1-22.5
		c-13.9-9.5,1.1-9.3,1.1-9.3c15.4,1.1,23.6,15.8,23.6,15.8c13.7,23.5,36,16.7,44.7,12.8c1.4-9.9,5.4-16.7,9.8-20.6
		c-34.1-3.9-70-17.1-70-76c0-16.8,6-30.5,15.8-41.3c-1.6-3.9-6.9-19.5,1.5-40.7c0,0,12.9-4.1,42.3,15.8c12.3-3.4,25.4-5.1,38.5-5.2
		c13.1,0.1,26.2,1.8,38.5,5.2c29.3-19.9,42.2-15.8,42.2-15.8c8.4,21.2,3.1,36.8,1.5,40.7c9.9,10.8,15.8,24.5,15.8,41.3
		c0,59-36,72-70.2,75.8c5.5,4.8,10.4,14.1,10.4,28.5c0,20.6-0.2,37.1-0.2,42.2c0,4.1,2.8,8.9,10.6,7.4c61-20.3,105-77.9,105-145.8
		C-122.3,1130.9-191.1,1062.1-276,1062.1z"/>
	<path d="M-371.5,1282.8c-0.3,0.8-1.5,1-2.6,0.5c-1.1-0.5-1.7-1.5-1.4-2.3c0.3-0.8,1.5-1,2.6-0.5
		C-371.7,1281-371.1,1282-371.5,1282.8L-371.5,1282.8z M-373.4,1281.4"/>
	<path d="M-365.3,1289.7c-0.7,0.7-2.2,0.4-3.1-0.7c-1-1.1-1.2-2.5-0.5-3.2c0.8-0.7,2.1-0.4,3.2,0.7
		C-364.7,1287.6-364.5,1289.1-365.3,1289.7L-365.3,1289.7z M-366.7,1288.2"/>
	<path d="M-359.2,1298.6c-0.9,0.7-2.5,0-3.4-1.3c-0.9-1.4-0.9-3,0-3.7c1-0.7,2.5-0.1,3.4,1.3
		C-358.2,1296.3-358.2,1297.9-359.2,1298.6L-359.2,1298.6z M-359.2,1298.6"/>
	<path d="M-350.9,1307.1c-0.8,0.9-2.6,0.7-3.9-0.6c-1.3-1.2-1.7-3-0.9-3.9c0.9-0.9,2.7-0.7,4,0.6
		C-350.4,1304.5-350,1306.2-350.9,1307.1L-350.9,1307.1z M-350.9,1307.1"/>
	<path d="M-339.4,1312.1c-0.4,1.2-2.1,1.8-3.8,1.2c-1.7-0.5-2.9-1.9-2.5-3.2c0.4-1.2,2.1-1.8,3.9-1.2
		C-340.2,1309.5-339.1,1310.9-339.4,1312.1L-339.4,1312.1z M-339.4,1312.1"/>
	<path d="M-326.9,1313c0,1.3-1.4,2.3-3.3,2.3c-1.8,0-3.3-1-3.3-2.2c0-1.3,1.4-2.3,3.3-2.4C-328.4,1310.8-326.9,1311.8-326.9,1313
		L-326.9,1313z M-326.9,1313"/>
	<path d="M-315.2,1311c0.2,1.2-1.1,2.5-2.9,2.8c-1.8,0.3-3.4-0.4-3.7-1.7c-0.2-1.3,1.1-2.5,2.9-2.9
		C-317,1309-315.4,1309.8-315.2,1311L-315.2,1311z M-315.2,1311"/>
</g>
</svg>
