<?xml version="1.0" encoding="utf-8"?>
<!-- Generator: Adobe Illustrator 18.1.1, SVG Export Plug-In . SVG Version: 6.00 Build 0)  -->
<svg version="1.1" id="Layer_1" xmlns="http://www.w3.org/2000/svg" xmlns:xlink="http://www.w3.org/1999/xlink" x="0px" y="0px"
	 viewBox="530 -490.3 500 458.7" enable-background="new 530 -490.3 500 458.7" xml:space="preserve">
<path d="M884.7-314.7c0.1,2.3,0.2,4.6,0.2,7c0,71.4-54.3,153.7-153.7,153.7c-30.5,0-58.9-8.9-82.8-24.3c4.2,0.5,8.5,0.8,12.9,0.8
	c25.3,0,48.6-8.6,67.1-23.1c-23.6-0.4-43.6-16-50.5-37.5c3.3,0.6,6.7,1,10.2,1c4.9,0,9.7-0.7,14.2-1.9c-24.7-5-43.3-26.8-43.3-53
	c0-0.2,0-0.5,0-0.7c7.3,4,15.6,6.5,24.5,6.8c-14.5-9.7-24-26.2-24-45c0-9.9,2.7-19.2,7.3-27.2c26.6,32.7,66.4,54.2,111.3,56.4
	c-0.9-4-1.4-8.1-1.4-12.3c0-29.8,24.2-54,54-54c15.5,0,29.6,6.6,39.4,17.1c12.3-2.4,23.9-6.9,34.3-13.1c-4,12.6-12.6,23.2-23.7,29.9
	c10.9-1.3,21.3-4.2,31-8.5l0,0l0,0c0,0,0,0,0,0C904.4-331.8,895.2-322.3,884.7-314.7z"/>
</svg>
