<?xml version="1.0" encoding="utf-8"?>
<!-- Generator: Adobe Illustrator 18.1.1, SVG Export Plug-In . SVG Version: 6.00 Build 0)  -->
<svg version="1.1" id="Layer_1" xmlns="http://www.w3.org/2000/svg" xmlns:xlink="http://www.w3.org/1999/xlink" x="0px" y="0px"
	 viewBox="-206.5 1.5 300 300" enable-background="new -206.5 1.5 300 300" xml:space="preserve">
<metadata><?xpacket begin="﻿" id="W5M0MpCehiHzreSzNTczkc9d"?>
<x:xmpmeta xmlns:x="adobe:ns:meta/" x:xmptk="Adobe XMP Core 5.6-c014 79.156821, 2014/08/29-03:07:50        ">
   <rdf:RDF xmlns:rdf="http://www.w3.org/1999/02/22-rdf-syntax-ns#">
      <rdf:Description rdf:about=""
            xmlns:dc="http://purl.org/dc/elements/1.1/"
            xmlns:xmp="http://ns.adobe.com/xap/1.0/"
            xmlns:xmpGImg="http://ns.adobe.com/xap/1.0/g/img/"
            xmlns:xmpMM="http://ns.adobe.com/xap/1.0/mm/"
            xmlns:stRef="http://ns.adobe.com/xap/1.0/sType/ResourceRef#"
            xmlns:stEvt="http://ns.adobe.com/xap/1.0/sType/ResourceEvent#"
            xmlns:xmpTPg="http://ns.adobe.com/xap/1.0/t/pg/"
            xmlns:stDim="http://ns.adobe.com/xap/1.0/sType/Dimensions#"
            xmlns:xmpG="http://ns.adobe.com/xap/1.0/g/">
         <dc:format>image/svg+xml</dc:format>
         <xmp:CreatorTool>Adobe Illustrator CC 2014 (Macintosh)</xmp:CreatorTool>
         <xmp:CreateDate>2015-04-12T02:35:18-04:00</xmp:CreateDate>
         <xmp:ModifyDate>2015-04-12T02:35:18-04:00</xmp:ModifyDate>
         <xmp:MetadataDate>2015-04-12T02:35:18-04:00</xmp:MetadataDate>
         <xmp:Thumbnails>
            <rdf:Alt>
               <rdf:li rdf:parseType="Resource">
                  <xmpGImg:width>256</xmpGImg:width>
                  <xmpGImg:height>112</xmpGImg:height>
                  <xmpGImg:format>JPEG</xmpGImg:format>
                  <xmpGImg:image>/9j/4AAQSkZJRgABAgEASABIAAD/7QAsUGhvdG9zaG9wIDMuMAA4QklNA+0AAAAAABAASAAAAAEA&#xA;AQBIAAAAAQAB/+4ADkFkb2JlAGTAAAAAAf/bAIQABgQEBAUEBgUFBgkGBQYJCwgGBggLDAoKCwoK&#xA;DBAMDAwMDAwQDA4PEA8ODBMTFBQTExwbGxscHx8fHx8fHx8fHwEHBwcNDA0YEBAYGhURFRofHx8f&#xA;Hx8fHx8fHx8fHx8fHx8fHx8fHx8fHx8fHx8fHx8fHx8fHx8fHx8fHx8fHx8f/8AAEQgAcAEAAwER&#xA;AAIRAQMRAf/EAaIAAAAHAQEBAQEAAAAAAAAAAAQFAwIGAQAHCAkKCwEAAgIDAQEBAQEAAAAAAAAA&#xA;AQACAwQFBgcICQoLEAACAQMDAgQCBgcDBAIGAnMBAgMRBAAFIRIxQVEGE2EicYEUMpGhBxWxQiPB&#xA;UtHhMxZi8CRygvElQzRTkqKyY3PCNUQnk6OzNhdUZHTD0uIIJoMJChgZhJRFRqS0VtNVKBry4/PE&#xA;1OT0ZXWFlaW1xdXl9WZ2hpamtsbW5vY3R1dnd4eXp7fH1+f3OEhYaHiImKi4yNjo+Ck5SVlpeYmZ&#xA;qbnJ2en5KjpKWmp6ipqqusra6voRAAICAQIDBQUEBQYECAMDbQEAAhEDBCESMUEFURNhIgZxgZEy&#xA;obHwFMHR4SNCFVJicvEzJDRDghaSUyWiY7LCB3PSNeJEgxdUkwgJChgZJjZFGidkdFU38qOzwygp&#xA;0+PzhJSktMTU5PRldYWVpbXF1eX1RlZmdoaWprbG1ub2R1dnd4eXp7fH1+f3OEhYaHiImKi4yNjo&#xA;+DlJWWl5iZmpucnZ6fkqOkpaanqKmqq6ytrq+v/aAAwDAQACEQMRAD8A9U4q7FXYq7FXYq7FXYq7&#xA;FXYq7FXYq7FXYq7FXYqhtQ1PTdNtWu9Ru4bK1QgNcXEixRgnYAu5Vd8VY7+YP5iaR5N8jXnm+VTq&#xA;FnAsZt47Z1Inad1SMLJ8ShSXqW8PHpir5C83f85cfmtrbyR6XLB5fsm2WO0jEk3HwaeYOa+6KuKv&#xA;L9X88+dNZcvq2vahfk9ri6mkA+QZiB9GKpHiqP03Xtc0tg+majdWLDcNbTSQmvzRlxV6H5X/AOcm&#xA;Pzj8vsirrjarbrStvqii6DU8ZWpP90mKvfPy+/5zG8oaxJHZebbNvL921FF6hM9mx/yiB6kVT4hg&#xA;O7Yq+gLK+sr+0ivLGeO6tJ1DwXELCSN1PRlZSQR8sVVsVdirsVdirsVdirsVdirsVdirsVdirsVd&#xA;irsVdirsVdirsVdirsVdirzrXv8AnID8r9C85L5R1HU2j1MOsU8ojZraGV6cUllGyn4hU9F/aIxV&#xA;4t/znFe3QufKVkJWFoUvJmgB+EyAxKHI7kKSB4VPjirFNBvbq4/5w68yRTytJHaa/HDbKxqI4ybS&#xA;UqvtzkZvmcVeCYq7FXYq7FXYq7FWf/lX+dXnL8udQV9MnN1o8j8rzRZ2Jt5QftFOvpSU6Ov0hhti&#xA;r7p/Lb8zPLH5g+X01jQ5jVTwvLGWgnt5f5JFBPXqrDYj6cVZZirsVdirsVdirsVdirsVdirsVdir&#xA;sVdirsVdirsVS/SPMfl7WvrH6H1S01L6o/pXX1OeOf0pP5JPTZuLbdDirA9b/wCcg/Iej/mTB5Bu&#xA;hdHU5ZYbaW8SNDaxT3IUxRuxcPvzFSFoK/OirL/OHnnyn5O05NR8y6lHptpLIIonkDuzuQTxRIw7&#xA;tsKmgxVMdH1jS9Z0y21TSrmO80+7QSW1zEeSOp7g/rxVGYq/OD86/wDybnm//tq3X/J04q9h/wCc&#xA;2rwXGt+Uwm8JsriaNtwSJZE6/QgxVivlZ3P/ADih5zjJPBddtGVewLfVgT9PEYq8TxV2KuxV2Kux&#xA;V2KuxVlH5c/mJ5h8g+ZoNe0WWjp8F3asf3VxASC8Ug8DTY9Qdxir9DfInnbRPOvley8xaPJytLtf&#xA;ijanOKVdpIpAOjIdvxGxxVP8VdirsVdirsVdirsVdirsVdirsVdirsVYF+df5nv+W/ko+YIrJdQu&#xA;ZLmK0t7d39NOcqs3JiASQFjOwxVbp/nk+avyTufN8dsbR7zR7y4NqW5cJIo5FYBwBUc4zQ06Yq+f&#xA;v+cIZwPNfmWDnQyWEL+nXY8JqVp7c/xxVhv5oX0Y/wCcoLq64nhBrljyXap9EwKafPjir03/AJzl&#xA;nYW/kyCg4yPqLk96oLYD/ieKpz+W2uXmnf8AOHl5eW0zW1xZ2WqR21xFUSK0lzNxYHswaXYjpirA&#xA;f+cK9Y1H/lYes6a11IbK50uW6kt2YlWuI7mBVkof2uEjCuKvIPzZJP5qecq/9XzUv+ouTFXr/wDz&#xA;mQR+lvJo7/ok7f7MYqxvynOrf84ueeIKHlHrNi5PajtCB/xDFXjOKuxV2KuxV2KuxV2KuxV7h/zi&#xA;p+aUnlXzunl2/mpoXmJ1hIY/DDen4YJRXpz/ALtvmCfs4q+5MVdirsVdirsVdirsVdirsVdirsVd&#xA;irD/ADN+bHkny15t0jypq940Os63w+pxiNmQCWQwxGRwKKHkUqPlvQYq8u/5zWkQflhpMZPxtrcL&#xA;KvchbS6BP/DDFVX8qrz0/wDnEG4mUiR7bRtdJUnukl2wU/RTFXl3/OE0qD8xdbhJ/ePpDuo9kuYA&#xA;f+JjFWDfmreRL/zkHrN0KtHDraFgOtYpEDAV91OKvWP+c5Z1a48mQUPKNNRcntRzbAf8QxVEeR7j&#xA;n/zhlrqtRRCl7GD48rgN+t6Yqwb/AJw2/wDJuTf9sq5/5Ow4q8x/NGZJ/wAzfN00f2Jda1F1rsaN&#xA;dyEYq9Q/5yyleXWfJksh5SSeXbZnbxJkck4qlHlH/wBZo8+/9tXTf+TiYq8fxV2KuxV2KuxV2Kux&#xA;V2Krkd0dXRirqQVYGhBHQg4q/SH8oPOh85/lxofmCRw93cW4jv6bf6TATFMaduToWHscVZjirsVd&#xA;irsVdirsVdirsVdirsVdir49/wCcl76SP/nIzyvJQN9Th0vgvyvZZKH6WxVmv/ObcyDyR5fgNeb6&#xA;mzr4US3cH/iYxVR/K2+Vf+cPdf4qSYrDWoHrsKyiTcfISYq86/5wunSP8179GBJm0W4RaeIubZ9/&#xA;oTFXnv5uXMcX5z+aLivNIdauWbiQf7uc8h89qYq9k/5zikQ6z5TjB+Nbe8Zl7gM8QB/4U4qp+TZ/&#xA;V/5wy80Jxp6F3JHWta1uLZ6/8PTFWIf84hEj85LcA0BsLsH3HEHFXmn5hf8AKfeZf+2rff8AUS+K&#xA;vTf+cpL2O41jySIweB8rWEyse6yvLTb/AGGKpR5MJ/6F9/MUdvr2jbf89mxV5TirsVdirsVdirsV&#xA;dirsVdir7C/5wk15rjyp5h0J3J/R97FdxqeyXcZSg9uVsT9Pvir6SxV2KuxV2KuxV2KuxVjfn38w&#xA;vLHkTSbfVfMU729nc3UVlE8aGQ+pKGapC9FVEZmPgNqmgKqZ+ZNesfL3l/Uddv8AkbLTLaW7uBGO&#xA;TlIULkKCRVjSg3xVKPy08/WHn3ybY+ZrK3ktIrvmr20pDNHJE5jdeS7MKrsdqjsMVR2k+c/Kur63&#xA;qeh6ZqcF1q2jMqalZxtV4i3Y7Uah2bjXidjQ7Yq+Mv8AnKm+ij/PWaWjUs4LH1KUqeKCT4d/BsVe&#xA;nf8AOcE4Xy/5WgpvJd3MnLw4RoKfTzxVLPywvnX/AJw/83VUERHUIF7bSpFufkZDirB/+cPJ/S/O&#xA;AJxr6+m3Uda0pQxvX/hKYq86/Nj/AMmn5y/7bmpf9RkmKvZv+c1Z1uPMPlWdQQsunSOoPUBpQd8V&#xA;Q3lC7Y/84Z+cxHVGh1eOJj4h59PJ/wCFkpirGf8AnE2R1/OzSlU0ElveK48R9XdqfeoxV5t50mef&#xA;zjrs705y6jdu1OlWncmmKvR/+ck/+Or5F/8AAN0r/ic+Kpd5KnLfkT+ZUFNo7rQnB71e4mH/ABpi&#xA;rzDFXYq7FXYq7FXYq7FXYq7FWR+UfzD85eT479fLWpPpp1JY47uSJUMjLESVCuysybsd1ocVS/Vf&#xA;NHmXV5Gk1bVrzUHavJrq4lmJr1+2zYqpadrmt6Y4k03ULmydfsvbTSREV32KFcVep+R/+cpvzV8t&#xA;Sxx316PMOnAjnbajV5ad+NyP3ob/AFyw9sVfW35V/nT5N/MexL6TMbbVYVDXmkXBAnjHQstNpI6/&#xA;tL9IB2xVnuKuxV5Frn5l61af85JeX/I8Vwq6Fe6TK9zblEqbthPMr8/tbJboFHufHFWEf85vXnDy&#xA;r5asv9/X003T/fMPHr/z2xV6B+cOt+t/zjtq+q8ifr2kW7cgdz9b9Jepp19TFWO/84a3v1j8pJ4f&#xA;+WPVrmHt+1FDL/zNxV5x/wA4wawJ/wDnIDza9apqcGoyrx3Bb69FIDU704lsVYB/zlNO0v55+YlL&#xA;BliWyRKdh9RgYj/gmOKvTP8AnM6/a40H8v2Deot1FeXBlPUn07Wh+n1MVSv8s7xo/wDnEPz8CeZT&#xA;UJYwhP2Vljsl/WxOKsT/AOcSp2j/ADq01AARNa3iNXsBAz7fSmKvO/zC/wCU+8y/9tW+/wCol8Ve&#xA;t/8AOXc63HmHyhOoIWXQIHUHqA0sh3xVS8pXyp/ziF52tQpLPrtvybsAzWLCn/InFUi/5xYmeP8A&#xA;PPy6i9JVvUf5Cxnf9ajFXnfmz/lKdZ/5jrn/AJPNirOPz1lllu/JDyOXY+TtENWNesLE/ia4qp+S&#xA;HQfkp+ZiFhzM2gELXcgXU4Jp7VGKvNsVdirsVdirsVdirsVdirsVdirsVdirsVR+ha7q+g6va6xo&#xA;909lqVk4ktrmM0ZWH4EEbEHYjY7Yq/Qb8lPzWsfzH8nRaooWHV7Qi31izU/3c1Kh1HX05R8S/SO2&#xA;Kpf+X35qX/mP81fPPlG5WFbTQHiGmGMESFU/dXPqEn4v3tCKAUr3xV4Z588xeh/zmVp0wekdrf6Z&#xA;Yc67AXEESP4bA3DVxVMP+c473lqHlCyB/uor6Yjev71oFFe3+6jTFWQfmRrXrf8AOHGksWq11YaR&#xA;aEkEktbyxV3Pf/R+uKof/nCzVVg8mebI33Syuo7phsNngIO//PHFXk3/ADirqLx/nlpAkYl76K9j&#xA;dttz9Wkm3r7x4qkn/ORM6zfnV5qdQQBdIm/jHDGh/FcVegf85UX0t15W/K12K8X0d5wF6cpYbXlT&#xA;rt8IxVAfl9epF/zit+Y6AcnW/tAw6Ck8trGDX2ocVSH/AJxYmeP88/LqL0lW9R/kLGd/1qMVee+b&#xA;3d/NmtO7Fna/uizE1JJmYkknFXqP/OUN2bjXfJbioifynp0qIe3qSTk/gBiqn5Xu4F/5xc852xJE&#xA;ra5ZcRTb4vSI3+UTYqlX/OM05g/PHyu4FSZLlKHwks5kJ/4bFXnerf8AHVvP+M8n/EzirOPzmvYb&#xA;q58m+lX9x5S0aF6inxJAa09t8VWeTP8AyU/5i/8Abm/6jHxV5/irsVdirsVdirsVdirsVdirsVdi&#xA;rsVdirsVeu/84veeZvLH5q6faPIV03zARpl3GSeJklP+jPTpyE3Fa9gzYqyz/nHTzUJ/+cktbuC+&#xA;3mM6rQVA5M8/1wbUG9IT2xV5z+aPmFk/PXX9ZUkmw11yjCv/AB5ThFpv/wAVeOKvQP8AnNS/Wf8A&#xA;MbR7ZHDxwaPHICGqOU1xP26fZRTiq/zfrZk/5w68nwlv3smrNaOoJHwwyXjg0NeQAVK++KqX/OLu&#xA;sDT/ACt+adSBw0P65Ugn/eaG58P+MvTFXnv5B3v1L85PKc381+kHY/36tD3/ANfFUP8AndO0/wCb&#xA;vm92YORqlzHUU6RyFANvDjTFWYfn9dNP5P8Ayo6hE8s26hCaiqJHGW/2XDFUP5Ivin/ON/5k2nCo&#xA;e+0j469OdyrdKf8AFP44qlv/ADjXI8f53+VmQ8SZp1JHg1pMpH0g4q8/1uWSbWr+WQ8pJLmZ3bYV&#xA;LSEk7Yq9I/5yCvTeal5Jk48UHk/R/THfi6SSfF7/AB4qs8uzRn/nHfzhDy/eLremMV9mRwP+IHFU&#xA;H/zjvOIPzp8quRUG6ZKDxkhkQH/hsVYBfTJPe3E6V4Syu6160ZiRXFWXfmj/AL0+Wf8AwHNK/wCT&#xA;GKqnk+Zx+Wvn+EfYeLSnbxql8AP+JnFWDYq7FXYq7FXYq7FXYq7FXYq7FXYq7FXYq7FUTp19Pp+o&#xA;Wt/bnjPaTRzxN4PGwdT94xV65/zjV5fuE/P/AE+0ZmB0Zr9rgjY/uoZYPxdxXFWC/mbp08H5o+aL&#xA;ADlKNZvY4+g5crl+B60FQRir0j/nMDTG0/8AMvTIi5kQ6HaBZDUk+nLNFvWu/wAFcVU/Mukyxf8A&#xA;OJXlK+qSs3mC4kpStAwuoq1HTeDv44qo/wDOPOlS3nlr805Yy1U8r3UKqrBavKjuoNfH0afLFWEf&#xA;kzaPdfmz5PiWtV1ezl232hnWU/gmKt/nNam2/NrzhGQRy1e8l+Lr++maT7vj2xVl357aW9p5R/Ku&#xA;dqn1/LMIDFuQp8MwArvsJ/4Yqs8kWMj/APOOX5k3XIBEvtI23qStwqn/AJPDFUt/5xttmuPzu8rR&#xA;rWqzTybHjtFayyHf5L9OKsB12F4Nb1CGT7cVzMjU3FVkIOKvRv8AnIGwey1DyREzBv8AnT9HCmlD&#xA;REkj3HbdDiqj5f09X/5x7823h5EprmmUp9kFI5V3/wCR/wCrFUN/zjxAZ/zp8qIDxpdtJXr/AHcL&#xA;vT6eOKsAvIBb3k8APIRSOgY9SFYjFWZfmpay28/lYSKyiXy1pUqciSSrwk1Fe3hiq7yfAW/LP8wJ&#xA;67Rx6UhXuS98DX/hMVYLirsVdirsVdirsVdirsVdirsVdirsVdirsVRekadNqeq2WmwAma9nit4g&#xA;BU8pXCLt82xV9cfkd5UNl/zkd+Zl4Y6R2TzLHtsv6SuhcpSoFPgjIHtiry78x/Lpk/5yyGllf3d9&#xA;remSMd6FLgQSyEfZrTk3Q4qyT/nN+y4eZ/LN7/v+ynhrvX9zKG+X+7sVTXz9ono/84beXARQ24sr&#xA;0VJ/4+ZXNen/AC8Yqhv+cQNGF35M/MJmWv1+GGy3AYUEFxUcev8Au7fxxV5Z/wA40WP1z87vLEZF&#xA;VikuJ2NCQPRtZZAT4fEo+nFVP/nJG0+qfnb5pipTlPDNStf761il/wCN8Vekf85Z6R9S8n/lkAtD&#xA;a2E1pISd/ggtOIoNtqN0xVD/AJZ6Z6n/ADiV+YMzfCZb5mXkKgrbJaSAj/ZVGKsX/wCcS7UTfnXp&#xA;khpW2tryUVFTUwNHt4H95irz38xLb6p+YHme14hPQ1a+i4DoOFy60Hypir1z/nL3TGsvMPlHkpBT&#xA;QYbUs2zEwSvsw7U54qoeU7At/wA4h+dbvlTjrtuSpGxVHsl2+mX8MVSH/nFm2M355eXmopWFb2Rg&#xA;3/MFMop7hmBxV575ugNv5r1q3KCMw39zGYxQBeMzCgpttTFXoX/OQlgtne+REUswPk3RwXOwJjEs&#xA;e30IMVQvkq2p+Rn5k3JoeVzoUa/zDjcSs30HkMVeY4q7FXYq7FXYq7FXYq7FXYq7FXYq7FXYq7FX&#xA;s/8Azip5Bm8y/mdbarNGTpflul9PIR8JuBUWqA/zep+8+SHFX3RHa2sU008UKJPcFTPKqgPIUHFS&#xA;7AVai7CuKvnPzX5dEv8AzmZ5akK/BPp66jIdv+PeC5jU7H+eBRiqB/5zjs+eleUb3/fM97D1/wB/&#xA;JC3T/njirNvza0Qw/wDOLM+lcSGsNH0teI6j6o9ux+1v0jxVJ/8AnCuyEX5ZapdkUe51eUA7bpHb&#xA;wAe/2mbFXkf/ADino5i/PWaErvpVrfEgmpXiwt+q7f7sxVA/85VaYX/PS8jjoH1CGxIIX9oxLCK0&#xA;+19jFXq//ObNjGvkzyzOiqq29/JAg7hZICaD2/dYqp/lNpYP/OIXmUiim5tNZuairEmKNl3B7n0a&#xA;YqwD/nC61Mv5qahMQeNvo87VHTk1xbqAfoJ+7FWA/mzpZb87fMth6ZH1rW5vgU7n6zPyqOu7c64q&#xA;9f8A+c4rYLrHlK54kGW3vI+fY+m8TU+j1MVW+TdPLf8AOGPmai+p61zLccSNh6Vzb7ivh6VcVYf/&#xA;AM4g2xm/OSCTiG+r2F3ISf2aqsdR/wAHTFXnP5nwC3/MrzZADyEWs6ggY9SFupBXFXq//OW1g1rq&#xA;HkjkRyXQYoCijYGFux/2fhiqSeUrbj/zjJ57uaL+91fTouX7R9N42ofb95tirx3FXYq7FXYq7FXY&#xA;q7FXYq7FXYq7FXYq7FU68n+T/MHm/wAwW2g6DbG6v7o7DokaD7Usrfsovc/xxV+g/wCU35Z6V+Xf&#xA;k+20GyImuSfX1O+pQz3LAB3p2UU4oOyjxqSqzPFUI+kaXJqkWqvaQtqcETW8N6Y1MyQuQzRrJTkF&#xA;JUGlcVed/n/+VGpfmT5X03SdNuorS5tNRiuZJJ+XH0CjxS0Cg1ZRIGA70p3xVlH5keWrjX/y71/y&#xA;/p8aG6vdPnt7KJqKnq+mfSWp2X4gN+2Ksc/5x38k615O/K3T9K1qH6tqkks11cW3JXMfrPVFYrty&#xA;4BaipocVYN+Rv5T+a/K350+d9c1Sw+r6VMLiDTbsMOEyXd0lynpgHcCOMcv5Tt44qkv59/lr5s13&#xA;8+/KWpaZpF3e6RNHYpeX0MbNBCYLyRpvVkUcYwIirfF17VxVmf8Azlr5V1vzF+V8CaNZTX91p+pQ&#xA;3kkFtGZZfREM0TEItWIBlUmgO3tviqaflT5M1my/5x3tPK97bSWmrXWm38b2068JEkvnndFdWpxI&#xA;EwqG6d8VeZ/84g/l35w8v+YvMOp6/ot3pUf1aOzga8ieAyOZeb+mrheaj0x8Q298VY1+Yn5Tedb7&#xA;/nJYXNrod1No1/qdnejUEjkNqIF9I3DvOBxTgQ1QTXw6jFWe/wDOYvkXzP5j0ny1f6Fptzqh0ya7&#xA;iuYbONp5FW6EJVvTjDORWClQNsVTbyd+W/mWP/nFm48pXFnJD5gvbG9kTT5CI5BLLNJNBE3LZWZe&#xA;FQ1KE0NMVeff84h/lx5w0nz5qut63o11ptlb6fLZxyXkUluzXMk8RoiyBS/FIn5HoNsVYP8Am3+T&#xA;X5jXv5y63b6doF1cQazqElzZXsMLm1KXT8+bzqvppxL/ALzkdu+KvWv+cvPy181a9a+W9S8t6XPq&#xA;cGmLPaXNtZxvPcIsnpmJhGgaR1+BgSBt364qk3lv8nPPUf8Azi3r+iyaXJF5g1PUF1S30x143Jgh&#xA;NuODIdxIRA7Kh33A6nFXzwfy7/MBSQfLOrAjYg2NzUH/AIDFWv8AlXvn7/qWtV/6Qbn/AJoxV3/K&#xA;vfP3/Utar/0g3P8AzRirv+Ve+fv+pa1X/pBuf+aMVd/yr3z9/wBS1qv/AEg3P/NGKu/5V75+/wCp&#xA;a1X/AKQbn/mjFXf8q98/f9S1qv8A0g3P/NGKu/5V75+/6lrVf+kG5/5oxV3/ACr3z9/1LWq/9INz&#xA;/wA0Yq7/AJV75+/6lrVf+kG5/wCaMVd/yr3z9/1LWq/9INz/AM0YqibD8q/zMv5fStPKmrSNsCfq&#xA;U6qK9OTMgVenc4q9T8j/APOHn5h6xLHN5llh8u2B3dGZbm7I/wAmOJvTWv8AlPUeGKvqv8uvyt8n&#xA;fl/pRsPL1n6by0N3fy0e6nYdDLJQbDsqgKOw64qy3FX/2Q==</xmpGImg:image>
               </rdf:li>
            </rdf:Alt>
         </xmp:Thumbnails>
         <xmpMM:DocumentID>xmp.did:6143625b-0a7c-4b48-bf3f-b8bb095c2faf</xmpMM:DocumentID>
         <xmpMM:InstanceID>xmp.iid:6143625b-0a7c-4b48-bf3f-b8bb095c2faf</xmpMM:InstanceID>
         <xmpMM:DerivedFrom rdf:parseType="Resource">
            <stRef:instanceID>uuid:981E3EA93164DF118E6D90B556E55533</stRef:instanceID>
            <stRef:documentID>uuid:971E3EA93164DF118E6D90B556E55533</stRef:documentID>
            <stRef:originalDocumentID>uuid:971E3EA93164DF118E6D90B556E55533</stRef:originalDocumentID>
         </xmpMM:DerivedFrom>
         <xmpMM:OriginalDocumentID>uuid:971E3EA93164DF118E6D90B556E55533</xmpMM:OriginalDocumentID>
         <xmpMM:History>
            <rdf:Seq>
               <rdf:li rdf:parseType="Resource">
                  <stEvt:action>saved</stEvt:action>
                  <stEvt:instanceID>xmp.iid:6143625b-0a7c-4b48-bf3f-b8bb095c2faf</stEvt:instanceID>
                  <stEvt:when>2015-04-12T02:35:18-04:00</stEvt:when>
                  <stEvt:softwareAgent>Adobe Illustrator CC 2014 (Macintosh)</stEvt:softwareAgent>
                  <stEvt:changed>/</stEvt:changed>
               </rdf:li>
            </rdf:Seq>
         </xmpMM:History>
         <xmpTPg:MaxPageSize rdf:parseType="Resource">
            <stDim:w>300.000000</stDim:w>
            <stDim:h>300.000000</stDim:h>
            <stDim:unit>Pixels</stDim:unit>
         </xmpTPg:MaxPageSize>
         <xmpTPg:NPages>1</xmpTPg:NPages>
         <xmpTPg:HasVisibleTransparency>False</xmpTPg:HasVisibleTransparency>
         <xmpTPg:HasVisibleOverprint>False</xmpTPg:HasVisibleOverprint>
         <xmpTPg:PlateNames>
            <rdf:Seq>
               <rdf:li>Cyan</rdf:li>
               <rdf:li>Magenta</rdf:li>
               <rdf:li>Yellow</rdf:li>
               <rdf:li>Black</rdf:li>
            </rdf:Seq>
         </xmpTPg:PlateNames>
         <xmpTPg:SwatchGroups>
            <rdf:Seq>
               <rdf:li rdf:parseType="Resource">
                  <xmpG:groupName>Default Swatch Group</xmpG:groupName>
                  <xmpG:groupType>0</xmpG:groupType>
               </rdf:li>
            </rdf:Seq>
         </xmpTPg:SwatchGroups>
      </rdf:Description>
   </rdf:RDF>
</x:xmpmeta>
                                                                                                    
                                                                                                    
                                                                                                    
                                                                                                    
                                                                                                    
                                                                                                    
                                                                                                    
                                                                                                    
                                                                                                    
                                                                                                    
                                                                                                    
                                                                                                    
                                                                                                    
                                                                                                    
                                                                                                    
                                                                                                    
                                                                                                    
                                                                                                    
                                                                                                    
                                                                                                    
                           
<?xpacket end="w"?>
	</metadata>
<path d="M-176.6,162c-0.5,0-0.9,0.4-1,1l-1.8,13.7l1.8,13.4c0.1,0.6,0.5,1,1,1c0.5,0,0.9-0.4,1-1l0,0v0c0,0,0,0,0,0l2.1-13.4
	l-2.1-13.7C-175.7,162.4-176.1,162-176.6,162z M-166.5,154.5c-0.1-0.6-0.5-1-1-1c-0.5,0-1,0.4-1,1c0,0-2.4,22.1-2.4,22.1l2.4,21.6
	c0.1,0.6,0.5,1,1,1c0.5,0,0.9-0.4,1-1l2.7-21.6L-166.5,154.5z M-128.4,134.1c-1,0-1.8,0.8-1.9,1.8l-1.9,40.6l1.9,26.2
	c0.1,1,0.9,1.8,1.9,1.8c1,0,1.8-0.8,1.9-1.8v0l2.2-26.2l-2.2-40.6C-126.6,135-127.5,134.1-128.4,134.1z M-148.1,148.3
	c-0.8,0-1.4,0.6-1.4,1.4l-2.2,26.9l2.2,26c0.1,0.8,0.7,1.4,1.4,1.4c0.8,0,1.4-0.6,1.4-1.4l2.5-26l-2.5-26.9
	C-146.8,148.9-147.4,148.3-148.1,148.3z M-108.4,204.7c1.2,0,2.2-1,2.3-2.3l1.9-25.8l-1.9-54.1c-0.1-1.3-1-2.3-2.3-2.3
	c-1.2,0-2.2,1-2.3,2.3c0,0-1.7,54.1-1.7,54.1l1.7,25.8C-110.7,203.7-109.6,204.7-108.4,204.7z M-67.4,204.8c1.7,0,3.1-1.4,3.1-3.1v0
	v0l1.3-25.1l-1.3-62.4c0-1.7-1.4-3.1-3.1-3.1c-1.7,0-3.1,1.4-3.1,3.1l-1.2,62.4c0,0,1.2,25.1,1.2,25.1
	C-70.5,203.4-69.1,204.8-67.4,204.8z M-88.1,204.7c1.5,0,2.7-1.2,2.7-2.7v0l1.6-25.4l-1.6-54.5c0-1.5-1.2-2.7-2.7-2.7
	c-1.5,0-2.7,1.2-2.7,2.7l-1.4,54.5l1.4,25.4C-90.7,203.5-89.6,204.7-88.1,204.7z M-138.3,204.5c0.9,0,1.6-0.7,1.6-1.6l2.3-26.3
	l-2.3-25c-0.1-0.9-0.8-1.6-1.6-1.6c-0.9,0-1.6,0.7-1.7,1.6l-2,25l2,26.2C-139.9,203.8-139.2,204.5-138.3,204.5z M-157.9,203
	c0.6,0,1.2-0.5,1.2-1.2l2.6-25.2l-2.6-26.2c-0.1-0.7-0.6-1.2-1.2-1.2c-0.6,0-1.2,0.5-1.2,1.2c0,0-2.3,26.2-2.3,26.2l2.3,25.2
	C-159,202.5-158.5,203-157.9,203z M-77.8,121.2c-1.6,0-2.9,1.3-2.9,2.9l-1.3,52.5l1.3,25.2c0,1.6,1.3,2.9,2.9,2.9
	c1.6,0,2.9-1.3,2.9-2.9v0l1.5-25.2l-1.5-52.5C-74.9,122.5-76.2,121.2-77.8,121.2z M-118.5,204.7c1.1,0,2-0.9,2.1-2.1l2-26.1l-2-49.9
	c-0.1-1.2-1-2.1-2.1-2.1c-1.1,0-2,0.9-2.1,2.1c0,0-1.8,49.9-1.8,49.9l1.8,26.1C-120.5,203.8-119.6,204.7-118.5,204.7z M-95.8,202.3
	L-95.8,202.3l1.7-25.7l-1.7-55.9c0-1.4-1.1-2.5-2.5-2.5c-1.4,0-2.5,1.1-2.5,2.5l-1.5,55.9l1.6,25.7c0,1.4,1.1,2.5,2.5,2.5
	C-96.9,204.7-95.8,203.6-95.8,202.3L-95.8,202.3z M36.2,144.4c-4.1,0-8.1,0.8-11.7,2.3c-2.4-27.2-25.3-48.6-53.1-48.6
	c-6.8,0-13.5,1.3-19.3,3.6c-2.3,0.9-2.9,1.8-2.9,3.6v96c0,1.9,1.5,3.4,3.3,3.6c0.1,0,83.3,0.1,83.8,0.1c16.7,0,30.2-13.5,30.2-30.2
	S52.9,144.4,36.2,144.4z M-57.1,105.2c-1.8,0-3.3,1.5-3.3,3.3l-1.4,68.1l1.4,24.7c0,1.8,1.5,3.3,3.3,3.3c1.8,0,3.3-1.5,3.3-3.3v0
	l1.5-24.7l-1.5-68.1C-53.8,106.7-55.3,105.2-57.1,105.2z"/>
</svg>
