<?xml version="1.0" encoding="utf-8"?>
<!-- Generator: Adobe Illustrator 18.1.1, SVG Export Plug-In . SVG Version: 6.00 Build 0)  -->
<svg version="1.1" id="Layer_1" xmlns="http://www.w3.org/2000/svg" xmlns:xlink="http://www.w3.org/1999/xlink" x="0px" y="0px"
	 viewBox="-526 -490.3 500 458.7" enable-background="new -526 -490.3 500 458.7" xml:space="preserve">
<path id="instagram" d="M-191.4-372h-169.2c-14.6,0-26.4,11.8-26.4,26.3v169.3c0,14.5,11.8,26.3,26.4,26.3h169.2
	c14.6,0,26.4-11.8,26.4-26.3v-169.3C-165-360.2-176.8-372-191.4-372z M-232.8-340.5c0-3.4,2.8-6.2,6.2-6.2h30c3.4,0,6.2,2.8,6.2,6.2
	v29.9c0,3.4-2.8,6.2-6.2,6.2h-30c-3.4,0-6.2-2.8-6.2-6.2V-340.5z M-275.7-303.3c23.6,0,42.7,19.1,42.7,42.6
	c0,23.5-19.1,42.6-42.7,42.6s-42.7-19.1-42.7-42.6C-318.4-284.2-299.3-303.3-275.7-303.3z M-189.8-182c0,3.4-2.8,6.2-6.2,6.2h-159.4
	c-3.4,0-6.2-2.8-6.2-6.2v-96.5h20.8c-1.6,5.7-2.4,11.6-2.4,17.8c0,37.1,30.3,67.4,67.5,67.4c37.2,0,67.5-30.2,67.5-67.4
	c0-6.2-0.8-12.1-2.4-17.8h20.8L-189.8-182L-189.8-182z"/>
</svg>
