<svg xmlns="http://www.w3.org/2000/svg" viewBox="0 0 844 317"><g fill="none" stroke="#C6D6D8" stroke-miterlimit="10"><path d="M490.7-27.1c18.7 46.7 37.5 93.4 56.2 140.2M515.9-6.2c16.3 49.3 32.6 98.7 48.9 148M541.2 1.8c13.9 53.2 27.7 106.4 41.6 159.7M565.4-.8c11.5 57.9 23 115.9 34.5 173.8M590.6-12.4c9.1 63.7 18.1 127.4 27.2 191.1M615.8-31.2c6.6 70.2 13.3 140.3 19.9 210.5M641.1-55.2c4.2 77.1 8.4 154.3 12.6 231.4M665.3-81.4c1.9 84.1 3.7 168.3 5.6 252.4M690.5-110.1l-1.8 274.7M715.7-138.4c-3 98.9-6 197.9-9.1 296.8M741-164.3C735.5-58.2 730.1 47.9 724.6 154M767.2-184.9l-23.7 338.4M795.4-196c-10.2 118.7-20.5 237.4-30.7 356.1M826.4-198.1C813.7-74 801 50.1 788.4 174.1M857.3-190.2C842.2-61.7 827.1 66.7 812 195.2M886.3-172.2C868.7-40.5 851.2 91.2 833.6 223M502.8-15.3c17.6 47.8 35.1 95.6 52.7 143.4M528.1-.8c15.1 51.1 30.2 102.1 45.4 153.2M553.3 1.7c12.7 55.5 25.4 110.9 38 166.4M578.5-5.8C588.7 55 599 115.9 609.2 176.7M602.7-20.6c7.9 66.7 15.8 133.5 23.7 200.2M628-42.2c5.5 73.5 10.9 146.9 16.4 220.4M653.2-68c3 80.6 6 161.2 9.1 241.8M678.4-96.3l1.8 263.9M703.6-125c-1.9 95.4-3.7 190.8-5.6 286.2M727.9-151.2L715.3 156M753.1-175.2c-6.6 109.4-13.3 218.7-19.9 328.1M781-191.5C771.9-75.7 762.9 40.2 753.8 156M811.4-198.3l-34.5 364.8M841.4-195.5c-13.9 126.3-27.7 252.6-41.6 378.9M871.6-182.9l-48.9 390.6M898.9-160c-18.7 132.8-37.5 265.6-56.2 398.4"/><g><path d="M898.5-161c-35-34.6-82.6-49.7-127.3-26.5-34.5 17.9-61.6 55.1-87.3 84.6-27.4 31.3-55.1 65.4-89.7 87.9C556.6 9.5 522 4.5 490.1-27.8"/><path d="M894.9-135.1c-33.4-34.1-78.7-51.4-123.1-31.1-34.8 15.9-62 52.2-87.8 80.7-27.2 30.1-55.1 63.8-89.8 84.2-37.5 22.1-70.3 14-100.3-17.5"/><path d="M891.2-109.2c-31.6-33.4-75.1-52.9-119-35.7-35 13.7-62.6 49.5-88.2 76.9-26.3 28.1-53.1 59.2-86.3 78.2C559.7 32 527 22.4 497.5-9.6"/><path d="M887.7-84.3c-31.2-34-75-55.4-119.3-38.3-33 12.7-59.7 46-84.4 71.4-25.3 26.1-51.2 54.9-82.7 72.5C562.7 42.7 530.1 31.8 501-.8"/><path d="M884.1-58.3c-30.7-34.7-74.6-57.9-119.5-41.1-31 11.6-57 42.5-80.5 65.8-25.4 25-51.3 52.8-83 68.6C563 53.9 532 40 504.7 8.4"/><path d="M880.4-32.4C851.2-66.5 809.3-91.5 765-77.8c-31.3 9.7-57.2 39.1-81 61.6-25.2 23.8-51.4 51.1-83.2 64.6-37.4 16-67-.4-92.5-31"/><path d="M876.8-6.5C849-39.9 809.1-66.6 765.5-56.2c-31.4 7.5-57.6 36.1-81.5 57.5-24.3 21.8-49.4 46.6-79.6 58.9-38 15.5-67.5-2.7-92.5-33.7"/><path d="M873.3 18.4C846-15.5 805.7-44.5 761.7-34.2 732.1-27.3 707-1.5 684 18.1c-23.3 19.9-47.5 42.6-76 53.5-38.7 14.8-67.8-4.7-92.5-36.3"/><path d="M870.5 45.6c-26.8-35.1-66.8-66.2-111.7-57.3-27.6 5.5-52.1 29.1-73.9 46.6-23.5 18.9-47.7 40.3-76.3 49.6-37.7 12.4-65.3-8.5-88.6-38.9"/><path d="M866.8 71.5C841.2 36.7 803.5 5 759.3 10.4c-27.8 3.4-52.3 25.4-74.4 42.1-23.3 17.6-48.1 38.3-76.5 45.3-36.7 9.2-63.1-13.9-84.7-43.1"/><path d="M863.1 97.5C838 62.1 800 28.1 755.4 32.9c-26 2.8-49.3 22.3-70.5 37.1-22.4 15.7-46 34.1-72.9 39.9-37.4 8.2-63.4-16.2-84.7-46.1"/><path d="M859.5 123.4c-24.4-35.5-61.3-70.9-105.7-68.3-25.1 1.5-48.1 19-68.9 32.5-22 14.2-45.2 30.8-71.2 35-37.2 6.1-62.3-19.8-82.7-49.6M856 148.3c-23.3-35.1-58.5-71.3-101.7-72-25-.4-48.2 15.6-69.4 28.1-21.1 12.5-43.3 26.8-67.7 30.1-37.5 5.1-62.7-22.5-82.7-52.8"/><path d="M852.3 174.3c-23-35.9-58.2-74.1-102-75.8-23.1-.9-45.4 12.9-65.5 23.5-21.3 11.2-43.6 24.1-67.9 25.4-36.4 1.9-59.9-26.8-78.8-56.5"/><path d="M848.6 200.2c-22.4-36.2-56.5-75.3-99.9-79.5-22.2-2.1-44 9.7-63.9 18.9-20.9 9.7-42.9 20.8-66.2 20.5-36-.4-58.7-30.3-76.9-60"/><path d="M844.9 226.2c-21.8-36.5-53.5-74.6-95.7-82.7-22.3-4.3-43.9 5.6-64.4 13.7-21 8.3-43.4 18-66.3 15.5-34.6-3.7-55.9-34.4-73.1-63.5M896.8-148.6c-34.4-34.6-81.6-50.8-126.3-28.3-34.1 17.2-61 53.6-86.5 82.3C656.8-64 629.4-30.7 595.1-9c-37.7 23.9-71.9 17.9-103.2-14.4"/><path d="M893.1-122.7c-32.8-34.1-77.8-52.4-122.2-32.8-34.4 15.1-61.5 50.7-87 78.4-27 29.3-54.6 62.2-89 81.9-37.6 21.4-70 12.3-99.4-19.1"/><path d="M889.5-96.7c-31.1-33.4-74.2-53.8-118.1-37.4-34.5 12.9-62 47.9-87.4 74.5-26.1 27.4-52.7 57.6-85.4 75.9-38 21.1-70.3 10.5-99.3-21.5"/><path d="M885.8-70.8c-31.3-34.7-75.6-57-120.5-39.3-31.4 12.3-57.5 44.1-81.3 68-25.6 25.8-51.7 54.3-83.8 70.9-38.1 19.7-69.5 6.8-97.3-24.9"/><path d="M882.3-45.9C852.5-80 810.2-104 765.9-89.4c-31.8 10.5-57.8 40.8-81.9 64.1-25.4 24.6-51.9 52.8-84.1 67.2-37.5 16.8-67.4 1.4-93.5-29.3"/><path d="M878.7-20C850.4-53.4 810-79.2 766.4-67.8c-31.9 8.3-58.3 37.8-82.4 60-24.6 22.7-49.9 48.3-80.4 61.4-38 16.4-67.9-.7-93.5-31.9"/><path d="M875 6c-27.7-33.9-68.5-62.1-112.6-50.9-30 7.6-55.3 34.3-78.4 54.6-23.5 20.7-47.9 44.1-76.8 55.7-38.7 15.6-68.2-2.8-93.4-34.6"/><path d="M871.4 31.9c-27.4-34.7-68-64.5-112.8-54C730.6-15.6 706 9 684 27.2c-23.6 19.6-48.1 41.8-77 51.6-38.1 12.9-66-8.1-89.5-38.8"/><path d="M868.6 59.1C842.3 23.9 802.8-7.9 758-.1c-27.1 4.7-51.5 27.4-73 44.2-23.2 18.1-47.3 38.6-75.4 47.1-37.6 11.3-64.9-10.5-87.6-40.8"/><path d="M865 84c-25.2-34.9-62.5-67.3-106.5-62.9-27.3 2.7-51.7 23.8-73.6 39.8-23.1 16.9-47.6 36.7-75.6 42.9-36.6 8.2-62.7-15.6-83.8-44.7M861.4 109.9c-24.8-35.4-62.2-70.1-106.8-66.3-25.5 2.2-48.7 20.7-69.7 34.9-22.2 15-45.7 32.5-72 37.6-37.3 7.2-62.9-17.9-83.7-47.8"/><path d="M857.7 135.9c-23.6-35-59.3-70.6-102.7-70.2-25.4.2-48.9 17.3-70.2 30.4-21.3 13.2-43.7 28.3-68.5 32.4-37.7 6.2-63.2-20.7-83.7-51M854 161.8c-23.3-35.7-59-73.4-102.9-74-23.5-.3-46 14.5-66.3 25.8-21.5 12-44 25.7-68.7 27.7-36.6 3-60.5-25.1-79.8-54.8"/><path d="M850.5 186.7c-22.7-36-57.4-74.7-101-77.6-22.7-1.5-44.7 11.4-64.7 21.3-21.1 10.5-43.3 22.5-67.1 23-36.2.8-59.4-28.5-77.9-58.2"/><path d="M846.9 212.7c-22.1-36.3-54.3-74-96.8-80.8-22.7-3.7-44.6 7.3-65.3 16.2-21.2 9.2-43.8 19.8-67.2 18.1-34.9-2.5-56.6-32.7-74.1-61.7"/><path d="M843.2 238.6c-21.5-36.8-52.8-75.2-94.7-84.5-21.8-4.8-43.2 4-63.6 11.4-20.9 7.6-43 16.3-65.5 13.1-34.3-4.9-55.3-35.9-72.2-65.1"/></g></g></svg>