<svg xmlns="http://www.w3.org/2000/svg" viewBox="0 0 300 300"><g fill="none" stroke="#C6D6D8" stroke-miterlimit="10"><path d="M-74.3-35c21.7 50.6 43.4 101.3 65 151.9M-45.1-12.3C-26.2 41.1-7.4 94.6 11.5 148.1M-15.9-3.6c16 57.7 32.1 115.3 48.1 173M12.2-6.5c13.3 62.8 26.7 125.5 40 188.3M41.4-19l31.5 207M70.6-39.4c7.7 76 15.4 152 23 228M99.8-65.4c4.9 83.6 9.7 167.1 14.6 250.7M127.8-93.8c2.1 91.1 4.3 182.3 6.4 273.4M157.1-124.9c-.7 99.2-1.4 198.4-2 297.5M186.3-155.5c-3.5 107.2-7 214.3-10.5 321.5M215.5-183.6c-6.3 114.9-12.7 229.8-19 344.7M245.8-205.9c-9.1 122.2-18.3 244.4-27.4 366.6M278.5-218c-11.9 128.6-23.7 257.2-35.6 385.8M314.4-220.2c-14.7 134.4-29.3 268.8-44 403.2M350.2-211.7c-17.5 139.2-35 278.4-52.5 417.5M383.8-192.2c-20.3 142.7-40.7 285.4-61 428.1M-60.3-22.2C-40 29.6-19.6 81.4.7 133.2M-31.1-6.5c17.5 55.3 35 110.6 52.5 166M-1.9-3.8l44.1 180.3M27.3-11.9C39.2 54 51.1 119.9 62.9 185.8M55.4-28c9.1 72.3 18.3 144.6 27.4 216.9M84.6-51.3c6.3 79.6 12.7 159.2 19 238.7M113.8-79.3c3.5 87.3 7 174.6 10.5 262M143-109.9c.7 95.3 1.4 190.6 2 285.9M172.3-141.1C170.1-37.7 168 65.7 165.8 169M200.3-169.4c-4.9 110.9-9.7 221.9-14.6 332.8M229.6-195.4c-7.7 118.5-15.4 237-23 355.5M261.8-213.1l-31.5 376.5M297.1-220.4c-13.3 131.7-26.7 263.5-40 395.2M331.8-217.5c-16 136.8-32.1 273.7-48.1 410.5M366.7-203.7c-18.9 141-37.7 282.1-56.6 423.1M398.4-178.9C376.7-35 355 108.8 333.4 252.7"/><g><path d="M397.9-180.1c-40.5-37.5-95.7-53.9-147.4-28.7-39.9 19.4-71.3 59.7-101.1 91.6-31.7 34-63.7 70.8-103.8 95.2C2 4.7-38-.7-75-35.8"/><path d="M393.7-152c-38.6-37-91.2-55.7-142.6-33.7-40.3 17.2-71.8 56.6-101.6 87.4C117.9-65.6 85.7-29.1 45.4-7 2 17-36 8.2-70.7-25.9"/><path d="M389.5-123.9c-36.6-36.2-87-57.3-137.9-38.7-40.4 14.8-72.4 53.6-102.1 83.3C119-48.8 88-15.2 49.6 5.5 5.6 29.1-32.3 18.7-66.5-16"/><path d="M385.4-96.9c-36.1-36.8-86.9-60-138.2-41.5-38.2 13.8-69.1 49.8-97.7 77.3-29.3 28.3-59.3 59.6-95.8 78.5C9.1 40.6-28.7 28.8-62.4-6.5"/><path d="M381.2-68.8c-35.6-37.6-86.4-62.7-138.4-44.5-35.9 12.6-66 46.1-93.2 71.3-29.4 27-59.5 57.1-96.2 74.2-44.1 20.5-80 5.4-111.6-28.9"/><path d="M377-40.7c-33.9-37-82.3-64-133.6-49.2-36.3 10.5-66.2 42.4-93.8 66.8-29.1 25.8-59.6 55.3-96.3 70-43.4 17.2-77.7-.5-107.2-33.7"/><path d="M372.7-12.7c-32.1-36.2-78.4-65.1-128.9-53.8-36.3 8.1-66.7 39.1-94.4 62.3-28.1 23.7-57.3 50.5-92.1 63.8-44 16.8-78.2-2.9-107.1-36.5"/><path d="M368.7 14.3c-31.5-36.7-78.3-68.2-129.2-57-34.2 7.5-63.3 35.4-89.9 56.7-27 21.6-55 46.1-88 57.9-44.8 16-78.5-5-107.1-39.4"/><path d="M365.5 43.8c-31-38-77.3-71.7-129.4-62-32 5.9-60.3 31.5-85.5 50.5C123.4 52.7 95.3 75.9 62.2 86 18.6 99.4-13.4 76.7-40.4 43.8"/><path d="M361.2 71.9C331.5 34.2 287.9-.2 236.7 5.6c-32.2 3.7-60.6 27.5-86.2 45.6-27 19.1-55.6 41.4-88.6 49.1-42.5 9.9-73.1-15-98.1-46.7"/><path d="M357 100c-29.2-38.3-73.1-75.2-124.8-70-30.1 3.1-57.1 24.1-81.7 40.2-26 17.1-53.3 36.9-84.4 43.3C22.8 122.4-7.3 96-32 63.5"/><path d="M352.7 128.1c-28.3-38.5-71-76.8-122.4-74-29 1.6-55.6 20.6-79.8 35.2-25.5 15.4-52.4 33.4-82.4 38-43 6.6-72.1-21.5-95.8-53.8M348.6 155.1c-27-38-67.7-77.2-117.8-78-29-.4-55.9 17-80.4 30.5-24.4 13.5-50.2 29-78.4 32.6C28.7 145.7-.4 115.8-23.6 83"/><path d="M344.4 183.2c-26.6-38.8-67.4-80.2-118.1-82.1-26.8-1-52.6 14-75.8 25.5-24.7 12.2-50.5 26.1-78.6 27.5-42.1 2-69.4-29-91.3-61.2M340.1 211.3c-25.9-39.3-65.4-81.6-115.7-86.1-25.8-2.3-51 10.5-74 20.5-24.2 10.5-49.6 22.5-76.6 22.2-41.7-.5-68-32.8-89-65"/><path d="M335.9 239.4c-25.2-39.6-62-80.8-110.8-89.6-25.8-4.6-50.8 6-74.6 14.8-24.4 9-50.3 19.5-76.8 16.8-40.1-4.1-64.8-37.2-84.6-68.8M395.9-166.6c-39.8-37.5-94.5-55-146.3-30.6-39.5 18.6-70.7 58.1-100.2 89.2C118-75 86.2-38.9 46.6-15.4 2.9 10.5-36.7 4-73-31"/><path d="M391.7-138.5c-38-37-90.1-56.7-141.5-35.6-39.8 16.4-71.2 54.9-100.7 84.9C118.2-57.3 86.2-21.7 46.4-.5 2.9 22.8-34.7 12.8-68.7-21.2"/><path d="M387.4-110.4c-36-36.2-86-58.3-136.8-40.5-40 14-71.8 51.9-101.2 80.7-30.2 29.6-61 62.4-99 82.2-44 22.9-81.5 11.3-115-23.3"/><path d="M383.2-82.3c-36.2-37.6-87.5-61.7-139.6-42.6-36.3 13.4-66.6 47.7-94.1 73.7-29.6 28-59.9 58.9-97 76.8C8.4 46.9-28 33-60.2-1.4"/><path d="M379.2-55.4c-34.5-36.9-83.4-63-134.8-47.1-36.8 11.3-67 44.2-94.8 69.5-29.5 26.7-60.2 57.2-97.4 72.8C8.8 58-25.9 41.4-56.1 8.1"/><path d="M374.9-27.3c-32.7-36.2-79.5-64.1-130-51.8-36.9 9-67.5 41-95.4 65.1-28.4 24.5-57.8 52.3-93.2 66.5-44 17.7-78.6-.8-108.2-34.5"/><path d="M370.7.8c-32-36.7-79.3-67.3-130.3-55.1-34.7 8.3-64 37.2-90.8 59.2-27.2 22.4-55.5 47.7-89 60.4-44.8 16.9-79-3-108.2-37.5"/><path d="M366.5 28.9C334.8-8.6 287.7-41 235.8-29.6c-32.3 7.1-60.9 33.8-86.3 53.5-27.3 21.2-55.7 45.2-89.3 55.9-44.1 14-76.5-8.7-103.7-42"/><path d="M363.2 58.4C332.8 20.3 287-14.2 235.1-5.7 203.7-.6 175.5 24 150.5 42.2c-26.9 19.6-54.7 41.8-87.3 51-43.5 12.2-75.1-11.5-101.4-44.3"/><path d="M359.2 85.4C330 47.6 286.9 12.5 235.8 17.3c-31.7 3-59.9 25.8-85.3 43.1-26.8 18.3-55.2 39.7-87.6 46.5-42.4 8.9-72.6-16.9-97-48.5M354.9 113.5c-28.7-38.4-72.1-76-123.6-71.9-29.6 2.4-56.4 22.4-80.8 37.8-25.7 16.3-52.9 35.2-83.4 40.7-43.2 7.8-72.8-19.4-97-51.8"/><path d="M350.7 141.6c-27.4-37.9-68.6-76.5-118.9-76.1-29.5.2-56.6 18.7-81.3 33-24.7 14.3-50.6 30.7-79.3 35.1-43.6 6.6-73.2-22.4-96.9-55.4M346.4 169.7c-27-38.7-68.3-79.5-119.2-80.1-27.3-.3-53.3 15.7-76.7 27.9-24.9 13-51 27.9-79.5 30-42.4 3.2-70.1-27.2-92.4-59.3"/><path d="M342.4 196.7c-26.3-39-66.4-80.9-116.9-84-26.3-1.6-51.8 12.3-74.9 23.1-24.5 11.4-50.1 24.4-77.7 24.9-41.9.8-68.7-30.8-90.2-63"/><path d="M338.1 224.8c-25.6-39.3-62.9-80.2-112-87.6-26.3-4-51.7 7.9-75.6 17.5-24.5 9.9-50.7 21.5-77.8 19.6-40.4-2.8-65.6-35.4-85.8-66.9"/><path d="M333.9 252.9c-24.9-39.9-61.2-81.4-109.7-91.5-25.3-5.2-50 4.3-73.7 12.4-24.2 8.2-49.8 17.6-75.8 14.2-39.7-5.3-64-38.9-83.6-70.6"/></g></g></svg>