<svg xmlns="http://www.w3.org/2000/svg" viewBox="0 0 768.9 268.5"><g fill="none" stroke="#C6D6D8" stroke-miterlimit="10"><path d="M383.4 4.8C255.7 92.2 128.7 179.9 2.2 268M383.5 4.6c-31.1 14.6-61.4 30-90.9 46.1-25.1 13.7-53.7 27.4-74.9 43.9-30 23.3-53.6 52.9-78.5 78.9-29.8 31.2-58.8 62.7-87.2 94.5"/><path d="M383.6 4.4c-27.2 8.2-53 18.5-77.4 30.2-21.5 10.3-47.4 21.9-63.6 36.2-26.7 23.6-44.4 56.1-63.6 82.8-27.1 37.7-52.7 75.9-77.4 114.3"/><path d="M383.7 4.3c-43.1 8.3-92.5 31.3-117.1 57.4-24.6 26-39.2 60.3-55.6 89-22.1 38.7-42.3 77.9-61.6 117.3"/><path d="M383.9 4.2c-40.5 6.3-74.6 35.2-92.3 59.6-18.2 25-29.3 53.8-41.5 80.4-18.9 40.9-35.3 82.3-50.8 123.8"/><path d="M384 4.2c-37.3 8.4-56 48.6-67.5 71-32 62.1-49.8 128.2-67.5 192.7"/><path d="M384.1 4.4c-22.4 27.2-32.9 59.8-42.7 90-18.5 57.3-30.8 115.6-42.6 173.6M384.3 4.7c-17.4 87.4-27.8 175.4-37.7 263.3M384.4 4.9C388 92.6 392 180.3 396.3 268M384.5 5.2c14.3 87.4 25.7 178 61.5 262.8M384.6 5.4c14.8 61.6 30.1 123.7 55.6 183.7 10.8 25.4 23.4 61.8 55.6 79"/><path d="M384.8 5.5c21.5 65.9 41.1 136.7 80.4 199 14.5 23.1 41.2 57.2 80.4 63.5"/><path d="M384.9 5.5c17.7 41.5 36.4 82.8 57.3 123.6 13.8 26.8 25.9 57.7 46.9 82.3 21.4 25 62.5 49.9 104.2 56.6"/><path d="M385 5.4c22.4 40 45.7 79.8 70.9 119 17.3 27 33.1 59.7 58.2 83.8 28 26.8 84.4 49.5 129 59.9"/><path d="M385.2 5.2c27.2 36 55.2 71.8 84.4 107 21.5 25.9 41.5 56.5 69.4 79.4 18.4 15.2 46.3 27.5 69.4 39.1 27 13.6 55.1 26.2 84.4 37.3"/><path d="M385.3 5c32.9 29.5 66.1 58.8 99.8 87.8 25.7 22.1 50.3 46.4 78.9 66.8 54.6 39 118.4 73.7 178.7 108.4M383.4 4.7c-60 34.6-125.2 69.1-178.7 108.5C140 161 83.8 216.3 26.1 268"/><path d="M383.6 4.5c-28.7 10.9-56.2 23.2-82.7 36.5-23 11.5-53 24.2-71.2 39.5-28.3 24-49 55.7-71.2 82.5-28.6 34.6-56 69.7-82.7 105"/><path d="M383.7 4.3c-25.9 6.2-50 15.4-72.3 26.2-18.6 9-43.5 20.4-56.7 33.3-12.9 12.6-21.2 29.5-30.7 43.4-9.9 14.6-19.6 29.3-29 44-24.6 38.5-47.4 77.5-69.3 116.8"/><path d="M383.8 4.3c-40.7 6.5-83.6 31.8-104.2 56.4-21.6 25.8-33.9 58-48.2 86-20.4 40-38.7 80.6-56 121.3"/><path d="M383.9 4.2c-39 6.7-65.8 40.5-80.4 63.7-39.4 62.6-58.9 133.9-80.4 200"/><path d="M384.1 4.3c-32.2 17.1-44.9 54.1-55.6 79.5-25.4 60.2-40.8 122.5-55.6 184.2M384.2 4.5c-36.2 84.9-47.3 176-61.5 263.5M384.3 4.8C380 92.5 376 180.3 372.4 268M384.5 5c9.9 87.8 20.4 175.7 37.7 263M384.6 5.3c11.8 57.9 24.1 116 42.7 173.1 9.8 30.1 20.3 62.5 42.7 89.6"/><path d="M384.7 5.5c17.7 64.3 35.4 130.3 67.5 192.1 11.7 22.5 30.2 62 67.5 70.4"/><path d="M384.8 5.5c15.8 42.3 32.6 84.5 52 126.2 11.9 25.6 22.5 54 40.3 78 17.8 23.9 52.5 52.4 92.3 58.4"/><path d="M385 5.4c20.1 41 41.2 81.7 64.3 122 15.5 26.9 29.3 59.7 52.8 83.8 25.2 25.9 73.9 48.4 117.1 56.8"/><path d="M385.1 5.3c25.2 39.2 51.3 78.1 79 116.5 10.3 14.2 20.8 28.4 31.5 42.5 9.3 12.2 17.7 27.8 30.4 38.5 16.4 13.9 43.9 25.7 65.2 35.8 23.9 11.3 49.1 21.4 75.7 29.3"/><path d="M385.2 5.1c29.1 32.4 58.6 64.5 89.1 96.3 24.2 25.3 47.2 54.8 76.7 77.4 21.6 16.5 51.4 30.4 76.7 44.1 28.9 15.7 58.6 30.8 89.1 45.1M385.3 4.9C511.8 93 638.8 180.7 766.5 268"/><g><path d="M384.9 4.5c-.4 1-.6-1-1 0M409.6 22c-11.2 19.3-16.2 15.5-25.3-.4-10.4-18.2-15.5-17.2-25.3 0"/><path d="M434.4 39.4c-3 5.9-11.2 29.9-28.3 27.1-11.4-1.9-17.8-21.2-21.8-27.9-3.9-6.5-10.6-27.8-24.6-27.8-15.5 0-22.1 21.2-25.5 28"/><path d="M458.1 56.1c-5.3 10.7-15.5 41.4-41.2 37.8-16.4-2.3-27.1-30-32.8-39-6.2-9.8-15.6-38.6-35.6-38.8-23.7-.2-33.3 28.7-38.3 39.1"/><path d="M482.9 73.5c-6.8 13.9-21.5 53.7-54.5 47.4-22.9-4.4-35.1-35.6-44.2-48.9-8.7-12.8-22.3-46.9-47.1-48.8-31.8-2.5-44.7 34.8-51.6 49.2"/><path d="M507.6 90.9c-8.7 17.5-27.9 66-69.4 55-27.2-7.3-42-40.3-54.2-56.8-12.4-16.8-27.6-51.6-57.2-56.9-40.3-7.3-57.8 39.7-66.4 57.4"/><path d="M532.4 108.3c-10.3 20.3-33.4 75.6-81.3 61.8-32.5-9.3-51.1-44.2-67.1-63.9-15.9-19.6-34.4-54.3-67.1-63.2-48.2-13.2-71.1 43.1-81.3 63.7M556.1 124.9c-12.5 24.3-40.7 86.1-95.7 65.8-35.1-13-56.5-45.8-76.5-68.2-19.9-22.3-41.2-55-76.5-67.5-55.5-19.7-83.5 44-95.7 68M581.9 140.2c-15.2 28-47.1 91.2-107.5 70.7-39.3-13.4-65.6-46.4-89.5-70.2-24.2-24-50.1-56.9-89.5-70.8-60-21.2-92 40.2-107.5 68.3"/><path d="M606.8 157.3c-22.4 32.6-59.2 81.1-123 66-42.6-10.1-71.7-42.3-98.9-65.5-27.3-23.2-56.6-55.5-98.9-66.2-63.2-16-100.4 31.6-123 63.9"/><path d="M631.7 174.5C602 208.3 560.8 243.8 497 235c-46.5-6.4-80.6-37.6-112-60-32.5-23.2-67.5-55.6-116.2-61.4-61.7-7.3-101.5 26.9-130.5 59.4"/><path d="M656.5 191.6c-37.9 32.9-84.5 58-148.2 53-49.1-3.9-86.8-31.6-123.3-52.6-37.9-21.9-76.4-50.4-127.9-53.7-61.6-4-106.7 20.4-143.6 52"/><path d="M680.4 208c-46.4 29.9-99.4 47.2-163.7 44.2-50-2.3-90.8-25.5-131.6-43.9-40.6-18.2-82-41.9-131.6-44.5-64-3.3-117.1 13.6-163.7 43.1"/><path d="M705.3 225.2c-53.5 23.3-111.5 34.6-174.7 33.7-52.9-.8-98.2-18.3-145.4-33.4-47.1-15.1-92.6-33-145.4-33.9-63.1-1.1-121 9.8-174.7 32.9"/><path d="M730.2 242.3c-60.8 15.2-123.6 21.5-188.1 21.4-54.3-.1-104.8-11.3-156.8-21.2-53.9-10.3-105.9-21.7-162.3-21.6-62.6.1-123.6 6.4-182.6 21M755.1 259.4c-124 9.9-245.8 7.9-369.7.1-123.9-7.9-245.7-10-369.7-.2M396.7 12.9c-.4 13.9-9.7 3.9-12.4-.2-2.8-4.3-12.1-13.8-12.4.1"/><path d="M421.5 30.3c-2 3.8-8.3 23.3-21.4 20.6-8.6-1.8-12.5-15.5-15.9-21.2-3.5-6-7.2-21.4-18.6-21.2-11.2.2-16.8 17.8-18.6 21.3"/><path d="M446.2 47.8c-4.1 8.3-13.2 35.6-34.8 32.6-14.6-2-22.1-25.2-27.3-33.6-5.1-8.4-13.2-33.3-30.1-33.5-19.5-.3-27.8 25.4-31.8 33.7"/><path d="M471 65.2c-6.2 12.7-18.5 48-48.1 43-20.2-3.4-31-32.6-38.7-44.4-7.7-11.7-19.1-43.3-41.6-44.2-28.3-1.2-39 31.6-45.2 44.6"/><path d="M494.7 81.9c-7.9 16-24.9 60.6-62.5 51-24.7-6.3-37.4-37.5-48.2-52.7-10.4-14.8-24.9-48.9-51.2-52.8-36.6-5.4-51.6 37-59.5 53.2"/><path d="M519.5 99.2c-9.3 18.6-29.3 68.9-72.8 59.1-31.3-7.1-48.6-42.8-62.7-61.1-14.1-18.3-31.1-53.7-62.7-60.3-43.8-9.3-63.5 41.7-72.8 60.8M544.2 116.6c-11.2 22-36.5 80.5-87.7 64.3-34.6-10.9-54.5-45.2-72.6-66.6-17.9-21.1-38-55.4-72.6-65.8-51.5-15.5-76.7 44.4-87.7 66.3M569 134c-13.5 25.9-43.3 90-101.1 68.2-37.3-14.1-61.8-47.1-84-70.7-22.2-23.5-48-59-87.2-71.2-56.8-17.7-85.3 47.2-97.9 71.8"/><path d="M594.8 149.1c-19 30.9-53.5 86.5-116.4 68.1-40.8-11.9-68-44.1-93.6-67.6-25.7-23.6-53.1-55.8-93.6-68.3-62.2-19.2-97.2 35.3-116.4 65.9"/><path d="M618.7 165.6c-25.6 33.2-64.1 75.1-127.6 63.7-44.9-8.1-77-40.4-106.1-63.2-30-23.5-63.2-57.4-110.1-64.7-61.4-9.6-98.6 30.6-123.6 62.6"/><path d="M643.6 182.7c-33.6 33.7-77.3 63.9-141.2 57.1-47.8-5.1-83.7-34.8-117.4-56.6-35-22.7-71.7-53.4-121.8-57.9-61.7-5.5-104 23.6-136.8 56"/><path d="M668.5 199.8c-41.8 31.5-91.1 52.5-154.7 48.8-50.1-2.9-89.6-28.4-128.7-48.5-40.7-20.9-80.9-47.1-133.5-49.4-61.5-2.8-109.2 17.7-149.9 47.9"/><path d="M693.4 216.9c-50.6 27-106.6 40.9-170.8 38.9-50.8-1.5-93.8-22-137.4-38.6-43.3-16.5-86.9-37.4-137.4-39.2-64.1-2.3-120.1 11.3-170.8 38"/><path d="M717.2 233.4c-56.2 19.4-115.8 28.2-178.5 28-54.7-.2-103-14.8-153.6-27.8-50.5-13-99.1-27.9-153.6-28.2-62.6-.4-122.2 8.3-178.5 27.4M742.1 250.5c-63.9 10.6-128.9 14.9-194.6 15-55.1.1-108.3-7.8-162.3-14.8-54-7-107.2-15.1-162.3-15.1-65.7 0-130.6 4.1-194.6 14.6M767 267.7c-254.4.8-508.9-.8-763.3 0"/></g></g></svg>