<svg xmlns="http://www.w3.org/2000/svg" viewBox="0 0 768.9 385.9"><g fill="none" stroke="#C6D6D8" stroke-miterlimit="10"><path d="M383.4 1.4C255.1 128.8 127.5 256.8.4 385.4M383.5 1c-31.3 21.3-61.7 43.8-91.3 67.3-25.2 19.9-53.9 40-75.2 64.1-30.1 34-53.9 77.3-78.8 115.2-30 45.5-59.1 91.5-87.7 137.9"/><path d="M383.6.7c-27.3 12-53.3 27-77.7 44.1-21.7 15.1-47.6 32-63.9 52.8-26.8 34.4-44.6 81.9-63.9 120.9-27.3 55-52.9 110.7-77.7 166.9"/><path d="M383.7.6C340.4 12.7 290.8 46.3 266 84.3c-24.7 37.9-39.4 87.9-55.8 129.9-22.2 56.5-42.5 113.7-61.9 171.2"/><path d="M383.9.5c-40.7 9.2-75 51.4-92.8 86.9-18.3 36.5-29.4 78.5-41.7 117.3-18.9 59.7-35.4 120.1-51 180.7"/><path d="M384 .5c-37.4 12.3-56.2 71-67.8 103.6-32.1 90.6-50 187.1-67.8 281.3"/><path d="M384.1.8c-22.5 39.7-33 87.2-42.9 131.3-18.7 83.5-31 168.6-42.9 253.3M384.3 1.1c-17.5 127.5-27.9 256-37.9 384.3M384.4 1.5c3.7 128 7.6 256 12 383.9M384.5 1.9c14.3 127.5 25.8 259.8 61.8 383.6M384.6 2.2c14.9 89.8 30.3 180.5 55.9 268 10.8 37.1 23.5 90.2 55.9 115.2"/><path d="M384.8 2.3c21.6 96.2 41.3 199.4 80.8 290.4 14.6 33.7 41.4 83.5 80.8 92.7"/><path d="M384.9 2.3c17.8 60.6 36.5 120.9 57.6 180.4 13.8 39.1 26 84.2 47.1 120.1 21.5 36.5 62.9 72.8 104.7 82.6"/><path d="M385 2.2c22.5 58.4 45.9 116.4 71.2 173.6 17.4 39.4 33.2 87.2 58.4 122.2 28.1 39.2 84.8 72.2 129.7 87.4"/><path d="M385.2 2c27.4 52.6 55.5 104.7 84.8 156.2 21.6 37.8 41.7 82.4 69.8 115.8 18.5 22.1 46.5 40.1 69.8 57 27.2 19.8 55.4 38.2 84.8 54.4"/><path d="M385.3 1.6c33.1 43 66.4 85.8 100.3 128.2 25.8 32.3 50.6 67.7 79.2 97.5 54.8 56.9 119 107.5 179.5 158.1M383.4 1.2C323.1 51.7 257.6 102 203.9 159.6 138.9 229.3 82.3 310 24.4 385.5"/><path d="M383.6.9c-28.8 16-56.5 33.9-83.1 53.3-23.2 16.8-53.3 35.3-71.5 57.6-28.5 35-49.2 81.2-71.5 120.4-28.7 50.5-56.3 101.7-83.1 153.2"/><path d="M383.7.7c-26 9-50.3 22.5-72.7 38.3-18.7 13.2-43.7 29.7-57 48.6-12.9 18.3-21.3 43-30.8 63.3-10 21.3-19.7 42.7-29.2 64.2-24.7 56.2-47.6 113.1-69.7 170.4"/><path d="M383.8.5c-40.9 9.4-84 46.4-104.7 82.4-21.7 37.6-34.1 84.7-48.4 125.5-20.5 58.4-38.9 117.6-56.3 177"/><path d="M383.9.5c-39.1 9.8-66.1 59.1-80.8 93-39.6 91.3-59.2 195.4-80.8 291.9"/><path d="M384.1.6c-32.4 25-45.1 78.9-55.9 116-25.5 87.8-41 178.7-55.9 268.8M384.2 1c-36.3 123.9-47.5 256.8-61.8 384.4M384.3 1.3c-4.4 128-8.3 256-12 384.1M384.5 1.7c10 128.1 20.5 256.4 37.9 383.7M384.6 2c11.9 84.5 24.2 169.3 42.9 252.7 9.9 43.9 20.4 91.2 42.9 130.7"/><path d="M384.7 2.3c17.8 93.9 35.6 190.1 67.8 280.4 11.7 32.8 30.3 90.4 67.8 102.7"/><path d="M384.8 2.3c15.9 61.8 32.8 123.3 52.2 184.1 12 37.3 22.6 78.8 40.5 113.8 17.8 34.9 52.8 76.4 92.8 85.2"/><path d="M385 2.3c20.2 59.8 41.4 119.3 64.6 178 15.6 39.3 29.4 87.1 53 122.3 25.3 37.7 74.3 70.7 117.7 82.9"/><path d="M385.1 2.1c25.3 57.2 51.5 114 79.4 170 10.3 20.8 20.9 41.4 31.7 62 9.4 17.9 17.8 40.5 30.5 56.2 16.5 20.4 44.1 37.5 65.5 52.3 24 16.5 49.4 31.3 76.1 42.8"/><path d="M385.2 1.8c29.2 47.3 58.9 94.2 89.5 140.6 24.4 36.9 47.5 79.9 77 112.9 21.7 24.1 51.6 44.3 77 64.4 29.1 22.9 58.9 45 89.5 65.7M385.4 1.4c127.1 128.6 254.7 256.6 383 384"/><g><path d="M384.9.9c-.4 1.4-.6-1.5-1 0M409.7 26.4c-11.3 28.2-16.3 22.6-25.4-.6C373.9-.7 368.8.9 358.9 26"/><path d="M434.6 51.8c-3 8.6-11.3 43.6-28.5 39.5-11.4-2.7-17.9-30.9-21.9-40.7-3.9-9.5-10.7-40.6-24.7-40.5-15.6 0-22.2 31-25.6 40.9"/><path d="M458.5 76.2c-5.3 15.6-15.6 60.5-41.4 55.2-16.5-3.4-27.2-43.7-32.9-56.9-6.2-14.3-15.7-56.4-35.8-56.7-23.8-.4-33.4 41.9-38.5 57.1"/><path d="M483.3 101.6c-6.8 20.2-21.6 78.4-54.8 69.1-23-6.4-35.3-51.9-44.4-71.4-8.7-18.7-22.4-68.4-47.4-71.2-32-3.6-44.9 50.7-51.9 71.8"/><path d="M508.2 127c-8.7 25.5-28 96.4-69.7 80.2-27.3-10.6-42.2-58.7-54.4-82.9-12.5-24.6-27.7-75.3-57.4-83.1-40.5-10.6-58.1 58-66.7 83.7"/><path d="M533.1 152.4c-10.3 29.7-33.6 110.3-81.7 90.2-32.6-13.7-51.4-64.6-67.4-93.4-16-28.6-34.6-79.2-67.5-92.2-48.5-19.2-71.4 62.8-81.7 93M557 176.7c-12.5 35.4-40.9 125.7-96.1 96.1-35.3-18.9-56.8-66.8-76.9-99.5-20-32.5-41.4-80.3-76.9-98.6C251.4 46 223.2 138.9 211 174M582.9 198.9C567.6 239.7 535.6 332 474.8 302c-39.5-19.5-65.9-67.7-89.9-102.4-24.3-35.1-50.4-83-89.9-103.3-60.4-30.9-92.5 58.7-108.1 99.7"/><path d="M607.9 223.9c-22.5 47.6-59.5 118.4-123.6 96.3-42.8-14.8-72-61.8-99.4-95.5-27.4-33.8-56.9-81-99.4-96.5-63.5-23.3-100.9 46-123.6 93.2"/><path d="M632.9 248.9c-29.8 49.3-71.2 101.2-135.3 88.2-46.7-9.4-81-54.9-112.5-87.6-32.7-33.8-67.9-81.2-116.8-89.6-62-10.6-102 39.2-131.1 86.6"/><path d="M657.9 273.9c-38 48-84.9 84.7-148.9 77.3-49.3-5.7-87.3-46-123.8-76.7-38.1-32-76.8-73.5-128.5-78.3-61.9-5.8-107.3 29.8-144.3 75.9"/><path d="M681.9 297.9c-46.6 43.6-99.9 68.9-164.5 64.5-50.2-3.4-91.3-37.3-132.3-64-40.8-26.6-82.4-61.2-132.3-64.9-64.3-4.9-117.7 19.8-164.5 62.9"/><path d="M706.9 322.9c-53.7 34.1-112 50.5-175.5 49.2-53.2-1.1-98.6-26.7-146.1-48.8-47.3-22-93.1-48.2-146.1-49.5-63.4-1.6-121.6 14.3-175.5 48"/><path d="M731.9 347.9c-61.1 22.2-124.2 31.4-189 31.2-54.6-.1-105.3-16.5-157.5-31-54.2-15-106.4-31.7-163.1-31.5-63 .2-124.3 9.4-183.6 30.6M756.9 372.9c-124.6 14.5-247 11.5-371.5.1-124.5-11.5-246.9-14.6-371.5-.3M396.8 13.2c-.4 20.3-9.7 5.8-12.5-.3-2.8-6.3-12.2-20.2-12.5.1"/><path d="M421.7 38.6c-2 5.6-8.4 34.1-21.5 30.1-8.7-2.6-12.6-22.7-15.9-31-3.5-8.8-7.2-31.3-18.7-30.9-11.3.3-16.8 26-18.7 31.1"/><path d="M446.5 64c-4.2 12.2-13.3 51.9-34.9 47.6-14.7-2.9-22.2-36.7-27.4-49.1-5.2-12.3-13.3-48.6-30.3-48.9-19.6-.3-28 37.1-32.1 49.3"/><path d="M471.4 89.4c-6.3 18.5-18.5 70-48.4 62.7-20.3-4.9-31.1-47.5-38.9-64.7-7.7-17-19.2-63.1-41.8-64.5-28.4-1.7-39.2 46.2-45.4 65"/><path d="M495.3 113.8c-7.9 23.3-25 88.4-62.8 74.5-24.8-9.2-37.6-54.7-48.4-77-10.5-21.5-25-71.4-51.4-77.1-36.7-7.9-51.9 54-59.8 77.7"/><path d="M520.1 139.2c-9.3 27.1-29.5 100.6-73.2 86.2-31.4-10.3-48.8-62.5-63-89.2-14.1-26.6-31.3-78.3-63-88.1-44-13.5-63.8 60.9-73.2 88.7M545 164.5c-11.2 32.1-36.7 117.4-88.1 93.8-34.8-15.9-54.8-66-73-97.1-18-30.7-38.2-80.9-73-96.1-51.8-22.7-77.1 64.7-88.1 96.8M569.9 189.8c-13.6 37.8-43.5 131.3-101.6 99.5-37.5-20.5-62.1-68.7-84.5-103.2-22.3-34.3-48.2-86.1-87.6-104-57.1-25.8-85.8 68.9-98.4 104.7"/><path d="M595.9 211.9c-19 45.1-53.8 126.2-116.9 99.4-41-17.4-68.3-64.4-94-98.7-25.8-34.5-53.3-81.4-94-99.7-62.5-28.1-97.7 51.5-116.9 96.2"/><path d="M619.9 235.9c-25.7 48.4-64.4 109.6-128.2 93-45.1-11.8-77.4-58.9-106.6-92.3-30.1-34.3-63.5-83.8-110.6-94.5-61.7-13.9-99.1 44.7-124.2 91.3"/><path d="M644.9 260.9c-33.7 49.2-77.7 93.3-141.9 83.3-48-7.5-84.1-50.8-118-82.7-35.2-33.1-72.1-77.9-122.4-84.5-62-8.1-104.5 34.5-137.4 81.8"/><path d="M669.9 285.9c-42 45.9-91.6 76.6-155.5 71.3-50.4-4.2-90.1-41.5-129.3-70.7-40.9-30.5-81.3-68.7-134.1-72.1-61.8-4-109.7 25.8-150.6 69.9"/><path d="M694.9 310.9c-50.9 39.4-107.2 59.7-171.7 56.8-51.1-2.3-94.3-32.1-138-56.4-43.5-24.1-87.3-54.6-138-57.2-64.4-3.3-120.6 16.5-171.7 55.4"/><path d="M718.9 334.9c-56.5 28.3-116.3 41.2-179.3 40.9-54.9-.3-103.5-21.6-154.3-40.6-50.7-19-99.5-40.7-154.3-41.2-62.9-.5-122.8 12-179.3 40M743.9 359.9c-64.2 15.5-129.5 21.7-195.5 21.8-55.4.1-108.8-11.4-163.1-21.7-54.2-10.2-107.7-22-163.1-22-66 0-131.3 6-195.5 21.4M768.9 384.9c-255.7 1.2-511.3-1.2-767 0"/></g></g></svg>