<svg xmlns="http://www.w3.org/2000/svg" viewBox="0 0 1200 600"><path opacity=".8" fill="#F6CA06" d="M0 426l600-141 341 315H0"/><path opacity=".8" fill="#FFB600" d="M737 600l181.5-367L1131 600M918 600l130.6-227.9 151.4 131V600"/><g fill="#B2B967"><path opacity=".56" d="M1041 270l159 195.8V600H435"/><path opacity=".56" d="M0 373l149-140 451 367H0"/></g><path fill="#FFB600" d="M0 444.6l127.6-113L285.1 600H0"/><g fill="#FCAD00"><path opacity=".51" d="M0 442.5L407 249l400.1 351H0"/><path opacity=".51" d="M786.8 284.1L1201 483l-1 117H558"/><path opacity=".51" d="M609.1 600l136.6-334.4L984.1 600"/></g><g fill="#FA6101"><path opacity=".7" d="M0 600l196.6-139.4 252 139.4M293.9 600l238.6-118.5L729.1 600M495.6 600L715 460.6 839.1 600h-82.2M910.3 411.6L1100.9 600H757M998.5 600l101.6-158 98.9 98.8V600"/></g></svg>